<svg width="192" height="49" viewBox="0 0 192 49" fill="none" xmlns="http://www.w3.org/2000/svg">
<path fill-rule="evenodd" clip-rule="evenodd" d="M160 12.3576V18.7152C160 23.3968 156.194 27.192 151.5 27.192H147.25V35.6688H126V31.4304L127.98 26.9178C128.661 27.0964 129.38 27.192 130.125 27.192C133.967 27.192 137.316 24.5843 138.248 20.867L134.125 19.839C133.666 21.6695 132.017 22.9536 130.125 22.9536C129.991 22.9536 129.858 22.9473 129.727 22.9349C128.18 22.7888 126.918 21.7997 126.341 20.4767C126.168 20.0819 126.057 19.6573 126.017 19.2166C125.976 18.7711 126.009 18.3091 126.125 17.8445L127.485 12.4209C128.431 8.64728 131.831 6 135.731 6H147.25L151.5 12.3576H160ZM145.125 16.596C146.299 16.596 147.25 15.6472 147.25 14.4768C147.25 13.3064 146.299 12.3576 145.125 12.3576C143.951 12.3576 143 13.3064 143 14.4768C143 15.6472 143.951 16.596 145.125 16.596Z" fill="#3746A4"/>
<path d="M14.58 36.36C11.94 36.36 9.672 35.832 7.776 34.776C5.904 33.696 4.464 32.184 3.456 30.24C2.448 28.272 1.944 25.956 1.944 23.292C1.944 21.3 2.232 19.512 2.808 17.928C3.384 16.32 4.212 14.952 5.292 13.824C6.372 12.672 7.692 11.796 9.252 11.196C10.836 10.572 12.612 10.26 14.58 10.26C15.9 10.26 17.196 10.428 18.468 10.764C19.74 11.1 20.856 11.58 21.816 12.204C22.32 12.516 22.656 12.9 22.824 13.356C22.992 13.788 23.028 14.22 22.932 14.652C22.836 15.06 22.632 15.408 22.32 15.696C22.032 15.984 21.66 16.152 21.204 16.2C20.772 16.224 20.292 16.068 19.764 15.732C19.02 15.252 18.216 14.904 17.352 14.688C16.488 14.472 15.612 14.364 14.724 14.364C13.02 14.364 11.58 14.712 10.404 15.408C9.228 16.104 8.34 17.112 7.74 18.432C7.14 19.752 6.84 21.372 6.84 23.292C6.84 25.188 7.14 26.808 7.74 28.152C8.34 29.496 9.228 30.516 10.404 31.212C11.58 31.908 13.02 32.256 14.724 32.256C15.636 32.256 16.536 32.148 17.424 31.932C18.312 31.692 19.152 31.332 19.944 30.852C20.472 30.54 20.94 30.408 21.348 30.456C21.78 30.48 22.14 30.624 22.428 30.888C22.716 31.152 22.908 31.488 23.004 31.896C23.1 32.28 23.076 32.688 22.932 33.12C22.788 33.528 22.5 33.888 22.068 34.2C21.108 34.896 19.956 35.436 18.612 35.82C17.292 36.18 15.948 36.36 14.58 36.36ZM34.2191 36.36C32.2271 36.36 30.5111 35.988 29.0711 35.244C27.6311 34.5 26.5151 33.444 25.7231 32.076C24.9551 30.708 24.5711 29.088 24.5711 27.216C24.5711 25.392 24.9431 23.796 25.6871 22.428C26.4551 21.06 27.4991 19.992 28.8191 19.224C30.1631 18.432 31.6871 18.036 33.3911 18.036C34.6391 18.036 35.7551 18.24 36.7391 18.648C37.7471 19.056 38.5991 19.644 39.2951 20.412C40.0151 21.18 40.5551 22.116 40.9151 23.22C41.2991 24.3 41.4911 25.524 41.4911 26.892C41.4911 27.324 41.3351 27.66 41.0231 27.9C40.7351 28.116 40.3151 28.224 39.7631 28.224H28.2071V25.632H38.3231L37.7471 26.172C37.7471 25.068 37.5791 24.144 37.2431 23.4C36.9311 22.656 36.4631 22.092 35.8391 21.708C35.2391 21.3 34.4831 21.096 33.5711 21.096C32.5631 21.096 31.6991 21.336 30.9791 21.816C30.2831 22.272 29.7431 22.932 29.3591 23.796C28.9991 24.636 28.8191 25.644 28.8191 26.82V27.072C28.8191 29.04 29.2751 30.516 30.1871 31.5C31.1231 32.46 32.4911 32.94 34.2911 32.94C34.9151 32.94 35.6111 32.868 36.3791 32.724C37.1711 32.556 37.9151 32.28 38.6111 31.896C39.1151 31.608 39.5591 31.488 39.9431 31.536C40.3271 31.56 40.6271 31.692 40.8431 31.932C41.0831 32.172 41.2271 32.472 41.2751 32.832C41.3231 33.168 41.2511 33.516 41.0591 33.876C40.8911 34.236 40.5911 34.548 40.1591 34.812C39.3191 35.34 38.3471 35.736 37.2431 36C36.1631 36.24 35.1551 36.36 34.2191 36.36ZM47.2868 36.288C46.5668 36.288 46.0148 36.096 45.6308 35.712C45.2468 35.304 45.0548 34.728 45.0548 33.984V20.376C45.0548 19.632 45.2468 19.068 45.6308 18.684C46.0148 18.3 46.5548 18.108 47.2508 18.108C47.9468 18.108 48.4868 18.3 48.8708 18.684C49.2548 19.068 49.4468 19.632 49.4468 20.376V22.824L49.0508 21.924C49.5788 20.652 50.3948 19.692 51.4988 19.044C52.6268 18.372 53.8988 18.036 55.3148 18.036C56.7308 18.036 57.8948 18.3 58.8068 18.828C59.7188 19.356 60.4028 20.16 60.8588 21.24C61.3148 22.296 61.5428 23.64 61.5428 25.272V33.984C61.5428 34.728 61.3508 35.304 60.9668 35.712C60.5828 36.096 60.0308 36.288 59.3108 36.288C58.5908 36.288 58.0268 36.096 57.6188 35.712C57.2348 35.304 57.0428 34.728 57.0428 33.984V25.488C57.0428 24.12 56.7788 23.124 56.2508 22.5C55.7468 21.876 54.9548 21.564 53.8748 21.564C52.5548 21.564 51.4988 21.984 50.7068 22.824C49.9388 23.64 49.5548 24.732 49.5548 26.1V33.984C49.5548 35.52 48.7988 36.288 47.2868 36.288ZM74.1774 36.36C72.6174 36.36 71.3094 36.096 70.2534 35.568C69.2214 35.04 68.4534 34.272 67.9494 33.264C67.4454 32.232 67.1934 30.96 67.1934 29.448V21.78H65.3214C64.7454 21.78 64.3014 21.636 63.9894 21.348C63.6774 21.036 63.5214 20.616 63.5214 20.088C63.5214 19.536 63.6774 19.116 63.9894 18.828C64.3014 18.54 64.7454 18.396 65.3214 18.396H67.1934V15.12C67.1934 14.376 67.3854 13.812 67.7694 13.428C68.1774 13.044 68.7414 12.852 69.4614 12.852C70.1814 12.852 70.7334 13.044 71.1174 13.428C71.5014 13.812 71.6934 14.376 71.6934 15.12V18.396H75.5094C76.0854 18.396 76.5294 18.54 76.8414 18.828C77.1534 19.116 77.3094 19.536 77.3094 20.088C77.3094 20.616 77.1534 21.036 76.8414 21.348C76.5294 21.636 76.0854 21.78 75.5094 21.78H71.6934V29.196C71.6934 30.348 71.9454 31.212 72.4494 31.788C72.9534 32.364 73.7694 32.652 74.8974 32.652C75.3054 32.652 75.6654 32.616 75.9774 32.544C76.2894 32.472 76.5654 32.424 76.8054 32.4C77.0934 32.376 77.3334 32.472 77.5254 32.688C77.7174 32.88 77.8134 33.288 77.8134 33.912C77.8134 34.392 77.7294 34.824 77.5614 35.208C77.4174 35.568 77.1414 35.82 76.7334 35.964C76.4214 36.06 76.0134 36.144 75.5094 36.216C75.0054 36.312 74.5614 36.36 74.1774 36.36ZM82.2338 36.288C81.4898 36.288 80.9138 36.096 80.5058 35.712C80.1218 35.304 79.9298 34.728 79.9298 33.984V20.376C79.9298 19.632 80.1218 19.068 80.5058 18.684C80.8898 18.3 81.4298 18.108 82.1258 18.108C82.8218 18.108 83.3618 18.3 83.7458 18.684C84.1298 19.068 84.3218 19.632 84.3218 20.376V22.644H83.9618C84.2978 21.204 84.9578 20.112 85.9418 19.368C86.9258 18.624 88.2338 18.18 89.8658 18.036C90.3698 17.988 90.7658 18.12 91.0538 18.432C91.3658 18.72 91.5458 19.176 91.5938 19.8C91.6418 20.4 91.4978 20.892 91.1618 21.276C90.8498 21.636 90.3698 21.852 89.7218 21.924L88.9298 21.996C87.4658 22.14 86.3618 22.596 85.6178 23.364C84.8738 24.108 84.5018 25.164 84.5018 26.532V33.984C84.5018 34.728 84.3098 35.304 83.9258 35.712C83.5418 36.096 82.9778 36.288 82.2338 36.288ZM99.6477 36.36C98.3757 36.36 97.2357 36.12 96.2277 35.64C95.2437 35.136 94.4637 34.464 93.8877 33.624C93.3357 32.784 93.0597 31.836 93.0597 30.78C93.0597 29.484 93.3957 28.464 94.0677 27.72C94.7397 26.952 95.8317 26.4 97.3437 26.064C98.8557 25.728 100.884 25.56 103.428 25.56H105.228V28.152H103.464C101.976 28.152 100.788 28.224 99.8997 28.368C99.0117 28.512 98.3757 28.764 97.9917 29.124C97.6317 29.46 97.4517 29.94 97.4517 30.564C97.4517 31.356 97.7277 32.004 98.2797 32.508C98.8317 33.012 99.5997 33.264 100.584 33.264C101.376 33.264 102.072 33.084 102.672 32.724C103.296 32.34 103.788 31.824 104.148 31.176C104.508 30.528 104.688 29.784 104.688 28.944V24.804C104.688 23.604 104.424 22.74 103.896 22.212C103.368 21.684 102.48 21.42 101.232 21.42C100.536 21.42 99.7797 21.504 98.9637 21.672C98.1717 21.84 97.3317 22.128 96.4437 22.536C95.9877 22.752 95.5797 22.812 95.2197 22.716C94.8837 22.62 94.6197 22.428 94.4277 22.14C94.2357 21.828 94.1397 21.492 94.1397 21.132C94.1397 20.772 94.2357 20.424 94.4277 20.088C94.6197 19.728 94.9437 19.464 95.3997 19.296C96.5037 18.84 97.5597 18.516 98.5677 18.324C99.5997 18.132 100.536 18.036 101.376 18.036C103.104 18.036 104.52 18.3 105.624 18.828C106.752 19.356 107.592 20.16 108.144 21.24C108.696 22.296 108.972 23.664 108.972 25.344V33.984C108.972 34.728 108.792 35.304 108.432 35.712C108.072 36.096 107.556 36.288 106.884 36.288C106.212 36.288 105.684 36.096 105.3 35.712C104.94 35.304 104.76 34.728 104.76 33.984V32.256H105.048C104.88 33.096 104.544 33.828 104.04 34.452C103.56 35.052 102.948 35.52 102.204 35.856C101.46 36.192 100.608 36.36 99.6477 36.36ZM119.551 36.36C117.559 36.36 116.059 35.796 115.051 34.668C114.043 33.516 113.539 31.836 113.539 29.628V12.6C113.539 11.856 113.731 11.292 114.115 10.908C114.499 10.524 115.051 10.332 115.771 10.332C116.491 10.332 117.043 10.524 117.427 10.908C117.835 11.292 118.039 11.856 118.039 12.6V29.412C118.039 30.516 118.267 31.332 118.723 31.86C119.203 32.388 119.875 32.652 120.739 32.652C120.931 32.652 121.111 32.652 121.279 32.652C121.447 32.628 121.615 32.604 121.783 32.58C122.119 32.532 122.347 32.628 122.467 32.868C122.587 33.084 122.647 33.54 122.647 34.236C122.647 34.836 122.527 35.304 122.287 35.64C122.047 35.976 121.651 36.18 121.099 36.252C120.859 36.276 120.607 36.3 120.343 36.324C120.079 36.348 119.815 36.36 119.551 36.36Z" fill="#F77F00"/>
<path d="M169.016 36.36C167.024 36.36 165.308 35.988 163.868 35.244C162.428 34.5 161.312 33.444 160.52 32.076C159.752 30.708 159.368 29.088 159.368 27.216C159.368 25.392 159.74 23.796 160.484 22.428C161.252 21.06 162.296 19.992 163.616 19.224C164.96 18.432 166.484 18.036 168.188 18.036C169.436 18.036 170.552 18.24 171.536 18.648C172.544 19.056 173.396 19.644 174.092 20.412C174.812 21.18 175.352 22.116 175.712 23.22C176.096 24.3 176.288 25.524 176.288 26.892C176.288 27.324 176.132 27.66 175.82 27.9C175.532 28.116 175.112 28.224 174.56 28.224H163.004V25.632H173.12L172.544 26.172C172.544 25.068 172.376 24.144 172.04 23.4C171.728 22.656 171.26 22.092 170.636 21.708C170.036 21.3 169.28 21.096 168.368 21.096C167.36 21.096 166.496 21.336 165.776 21.816C165.08 22.272 164.54 22.932 164.156 23.796C163.796 24.636 163.616 25.644 163.616 26.82V27.072C163.616 29.04 164.072 30.516 164.984 31.5C165.92 32.46 167.288 32.94 169.088 32.94C169.712 32.94 170.408 32.868 171.176 32.724C171.968 32.556 172.712 32.28 173.408 31.896C173.912 31.608 174.356 31.488 174.74 31.536C175.124 31.56 175.424 31.692 175.64 31.932C175.88 32.172 176.024 32.472 176.072 32.832C176.12 33.168 176.048 33.516 175.856 33.876C175.688 34.236 175.388 34.548 174.956 34.812C174.116 35.34 173.144 35.736 172.04 36C170.96 36.24 169.952 36.36 169.016 36.36ZM187.845 36.36C186.285 36.36 184.977 36.096 183.921 35.568C182.889 35.04 182.121 34.272 181.617 33.264C181.113 32.232 180.861 30.96 180.861 29.448V21.78H178.989C178.413 21.78 177.969 21.636 177.657 21.348C177.345 21.036 177.189 20.616 177.189 20.088C177.189 19.536 177.345 19.116 177.657 18.828C177.969 18.54 178.413 18.396 178.989 18.396H180.861V15.12C180.861 14.376 181.053 13.812 181.437 13.428C181.845 13.044 182.409 12.852 183.129 12.852C183.849 12.852 184.401 13.044 184.785 13.428C185.169 13.812 185.361 14.376 185.361 15.12V18.396H189.177C189.753 18.396 190.197 18.54 190.509 18.828C190.821 19.116 190.977 19.536 190.977 20.088C190.977 20.616 190.821 21.036 190.509 21.348C190.197 21.636 189.753 21.78 189.177 21.78H185.361V29.196C185.361 30.348 185.613 31.212 186.117 31.788C186.621 32.364 187.437 32.652 188.565 32.652C188.973 32.652 189.333 32.616 189.645 32.544C189.957 32.472 190.233 32.424 190.473 32.4C190.761 32.376 191.001 32.472 191.193 32.688C191.385 32.88 191.481 33.288 191.481 33.912C191.481 34.392 191.397 34.824 191.229 35.208C191.085 35.568 190.809 35.82 190.401 35.964C190.089 36.06 189.681 36.144 189.177 36.216C188.673 36.312 188.229 36.36 187.845 36.36Z" fill="#3746A4"/>
</svg>
