<svg width="1920" height="2414" viewBox="0 0 1920 2414" fill="none" xmlns="http://www.w3.org/2000/svg">
<path d="M1749.16 437.273C1750.6 444.159 1749.28 451.315 1745.49 457.263C1741.69 463.21 1735.7 467.493 1728.75 469.226C1716.23 470.101 1705.06 457.174 1703.82 440.387C1702.38 433.5 1703.69 426.34 1707.49 420.389C1711.29 414.438 1717.28 410.151 1724.22 408.417C1736.75 407.542 1747.91 420.482 1749.16 437.273ZM1811.1 570.864C1806.1 569.533 1801.43 567.249 1797.33 564.144C1793.24 561.039 1789.81 557.173 1787.24 552.769C1785.32 549.482 1782.15 547.074 1778.42 546.075C1774.69 545.076 1770.71 545.568 1767.36 547.441C1758.31 552.44 1747.6 553.72 1737.56 551C1727.53 548.281 1718.99 541.783 1713.81 532.926C1708.64 524.07 1707.24 513.574 1709.93 503.733C1712.62 493.891 1719.18 485.504 1728.18 480.403C1738.81 474.449 1750.53 470.61 1762.69 469.104C1774.84 467.597 1787.19 468.454 1799.02 471.624C1810.85 474.795 1821.93 480.217 1831.63 487.58C1841.33 494.944 1849.46 504.106 1855.55 514.541C1859.42 521.17 1861.21 528.771 1860.68 536.383C1860.14 543.994 1857.32 551.275 1852.56 557.303C1847.8 563.331 1841.32 567.837 1833.94 570.251C1826.56 572.665 1818.61 572.878 1811.1 570.864ZM1807.66 425.581C1804.34 444.546 1790.16 457.959 1776.02 455.534C1761.87 453.109 1753.1 435.773 1756.43 416.811C1759.75 397.86 1773.93 384.448 1788.07 386.872C1802.22 389.284 1810.98 406.616 1807.66 425.581ZM1815.28 427.624C1808.38 445.628 1813.69 464.263 1827.13 469.232C1840.57 474.2 1857.05 463.633 1863.96 445.629C1870.86 427.639 1865.55 409.005 1852.11 404.036C1838.67 399.053 1822.18 409.617 1815.28 427.624ZM1859.68 466.879C1854.89 472.097 1852.33 478.929 1852.54 485.958C1852.75 492.986 1855.71 499.674 1860.81 504.634C1871.16 511.625 1887.44 506.054 1897.16 492.204C1901.95 486.987 1904.51 480.161 1904.3 473.136C1904.09 466.111 1901.13 459.427 1896.04 454.466C1885.7 447.461 1869.41 453.033 1859.68 466.879Z" fill="#324096"/>
<path d="M296.766 2124.44C301.808 2129.35 304.718 2136.02 304.895 2143.07C305.072 2150.13 302.501 2157.03 297.714 2162.35C287.82 2170.08 271.335 2165.6 260.92 2152.38C255.872 2147.48 252.957 2140.81 252.777 2133.75C252.597 2126.69 255.166 2119.79 259.953 2114.47C269.847 2106.74 286.336 2111.22 296.766 2124.44ZM422.816 2200.56C417.933 2202.24 412.779 2202.97 407.649 2202.68C402.519 2202.4 397.514 2201.11 392.923 2198.89C389.49 2197.25 385.513 2197.02 381.864 2198.28C378.215 2199.54 375.194 2202.17 373.464 2205.59C368.754 2214.8 360.587 2221.86 350.748 2225.21C340.909 2228.57 330.197 2227.96 320.952 2223.51C311.707 2219.06 304.681 2211.14 301.409 2201.48C298.137 2191.81 298.884 2181.19 303.488 2171.93C308.969 2161.05 316.544 2151.31 325.778 2143.27C335.012 2135.22 345.724 2129.03 357.304 2125.04C368.883 2121.05 381.102 2119.35 393.262 2120.03C405.422 2120.71 417.285 2123.76 428.173 2129C435.091 2132.33 440.82 2137.64 444.635 2144.24C448.45 2150.85 450.181 2158.47 449.607 2166.12C449.034 2173.78 446.183 2181.14 441.414 2187.27C436.645 2193.4 430.173 2198.02 422.816 2200.56ZM338.72 2082.04C346.573 2099.62 342.323 2118.66 329.241 2124.56C316.158 2130.46 299.187 2121 291.348 2103.42C283.5 2085.85 287.75 2066.8 300.832 2060.9C313.91 2054.99 330.867 2064.46 338.72 2082.04ZM346.183 2079.47C350.526 2098.26 365.348 2110.73 379.269 2107.34C393.191 2103.94 400.944 2085.96 396.602 2067.17C392.264 2048.4 377.442 2035.92 363.52 2039.32C349.594 2042.7 341.827 2060.68 346.183 2079.47ZM404.944 2087.18C403.887 2094.19 405.587 2101.28 409.692 2106.99C413.796 2112.7 419.991 2116.59 426.991 2117.85C439.481 2117.86 449.863 2104.13 450.172 2087.22C451.227 2080.21 449.528 2073.12 445.428 2067.42C441.327 2061.71 435.138 2057.82 428.143 2056.56C415.649 2056.53 405.267 2070.26 404.944 2087.18Z" fill="#324096"/>
<path d="M297.071 854.969C302.113 859.874 305.024 866.543 305.2 873.599C305.377 880.654 302.806 887.554 298.019 892.873C288.125 900.604 271.641 896.131 261.225 882.908C256.178 878.005 253.262 871.335 253.082 864.278C252.902 857.22 255.471 850.316 260.258 844.995C270.153 837.264 286.642 841.751 297.071 854.969ZM423.121 931.082C418.239 932.771 413.084 933.493 407.954 933.208C402.824 932.923 397.819 931.636 393.228 929.421C389.796 927.772 385.818 927.551 382.169 928.807C378.521 930.064 375.499 932.694 373.769 936.121C369.059 945.329 360.893 952.382 351.053 955.739C341.214 959.096 330.502 958.484 321.257 954.037C312.013 949.59 304.987 941.669 301.715 932.005C298.442 922.341 299.19 911.719 303.793 902.46C309.275 891.581 316.849 881.84 326.083 873.794C335.317 865.748 346.03 859.555 357.609 855.567C369.188 851.58 381.407 849.878 393.567 850.558C405.727 851.237 417.59 854.285 428.478 859.528C435.396 862.858 441.125 868.163 444.94 874.77C448.756 881.378 450.486 888.993 449.913 896.651C449.339 904.31 446.488 911.668 441.719 917.797C436.951 923.926 430.479 928.549 423.121 931.082ZM339.026 812.563C346.879 830.143 342.629 849.189 329.546 855.09C316.464 860.99 299.493 851.526 291.654 833.942C283.805 816.376 288.055 797.33 301.138 791.429C314.216 785.515 331.173 794.984 339.026 812.563ZM346.489 809.994C350.831 828.782 365.653 841.261 379.575 837.863C393.497 834.465 401.25 816.488 396.907 797.7C392.569 778.926 377.747 766.446 363.826 769.844C349.899 773.229 342.132 791.21 346.489 809.994ZM405.25 817.705C404.193 824.713 405.893 831.807 409.997 837.517C414.102 843.226 420.296 847.114 427.297 848.375C439.786 848.383 450.168 834.659 450.477 817.743C451.532 810.739 449.834 803.65 445.733 797.943C441.632 792.235 435.444 788.347 428.448 787.082C415.954 787.061 405.572 800.785 405.25 817.705Z" fill="#324096"/>
<path d="M585.664 1343.92C588.395 1346.58 589.971 1350.19 590.067 1354.01C590.163 1357.84 588.77 1361.57 586.178 1364.45C580.818 1368.64 571.89 1366.22 566.249 1359.06C563.515 1356.4 561.935 1352.79 561.838 1348.97C561.741 1345.14 563.132 1341.4 565.725 1338.52C571.084 1334.33 580.015 1336.77 585.664 1343.92ZM653.937 1385.15C651.292 1386.06 648.501 1386.46 645.722 1386.3C642.943 1386.15 640.233 1385.45 637.746 1384.25C635.887 1383.36 633.732 1383.24 631.756 1383.92C629.78 1384.6 628.143 1386.02 627.206 1387.88C624.655 1392.87 620.232 1396.69 614.903 1398.5C609.573 1400.32 603.771 1399.99 598.764 1397.58C593.757 1395.17 589.951 1390.88 588.179 1385.65C586.407 1380.42 586.811 1374.66 589.305 1369.65C592.274 1363.75 596.376 1358.48 601.378 1354.12C606.379 1349.76 612.182 1346.41 618.453 1344.25C624.725 1342.09 631.343 1341.17 637.93 1341.53C644.516 1341.9 650.941 1343.55 656.838 1346.39C660.586 1348.2 663.688 1351.07 665.755 1354.65C667.821 1358.23 668.759 1362.35 668.448 1366.5C668.138 1370.65 666.593 1374.63 664.01 1377.95C661.427 1381.27 657.922 1383.78 653.937 1385.15ZM608.388 1320.96C612.641 1330.48 610.34 1340.79 603.254 1343.99C596.168 1347.19 586.976 1342.06 582.73 1332.54C578.479 1323.02 580.781 1312.7 587.867 1309.51C594.95 1306.31 604.135 1311.43 608.388 1320.96ZM612.43 1319.56C614.782 1329.74 622.81 1336.5 630.351 1334.66C637.891 1332.82 642.091 1323.08 639.739 1312.91C637.389 1302.74 629.361 1295.98 621.82 1297.82C614.277 1299.65 610.071 1309.39 612.43 1319.56ZM644.257 1323.74C643.685 1327.54 644.605 1331.38 646.828 1334.47C649.052 1337.56 652.407 1339.67 656.199 1340.35C662.963 1340.36 668.587 1332.92 668.754 1323.76C669.325 1319.97 668.405 1316.13 666.184 1313.04C663.963 1309.95 660.611 1307.84 656.822 1307.15C650.055 1307.14 644.432 1314.58 644.257 1323.74Z" fill="#324096"/>
<path d="M162.62 219.48C165.351 222.137 166.927 225.749 167.023 229.57C167.119 233.392 165.726 237.129 163.133 240.01C157.774 244.197 148.846 241.774 143.204 234.612C140.47 231.957 138.891 228.344 138.794 224.522C138.696 220.699 140.088 216.96 142.681 214.078C148.04 209.891 156.971 212.321 162.62 219.48ZM230.893 260.705C228.248 261.62 225.456 262.011 222.678 261.857C219.899 261.703 217.188 261.005 214.702 259.806C212.843 258.912 210.688 258.793 208.712 259.473C206.736 260.154 205.099 261.579 204.162 263.435C201.611 268.422 197.188 272.242 191.858 274.06C186.529 275.878 180.727 275.547 175.72 273.138C170.713 270.73 166.907 266.44 165.135 261.205C163.362 255.971 163.767 250.218 166.261 245.203C169.23 239.31 173.332 234.034 178.334 229.676C183.335 225.318 189.137 221.964 195.409 219.804C201.681 217.645 208.299 216.722 214.885 217.091C221.472 217.459 227.897 219.11 233.794 221.949C237.541 223.753 240.644 226.626 242.711 230.205C244.777 233.784 245.714 237.908 245.404 242.056C245.093 246.204 243.549 250.19 240.966 253.51C238.383 256.829 234.878 259.333 230.893 260.705ZM185.344 196.512C189.597 206.033 187.295 216.349 180.209 219.545C173.123 222.741 163.931 217.615 159.686 208.091C155.435 198.577 157.736 188.261 164.822 185.065C171.906 181.862 181.09 186.99 185.344 196.512ZM189.386 195.12C191.738 205.296 199.766 212.055 207.307 210.215C214.847 208.374 219.046 198.638 216.694 188.461C214.345 178.292 206.317 171.533 198.776 173.374C191.233 175.207 187.026 184.946 189.386 195.12ZM221.213 199.297C220.64 203.092 221.561 206.935 223.784 210.027C226.007 213.12 229.363 215.226 233.154 215.908C239.919 215.913 245.542 208.479 245.71 199.317C246.281 195.524 245.361 191.684 243.14 188.593C240.919 185.501 237.567 183.395 233.778 182.71C227.011 182.699 221.388 190.132 221.213 199.297Z" fill="#324096"/>
<path d="M555.62 2280.48C558.351 2283.14 559.927 2286.75 560.023 2290.57C560.119 2294.39 558.726 2298.13 556.133 2301.01C550.774 2305.2 541.846 2302.77 536.204 2295.61C533.47 2292.96 531.891 2289.34 531.794 2285.52C531.696 2281.7 533.088 2277.96 535.681 2275.08C541.04 2270.89 549.971 2273.32 555.62 2280.48ZM623.893 2321.71C621.248 2322.62 618.456 2323.01 615.678 2322.86C612.899 2322.7 610.188 2322.01 607.702 2320.81C605.843 2319.91 603.688 2319.79 601.712 2320.47C599.736 2321.15 598.099 2322.58 597.162 2324.43C594.611 2329.42 590.188 2333.24 584.858 2335.06C579.529 2336.88 573.727 2336.55 568.72 2334.14C563.713 2331.73 559.907 2327.44 558.135 2322.21C556.362 2316.97 556.767 2311.22 559.261 2306.2C562.23 2300.31 566.332 2295.03 571.334 2290.68C576.335 2286.32 582.137 2282.96 588.409 2280.8C594.681 2278.64 601.299 2277.72 607.885 2278.09C614.472 2278.46 620.897 2280.11 626.794 2282.95C630.541 2284.75 633.644 2287.63 635.711 2291.21C637.777 2294.78 638.714 2298.91 638.404 2303.06C638.093 2307.2 636.549 2311.19 633.966 2314.51C631.383 2317.83 627.878 2320.33 623.893 2321.71ZM578.344 2257.51C582.597 2267.03 580.295 2277.35 573.209 2280.55C566.123 2283.74 556.931 2278.62 552.686 2269.09C548.435 2259.58 550.736 2249.26 557.822 2246.06C564.906 2242.86 574.09 2247.99 578.344 2257.51ZM582.386 2256.12C584.738 2266.3 592.766 2273.06 600.307 2271.21C607.847 2269.37 612.046 2259.64 609.694 2249.46C607.345 2239.29 599.317 2232.53 591.776 2234.37C584.233 2236.21 580.026 2245.95 582.386 2256.12ZM614.213 2260.3C613.64 2264.09 614.561 2267.93 616.784 2271.03C619.007 2274.12 622.363 2276.23 626.154 2276.91C632.919 2276.91 638.542 2269.48 638.71 2260.32C639.281 2256.52 638.361 2252.68 636.14 2249.59C633.919 2246.5 630.567 2244.4 626.778 2243.71C620.011 2243.7 614.388 2251.13 614.213 2260.3Z" fill="#324096"/>
<path d="M200.62 1696.48C203.351 1699.14 204.927 1702.75 205.023 1706.57C205.119 1710.39 203.726 1714.13 201.133 1717.01C195.774 1721.2 186.846 1718.77 181.204 1711.61C178.47 1708.96 176.891 1705.34 176.794 1701.52C176.696 1697.7 178.088 1693.96 180.681 1691.08C186.04 1686.89 194.971 1689.32 200.62 1696.48ZM268.893 1737.71C266.248 1738.62 263.456 1739.01 260.678 1738.86C257.899 1738.7 255.188 1738.01 252.702 1736.81C250.843 1735.91 248.688 1735.79 246.712 1736.47C244.736 1737.15 243.099 1738.58 242.162 1740.43C239.611 1745.42 235.188 1749.24 229.858 1751.06C224.529 1752.88 218.727 1752.55 213.72 1750.14C208.713 1747.73 204.907 1743.44 203.135 1738.21C201.362 1732.97 201.767 1727.22 204.261 1722.2C207.23 1716.31 211.332 1711.03 216.334 1706.68C221.335 1702.32 227.137 1698.96 233.409 1696.8C239.681 1694.64 246.299 1693.72 252.885 1694.09C259.472 1694.46 265.897 1696.11 271.794 1698.95C275.541 1700.75 278.644 1703.63 280.711 1707.21C282.777 1710.78 283.714 1714.91 283.404 1719.06C283.093 1723.2 281.549 1727.19 278.966 1730.51C276.383 1733.83 272.878 1736.33 268.893 1737.71ZM223.344 1673.51C227.597 1683.03 225.295 1693.35 218.209 1696.55C211.123 1699.74 201.931 1694.62 197.686 1685.09C193.435 1675.58 195.736 1665.26 202.822 1662.06C209.906 1658.86 219.09 1663.99 223.344 1673.51ZM227.386 1672.12C229.738 1682.3 237.766 1689.06 245.307 1687.21C252.847 1685.37 257.046 1675.64 254.694 1665.46C252.345 1655.29 244.317 1648.53 236.776 1650.37C229.233 1652.21 225.026 1661.95 227.386 1672.12ZM259.213 1676.3C258.64 1680.09 259.561 1683.93 261.784 1687.03C264.007 1690.12 267.363 1692.23 271.154 1692.91C277.919 1692.91 283.542 1685.48 283.71 1676.32C284.281 1672.52 283.361 1668.68 281.14 1665.59C278.919 1662.5 275.567 1660.4 271.778 1659.71C265.011 1659.7 259.388 1667.13 259.213 1676.3Z" fill="#324096"/>
<path d="M1236.91 357.736C1238.49 363.487 1237.75 369.613 1234.85 374.846C1231.95 380.079 1227.11 384.02 1221.32 385.853C1210.77 387.255 1200.64 376.906 1198.7 362.766C1197.12 357.015 1197.85 350.886 1200.75 345.65C1203.65 340.413 1208.5 336.47 1214.28 334.635C1224.83 333.233 1234.96 343.594 1236.91 357.736ZM1296.37 467.51C1292.07 466.648 1287.99 464.962 1284.37 462.551C1280.74 460.139 1277.63 457.049 1275.23 453.458C1273.43 450.778 1270.61 448.909 1267.41 448.26C1264.2 447.612 1260.86 448.237 1258.12 449.999C1250.73 454.708 1241.73 456.357 1233.09 454.586C1224.46 452.814 1216.89 447.767 1212.04 440.545C1207.19 433.324 1205.46 424.517 1207.22 416.047C1208.98 407.577 1214.08 400.133 1221.43 395.341C1230.11 389.742 1239.83 385.874 1250.03 383.957C1260.24 382.04 1270.73 382.113 1280.91 384.171C1291.08 386.229 1300.75 390.232 1309.34 395.951C1317.94 401.67 1325.3 408.993 1331.01 417.501C1334.64 422.907 1336.55 429.245 1336.5 435.714C1336.45 442.183 1334.45 448.492 1330.74 453.845C1327.03 459.197 1321.79 463.352 1315.67 465.785C1309.55 468.217 1302.83 468.818 1296.37 467.51ZM1285.79 344.753C1283.98 360.976 1272.69 373.075 1260.6 371.77C1248.5 370.465 1240.16 356.259 1241.98 340.038C1243.78 323.826 1255.07 311.727 1267.17 313.032C1279.27 314.325 1287.6 328.529 1285.79 344.753ZM1292.35 346.079C1287.45 361.679 1292.93 377.167 1304.57 380.662C1316.2 384.156 1329.59 374.344 1334.49 358.744C1339.38 343.156 1333.9 327.668 1322.27 324.173C1310.63 320.667 1297.23 330.477 1292.35 346.079ZM1331.99 376.952C1328.21 381.621 1326.41 387.536 1326.96 393.473C1327.5 399.41 1330.36 404.912 1334.94 408.84C1344.07 414.21 1357.55 408.635 1365.04 396.402C1368.82 391.735 1370.62 385.823 1370.08 379.89C1369.53 373.956 1366.67 368.456 1362.1 364.528C1352.98 359.146 1339.5 364.721 1331.99 376.952Z" fill="#324096"/>
<path d="M1544.94 87.8093C1546.52 93.56 1545.79 99.6858 1542.89 104.919C1539.98 110.153 1535.14 114.093 1529.36 115.926C1518.81 117.328 1508.68 106.979 1506.74 92.8395C1505.16 87.0879 1505.89 80.9596 1508.79 75.7231C1511.69 70.4866 1516.53 66.5429 1522.32 64.7084C1532.87 63.3061 1543 73.6674 1544.94 87.8093ZM1604.4 197.583C1600.11 196.721 1596.03 195.035 1592.4 192.624C1588.77 190.212 1585.67 187.122 1583.26 183.531C1581.46 180.851 1578.65 178.982 1575.44 178.333C1572.23 177.685 1568.9 178.31 1566.16 180.073C1558.76 184.781 1549.76 186.43 1541.13 184.659C1532.49 182.887 1524.93 177.84 1520.08 170.619C1515.23 163.398 1513.5 154.59 1515.25 146.12C1517.01 137.65 1522.12 130.206 1529.46 125.414C1538.14 119.815 1547.86 115.947 1558.07 114.03C1568.27 112.114 1578.76 112.186 1588.94 114.244C1599.12 116.302 1608.78 120.305 1617.38 126.024C1625.98 131.743 1633.34 139.066 1639.05 147.574C1642.68 152.98 1644.59 159.318 1644.54 165.787C1644.49 172.256 1642.48 178.566 1638.77 183.918C1635.07 189.271 1629.82 193.426 1623.7 195.858C1617.58 198.29 1610.87 198.891 1604.4 197.583ZM1593.83 74.826C1592.02 91.0497 1580.73 103.148 1568.63 101.844C1556.53 100.539 1548.19 86.3321 1550.01 70.1108C1551.82 53.899 1563.11 41.8004 1575.2 43.1053C1587.31 44.3982 1595.63 58.6023 1593.83 74.826ZM1600.38 76.1524C1595.49 91.7522 1600.97 107.24 1612.6 110.735C1624.24 114.23 1637.63 104.417 1642.52 88.8175C1647.41 73.2296 1641.94 57.7414 1630.3 54.2467C1618.67 50.7402 1605.27 60.5501 1600.38 76.1524ZM1640.03 107.025C1636.25 111.694 1634.44 117.61 1634.99 123.546C1635.54 129.483 1638.4 134.986 1642.97 138.913C1652.1 144.283 1665.58 138.709 1673.08 126.475C1676.85 121.808 1678.66 115.896 1678.11 109.963C1677.56 104.03 1674.71 98.5294 1670.14 94.6008C1661.02 89.2194 1647.53 94.7938 1640.03 107.025Z" fill="#324096"/>
<path d="M1801.49 2193.19C1801.9 2201.79 1805.67 2209.74 1812.02 2215.39C1818.38 2221.04 1826.83 2223.96 1835.63 2223.54C1850.82 2220.15 1860.15 2201.01 1856.46 2180.84C1856.06 2172.24 1852.29 2164.29 1845.94 2158.63C1839.59 2152.98 1831.13 2150.06 1822.33 2150.47C1807.14 2153.86 1797.82 2173.01 1801.49 2193.19ZM1768.81 2372.08C1774.34 2368.75 1779.21 2364.42 1783.13 2359.32C1787.06 2354.22 1789.95 2348.47 1791.65 2342.39C1792.93 2337.85 1795.98 2333.89 1800.11 2331.4C1804.24 2328.91 1809.13 2328.09 1813.7 2329.11C1826.02 2331.79 1839.17 2329.51 1850.29 2322.77C1861.41 2316.03 1869.58 2305.38 1873.02 2293.14C1876.46 2280.9 1874.9 2268.07 1868.67 2257.46C1862.43 2246.84 1852.04 2239.3 1839.76 2236.48C1825.26 2233.23 1810.12 2232.86 1795.17 2235.38C1780.23 2237.9 1765.79 2243.26 1752.67 2251.17C1739.56 2259.07 1728.03 2269.36 1718.74 2281.44C1709.45 2293.52 1702.58 2307.15 1698.53 2321.57C1695.95 2330.73 1696.17 2340.3 1699.14 2349.05C1702.12 2357.81 1707.72 2365.37 1715.24 2370.78C1722.77 2376.18 1731.87 2379.19 1741.4 2379.42C1750.94 2379.66 1760.47 2377.1 1768.81 2372.08ZM1728.22 2200.1C1738.01 2221.22 1759.02 2231.98 1775.12 2224.14C1791.22 2216.29 1796.35 2192.82 1786.54 2171.71C1776.76 2150.6 1755.75 2139.84 1739.65 2147.69C1723.54 2155.52 1718.43 2178.98 1728.22 2200.1ZM1719.77 2205.19C1733.53 2223.92 1732.94 2247.69 1718.45 2258.28C1703.97 2268.87 1681.09 2262.26 1667.32 2243.54C1653.57 2224.83 1654.16 2201.06 1668.64 2190.47C1683.12 2179.87 1706.02 2186.46 1719.77 2205.19ZM1678.95 2267.01C1686.26 2271.45 1691.41 2278.58 1693.32 2286.91C1695.24 2295.25 1693.77 2304.15 1689.22 2311.78C1679.04 2323.66 1657.93 2322.86 1642.1 2310.01C1634.79 2305.57 1629.64 2298.44 1627.73 2290.11C1625.82 2281.78 1627.28 2272.88 1631.82 2265.26C1641.99 2253.37 1663.1 2254.17 1678.95 2267.01Z" fill="#324096"/>
<path d="M1483.9 2288.19C1484.11 2292.69 1486.08 2296.85 1489.41 2299.81C1492.73 2302.76 1497.16 2304.29 1501.76 2304.07C1509.71 2302.3 1514.59 2292.28 1512.66 2281.73C1512.45 2277.23 1510.48 2273.07 1507.15 2270.11C1503.83 2267.15 1499.41 2265.62 1494.8 2265.84C1486.85 2267.62 1481.98 2277.64 1483.9 2288.19ZM1466.8 2381.78C1469.69 2380.04 1472.24 2377.78 1474.29 2375.11C1476.35 2372.44 1477.86 2369.43 1478.75 2366.25C1479.42 2363.87 1481.01 2361.81 1483.17 2360.5C1485.34 2359.2 1487.89 2358.77 1490.28 2359.3C1496.73 2360.7 1503.61 2359.51 1509.43 2355.99C1515.25 2352.46 1519.52 2346.89 1521.32 2340.48C1523.12 2334.08 1522.3 2327.37 1519.04 2321.82C1515.78 2316.26 1510.34 2312.31 1503.92 2310.84C1496.34 2309.14 1488.41 2308.95 1480.59 2310.26C1472.78 2311.58 1465.22 2314.39 1458.36 2318.53C1451.5 2322.66 1445.46 2328.04 1440.6 2334.36C1435.74 2340.68 1432.15 2347.82 1430.03 2355.36C1428.68 2360.15 1428.79 2365.16 1430.35 2369.74C1431.91 2374.32 1434.84 2378.28 1438.77 2381.1C1442.71 2383.93 1447.47 2385.51 1452.46 2385.63C1457.45 2385.75 1462.44 2384.41 1466.8 2381.78ZM1445.56 2291.81C1450.68 2302.86 1461.68 2308.49 1470.1 2304.38C1478.53 2300.28 1481.21 2288 1476.08 2276.95C1470.96 2265.91 1459.97 2260.28 1451.54 2264.39C1443.11 2268.48 1440.44 2280.76 1445.56 2291.81ZM1441.14 2294.47C1448.34 2304.27 1448.03 2316.71 1440.45 2322.25C1432.88 2327.79 1420.9 2324.33 1413.7 2314.54C1406.51 2304.75 1406.82 2292.31 1414.39 2286.77C1421.97 2281.22 1433.95 2284.67 1441.14 2294.47ZM1419.78 2326.81C1423.61 2329.14 1426.31 2332.87 1427.31 2337.23C1428.31 2341.59 1427.54 2346.25 1425.16 2350.24C1419.83 2356.45 1408.79 2356.03 1400.51 2349.31C1396.68 2346.99 1393.99 2343.26 1392.99 2338.9C1391.99 2334.54 1392.75 2329.89 1395.13 2325.9C1400.45 2319.68 1411.49 2320.1 1419.78 2326.81Z" fill="#324096"/>
<path d="M1155.31 1243.94C1155.57 1249.5 1158 1254.63 1162.11 1258.28C1166.21 1261.93 1171.67 1263.82 1177.36 1263.55C1187.17 1261.36 1193.19 1249 1190.81 1235.97C1190.56 1230.41 1188.12 1225.27 1184.02 1221.62C1179.91 1217.97 1174.45 1216.08 1168.76 1216.34C1158.95 1218.54 1152.93 1230.91 1155.31 1243.94ZM1134.19 1359.5C1137.77 1357.35 1140.91 1354.55 1143.45 1351.26C1145.98 1347.97 1147.85 1344.25 1148.95 1340.32C1149.78 1337.39 1151.74 1334.84 1154.41 1333.23C1157.08 1331.62 1160.24 1331.09 1163.19 1331.74C1171.15 1333.47 1179.65 1332 1186.83 1327.65C1194.01 1323.3 1199.29 1316.41 1201.51 1308.51C1203.74 1300.6 1202.72 1292.32 1198.7 1285.46C1194.67 1278.6 1187.96 1273.73 1180.02 1271.9C1170.66 1269.81 1160.88 1269.57 1151.22 1271.2C1141.57 1272.82 1132.24 1276.29 1123.77 1281.4C1115.3 1286.5 1107.85 1293.14 1101.85 1300.95C1095.84 1308.75 1091.41 1317.56 1088.79 1326.88C1087.13 1332.79 1087.27 1338.97 1089.19 1344.63C1091.11 1350.29 1094.73 1355.17 1099.59 1358.66C1104.45 1362.15 1110.33 1364.1 1116.49 1364.25C1122.65 1364.4 1128.81 1362.75 1134.19 1359.5ZM1107.97 1248.41C1114.29 1262.05 1127.87 1269 1138.27 1263.93C1148.67 1258.87 1151.98 1243.7 1145.65 1230.06C1139.33 1216.43 1125.76 1209.48 1115.35 1214.55C1104.95 1219.6 1101.65 1234.76 1107.97 1248.41ZM1102.51 1251.7C1111.4 1263.79 1111.02 1279.15 1101.66 1285.99C1092.31 1292.83 1077.53 1288.56 1068.63 1276.47C1059.75 1264.38 1060.13 1249.02 1069.49 1242.19C1078.84 1235.34 1093.63 1239.6 1102.51 1251.7ZM1076.14 1291.63C1080.87 1294.5 1084.19 1299.1 1085.43 1304.49C1086.67 1309.87 1085.72 1315.62 1082.78 1320.55C1076.2 1328.22 1062.57 1327.7 1052.34 1319.4C1047.62 1316.54 1044.29 1311.94 1043.06 1306.55C1041.82 1301.17 1042.77 1295.42 1045.7 1290.5C1052.27 1282.82 1065.9 1283.33 1076.14 1291.63Z" fill="#324096"/>
<path d="M1822.72 1401.33C1822.98 1406.89 1825.41 1412.02 1829.52 1415.67C1833.62 1419.32 1839.08 1421.21 1844.77 1420.94C1854.58 1418.75 1860.61 1406.38 1858.22 1393.36C1857.97 1387.8 1855.53 1382.66 1851.43 1379.01C1847.32 1375.36 1841.86 1373.47 1836.17 1373.73C1826.36 1375.93 1820.35 1388.3 1822.72 1401.33ZM1801.6 1516.89C1805.18 1514.74 1808.32 1511.94 1810.86 1508.65C1813.39 1505.36 1815.26 1501.64 1816.36 1497.71C1817.19 1494.78 1819.15 1492.23 1821.82 1490.62C1824.49 1489.01 1827.65 1488.47 1830.6 1489.13C1838.56 1490.86 1847.06 1489.39 1854.24 1485.04C1861.42 1480.69 1866.7 1473.8 1868.92 1465.9C1871.15 1457.99 1870.14 1449.71 1866.11 1442.85C1862.08 1435.99 1855.37 1431.12 1847.43 1429.29C1838.07 1427.2 1828.29 1426.96 1818.63 1428.59C1808.98 1430.21 1799.65 1433.68 1791.18 1438.78C1782.71 1443.89 1775.26 1450.53 1769.26 1458.34C1763.25 1466.14 1758.82 1474.95 1756.2 1484.27C1754.54 1490.18 1754.68 1496.36 1756.6 1502.02C1758.52 1507.68 1762.14 1512.56 1767 1516.05C1771.86 1519.54 1777.74 1521.49 1783.9 1521.64C1790.06 1521.79 1796.22 1520.14 1801.6 1516.89ZM1775.38 1405.8C1781.7 1419.44 1795.28 1426.39 1805.68 1421.32C1816.08 1416.26 1819.39 1401.09 1813.06 1387.45C1806.74 1373.82 1793.17 1366.87 1782.77 1371.94C1772.36 1376.99 1769.06 1392.15 1775.38 1405.8ZM1769.92 1409.09C1778.81 1421.18 1778.43 1436.54 1769.07 1443.38C1759.72 1450.22 1744.94 1445.95 1736.04 1433.86C1727.16 1421.77 1727.54 1406.41 1736.9 1399.57C1746.25 1392.73 1761.04 1396.99 1769.92 1409.09ZM1743.55 1449.02C1748.28 1451.89 1751.61 1456.49 1752.84 1461.88C1754.08 1467.26 1753.13 1473.01 1750.19 1477.94C1743.61 1485.61 1729.98 1485.09 1719.75 1476.79C1715.03 1473.93 1711.7 1469.33 1710.47 1463.94C1709.23 1458.56 1710.18 1452.81 1713.11 1447.89C1719.68 1440.21 1733.31 1440.72 1743.55 1449.02Z" fill="#324096"/>
</svg>
