<svg width="1820" height="1834" viewBox="0 0 1820 1834" fill="none" xmlns="http://www.w3.org/2000/svg">
<path d="M1689.59 332.334C1690.68 337.563 1689.68 342.999 1686.8 347.516C1683.91 352.032 1679.36 355.285 1674.09 356.601C1664.57 357.266 1656.09 347.448 1655.15 334.699C1654.05 329.469 1655.05 324.031 1657.93 319.511C1660.82 314.991 1665.37 311.736 1670.65 310.419C1680.16 309.754 1688.64 319.582 1689.59 332.334ZM1736.64 433.791C1732.84 432.781 1729.29 431.046 1726.18 428.688C1723.07 426.33 1720.47 423.394 1718.52 420.049C1717.06 417.553 1714.65 415.724 1711.81 414.966C1708.98 414.207 1705.96 414.58 1703.42 416.003C1696.54 419.8 1688.4 420.771 1680.78 418.706C1673.15 416.64 1666.67 411.706 1662.74 404.979C1658.8 398.253 1657.74 390.282 1659.79 382.808C1661.83 375.334 1666.82 368.964 1673.65 365.089C1681.72 360.568 1690.63 357.652 1699.86 356.508C1709.1 355.364 1718.48 356.015 1727.46 358.423C1736.45 360.83 1744.87 364.948 1752.23 370.541C1759.6 376.133 1765.78 383.091 1770.41 391.016C1773.35 396.051 1774.71 401.824 1774.3 407.605C1773.9 413.385 1771.75 418.914 1768.14 423.493C1764.52 428.071 1759.6 431.493 1753.99 433.326C1748.39 435.159 1742.35 435.321 1736.64 433.791ZM1734.03 323.454C1731.51 337.858 1720.74 348.044 1709.99 346.203C1699.25 344.361 1692.58 331.195 1695.11 316.794C1697.63 302.401 1708.4 292.215 1719.15 294.056C1729.89 295.888 1736.55 309.051 1734.03 323.454ZM1739.82 325.006C1734.57 338.68 1738.61 352.832 1748.82 356.605C1759.03 360.379 1771.55 352.354 1776.79 338.68C1782.04 325.017 1778.01 310.865 1767.79 307.092C1757.59 303.307 1745.06 311.33 1739.82 325.006ZM1773.55 354.819C1769.91 358.782 1767.96 363.97 1768.12 369.308C1768.28 374.646 1770.53 379.725 1774.4 383.492C1782.27 388.802 1794.63 384.571 1802.01 374.052C1805.65 370.09 1807.6 364.906 1807.44 359.571C1807.28 354.236 1805.04 349.159 1801.17 345.392C1793.31 340.072 1780.94 344.303 1773.55 354.819Z" fill="#324096"/>
<path d="M92.0421 1293.09C93.1341 1298.32 92.1335 1303.75 89.2474 1308.27C86.3614 1312.79 81.8107 1316.04 76.5367 1317.35C67.0215 1318.02 58.5408 1308.2 57.5991 1295.45C56.503 1290.22 57.5006 1284.78 60.3854 1280.26C63.2703 1275.74 67.8214 1272.49 73.0967 1271.17C82.6119 1270.51 91.0897 1280.34 92.0421 1293.09ZM139.088 1394.54C135.296 1393.53 131.743 1391.8 128.633 1389.44C125.523 1387.08 122.919 1384.15 120.968 1380.8C119.507 1378.31 117.096 1376.48 114.265 1375.72C111.433 1374.96 108.413 1375.33 105.868 1376.76C98.9895 1380.55 90.8503 1381.52 83.2279 1379.46C75.6054 1377.39 69.1194 1372.46 65.1868 1365.73C61.2541 1359.01 60.1945 1351.03 62.2393 1343.56C64.2841 1336.09 69.2672 1329.72 76.1 1325.84C84.1737 1321.32 93.0818 1318.41 102.315 1317.26C111.549 1316.12 120.926 1316.77 129.912 1319.18C138.898 1321.58 147.316 1325.7 154.685 1331.29C162.055 1336.89 168.23 1343.84 172.86 1351.77C175.802 1356.8 177.156 1362.58 176.751 1368.36C176.347 1374.14 174.202 1379.67 170.587 1384.25C166.973 1388.82 162.051 1392.25 156.444 1394.08C150.837 1395.91 144.797 1396.07 139.088 1394.54ZM136.479 1284.21C133.956 1298.61 123.188 1308.8 112.442 1306.96C101.697 1305.11 95.0301 1291.95 97.5637 1277.55C100.084 1263.15 110.851 1252.97 121.597 1254.81C132.345 1256.64 139.002 1269.8 136.479 1284.21ZM142.27 1285.76C137.023 1299.43 141.056 1313.58 151.266 1317.36C161.477 1321.13 173.997 1313.11 179.244 1299.43C184.488 1285.77 180.456 1271.62 170.245 1267.84C160.037 1264.06 147.506 1272.08 142.27 1285.76ZM175.999 1315.57C172.356 1319.53 170.413 1324.72 170.572 1330.06C170.731 1335.4 172.981 1340.48 176.854 1344.25C184.716 1349.55 197.084 1345.32 204.465 1334.8C208.105 1330.84 210.047 1325.66 209.889 1320.32C209.732 1314.99 207.486 1309.91 203.618 1306.14C195.759 1300.82 183.391 1305.06 175.999 1315.57Z" fill="#324096"/>
<path d="M1300.45 271.928C1301.65 276.296 1301.09 280.948 1298.89 284.923C1296.69 288.898 1293.01 291.89 1288.62 293.282C1280.6 294.347 1272.9 286.487 1271.43 275.749C1270.23 271.381 1270.79 266.726 1272.99 262.749C1275.19 258.773 1278.87 255.777 1283.27 254.384C1291.28 253.319 1298.98 261.188 1300.45 271.928ZM1345.62 355.298C1342.36 354.643 1339.26 353.363 1336.51 351.532C1333.75 349.7 1331.39 347.353 1329.56 344.626C1328.2 342.591 1326.06 341.171 1323.62 340.678C1321.19 340.186 1318.65 340.661 1316.57 341.999C1310.95 345.575 1304.12 346.828 1297.56 345.482C1291 344.137 1285.25 340.304 1281.57 334.819C1277.88 329.335 1276.56 322.646 1277.9 316.214C1279.24 309.781 1283.12 304.127 1288.69 300.488C1295.29 296.236 1302.67 293.298 1310.42 291.842C1318.18 290.387 1326.15 290.442 1333.88 292.005C1341.61 293.568 1348.95 296.608 1355.48 300.951C1362.01 305.295 1367.61 310.856 1371.94 317.318C1374.7 321.423 1376.15 326.237 1376.11 331.15C1376.07 336.063 1374.55 340.855 1371.73 344.92C1368.92 348.985 1364.93 352.141 1360.28 353.988C1355.64 355.835 1350.53 356.291 1345.62 355.298ZM1337.59 262.068C1336.21 274.39 1327.64 283.578 1318.45 282.587C1309.26 281.596 1302.92 270.807 1304.31 258.487C1305.68 246.175 1314.25 236.986 1323.44 237.977C1332.63 238.959 1338.96 249.747 1337.59 262.068ZM1342.57 263.075C1338.85 274.923 1343.01 286.686 1351.85 289.34C1360.69 291.994 1370.86 284.542 1374.58 272.694C1378.3 260.856 1374.14 249.093 1365.3 246.439C1356.46 243.776 1346.28 251.226 1342.57 263.075ZM1372.69 286.522C1369.81 290.068 1368.44 294.561 1368.86 299.07C1369.28 303.578 1371.45 307.757 1374.92 310.74C1381.86 314.818 1392.1 310.585 1397.79 301.294C1400.66 297.75 1402.03 293.26 1401.62 288.753C1401.2 284.247 1399.03 280.07 1395.56 277.086C1388.63 272.999 1378.39 277.233 1372.69 286.522Z" fill="#324096"/>
<path d="M1534.45 66.9285C1535.65 71.296 1535.09 75.9483 1532.89 79.9229C1530.69 83.8976 1527.01 86.8903 1522.62 88.2821C1514.6 89.3471 1506.9 81.4872 1505.43 70.7488C1504.23 66.3807 1504.79 61.7264 1506.99 57.7495C1509.19 53.7725 1512.87 50.7774 1517.27 49.3842C1525.28 48.3192 1532.98 56.1882 1534.45 66.9285ZM1579.62 150.298C1576.36 149.643 1573.26 148.363 1570.51 146.532C1567.75 144.7 1565.39 142.353 1563.56 139.626C1562.2 137.591 1560.06 136.171 1557.62 135.678C1555.19 135.186 1552.65 135.661 1550.57 136.999C1544.95 140.575 1538.12 141.828 1531.56 140.482C1525 139.137 1519.25 135.304 1515.57 129.819C1511.88 124.335 1510.56 117.646 1511.9 111.214C1513.24 104.781 1517.12 99.1273 1522.69 95.4882C1529.29 91.2359 1536.67 88.298 1544.42 86.8424C1552.18 85.3869 1560.15 85.4421 1567.88 87.0051C1575.61 88.5681 1582.95 91.6081 1589.48 95.9514C1596.01 100.295 1601.61 105.856 1605.94 112.318C1608.7 116.423 1610.15 121.237 1610.11 126.15C1610.07 131.063 1608.55 135.855 1605.73 139.92C1602.92 143.985 1598.93 147.141 1594.28 148.988C1589.64 150.835 1584.53 151.291 1579.62 150.298ZM1571.59 57.0682C1570.21 69.3895 1561.64 78.578 1552.45 77.587C1543.26 76.596 1536.92 65.8066 1538.31 53.4871C1539.68 41.1748 1548.25 31.9864 1557.44 32.9773C1566.63 33.9593 1572.96 44.7468 1571.59 57.0682ZM1576.57 58.0755C1572.85 69.923 1577.01 81.6858 1585.85 84.3399C1594.69 86.9939 1604.86 79.5418 1608.58 67.6942C1612.3 55.8557 1608.14 44.093 1599.3 41.4389C1590.46 38.7758 1580.28 46.2261 1576.57 58.0755ZM1606.69 81.522C1603.81 85.068 1602.44 89.5609 1602.86 94.0696C1603.28 98.5784 1605.45 102.757 1608.92 105.74C1615.86 109.818 1626.1 105.585 1631.79 96.2939C1634.66 92.7495 1636.03 88.2596 1635.62 83.7534C1635.2 79.2473 1633.03 75.0701 1629.56 72.0864C1622.63 67.9995 1612.39 72.233 1606.69 81.522Z" fill="#324096"/>
<path d="M121.488 691.322C122.091 695.71 120.952 700.147 118.306 703.717C115.66 707.287 111.71 709.716 107.273 710.502C99.3657 710.506 92.9153 701.9 92.8678 691.303C92.2614 686.914 93.3983 682.474 96.0433 678.902C98.6883 675.33 102.639 672.898 107.077 672.112C114.984 672.108 121.432 680.722 121.488 691.322ZM154.575 777.926C151.497 776.873 148.658 775.235 146.221 773.106C143.785 770.977 141.799 768.4 140.378 765.522C139.313 763.373 137.424 761.723 135.126 760.933C132.828 760.143 130.309 760.279 128.122 761.309C122.216 764.055 115.429 764.392 109.244 762.246C103.059 760.101 97.9779 755.648 95.1115 749.859C92.245 744.071 91.8259 737.418 93.9457 731.355C96.0655 725.291 100.552 720.309 106.425 717.497C113.361 714.221 120.895 712.32 128.597 711.904C136.299 711.487 144.017 712.563 151.31 715.07C158.603 717.576 165.329 721.465 171.102 726.512C176.876 731.56 181.584 737.668 184.958 744.488C187.102 748.821 187.891 753.673 187.225 758.43C186.558 763.187 184.467 767.637 181.215 771.216C177.963 774.795 173.697 777.342 168.955 778.537C164.213 779.731 159.209 779.519 154.575 777.926ZM158.746 686.528C155.833 698.295 146.344 706.101 137.563 703.962C128.782 701.822 124.024 690.551 126.945 678.788C129.855 667.029 139.344 659.223 148.125 661.362C156.909 663.493 161.659 674.761 158.746 686.528ZM163.447 688.143C158.323 699.15 160.846 711.085 169.074 714.792C177.302 718.498 188.116 712.58 193.24 701.573C198.36 690.574 195.837 678.639 187.609 674.933C179.384 671.218 168.561 677.133 163.447 688.143ZM189.63 714.733C186.39 717.802 184.486 721.981 184.311 726.405C184.137 730.828 185.705 735.158 188.693 738.495C194.89 743.337 205.361 740.547 212.068 732.272C215.306 729.204 217.209 725.028 217.385 720.607C217.56 716.186 215.995 711.859 213.012 708.521C206.818 703.671 196.346 706.46 189.63 714.733Z" fill="#324096"/>
<path d="M1729.34 1665.89C1729.65 1672.43 1732.51 1678.46 1737.34 1682.75C1742.17 1687.04 1748.59 1689.26 1755.28 1688.94C1766.82 1686.37 1773.9 1671.83 1771.1 1656.52C1770.8 1649.98 1767.93 1643.94 1763.11 1639.65C1758.28 1635.35 1751.86 1633.13 1745.17 1633.45C1733.63 1636.02 1726.55 1650.57 1729.34 1665.89ZM1704.51 1801.75C1708.72 1799.23 1712.42 1795.93 1715.4 1792.06C1718.38 1788.19 1720.57 1783.82 1721.87 1779.2C1722.84 1775.75 1725.15 1772.75 1728.29 1770.86C1731.43 1768.97 1735.14 1768.34 1738.61 1769.12C1747.97 1771.15 1757.97 1769.42 1766.41 1764.3C1774.86 1759.19 1781.06 1751.1 1783.68 1741.8C1786.3 1732.51 1785.11 1722.76 1780.37 1714.7C1775.64 1706.64 1767.74 1700.91 1758.41 1698.77C1747.4 1696.3 1735.89 1696.02 1724.54 1697.93C1713.19 1699.85 1702.22 1703.92 1692.26 1709.92C1682.29 1715.93 1673.53 1723.74 1666.48 1732.91C1659.42 1742.09 1654.2 1752.45 1651.13 1763.39C1649.17 1770.35 1649.33 1777.61 1651.59 1784.27C1653.85 1790.92 1658.11 1796.66 1663.82 1800.77C1669.54 1804.87 1676.45 1807.16 1683.7 1807.33C1690.94 1807.51 1698.18 1805.57 1704.51 1801.75ZM1673.68 1671.14C1681.12 1687.18 1697.08 1695.35 1709.31 1689.4C1721.54 1683.44 1725.43 1665.61 1717.99 1649.58C1710.56 1633.55 1694.6 1625.38 1682.36 1631.33C1670.12 1637.28 1666.24 1655.1 1673.68 1671.14ZM1667.26 1675.01C1677.71 1689.23 1677.26 1707.29 1666.26 1715.33C1655.26 1723.37 1637.88 1718.35 1627.42 1704.13C1616.97 1689.92 1617.42 1671.87 1628.42 1663.83C1639.42 1655.78 1656.81 1660.78 1667.26 1675.01ZM1636.25 1721.96C1641.81 1725.33 1645.72 1730.74 1647.17 1737.07C1648.63 1743.4 1647.51 1750.17 1644.05 1755.96C1636.32 1764.98 1620.29 1764.37 1608.26 1754.61C1602.7 1751.24 1598.8 1745.83 1597.34 1739.5C1595.89 1733.18 1597 1726.42 1600.45 1720.62C1608.18 1711.6 1624.21 1712.21 1636.25 1721.96Z" fill="#324096"/>
<path d="M1488.08 1738.04C1488.24 1741.46 1489.74 1744.62 1492.27 1746.86C1494.79 1749.11 1498.15 1750.27 1501.65 1750.1C1507.69 1748.76 1511.39 1741.15 1509.93 1733.14C1509.77 1729.72 1508.27 1726.56 1505.75 1724.31C1503.22 1722.07 1499.86 1720.9 1496.36 1721.07C1490.32 1722.42 1486.62 1730.03 1488.08 1738.04ZM1475.09 1809.12C1477.29 1807.8 1479.23 1806.08 1480.79 1804.06C1482.34 1802.03 1483.49 1799.74 1484.17 1797.33C1484.68 1795.52 1485.89 1793.95 1487.53 1792.96C1489.17 1791.97 1491.12 1791.65 1492.93 1792.05C1497.83 1793.11 1503.06 1792.21 1507.48 1789.53C1511.89 1786.85 1515.14 1782.62 1516.51 1777.76C1517.88 1772.9 1517.26 1767.8 1514.78 1763.58C1512.3 1759.36 1508.17 1756.36 1503.29 1755.24C1497.53 1753.95 1491.51 1753.81 1485.57 1754.81C1479.63 1755.81 1473.89 1757.94 1468.68 1761.08C1463.47 1764.22 1458.88 1768.31 1455.19 1773.11C1451.5 1777.91 1448.77 1783.33 1447.16 1789.06C1446.14 1792.7 1446.22 1796.5 1447.4 1799.98C1448.59 1803.46 1450.81 1806.46 1453.8 1808.61C1456.79 1810.76 1460.41 1811.95 1464.2 1812.04C1467.99 1812.14 1471.78 1811.12 1475.09 1809.12ZM1458.96 1740.79C1462.85 1749.18 1471.2 1753.46 1477.6 1750.34C1484 1747.22 1486.04 1737.9 1482.14 1729.51C1478.25 1721.12 1469.9 1716.85 1463.5 1719.96C1457.1 1723.07 1455.07 1732.4 1458.96 1740.79ZM1455.6 1742.81C1461.07 1750.25 1460.83 1759.7 1455.08 1763.91C1449.32 1768.11 1440.23 1765.49 1434.76 1758.05C1429.29 1750.62 1429.53 1741.17 1435.28 1736.96C1441.03 1732.75 1450.14 1735.37 1455.6 1742.81ZM1439.38 1767.38C1442.29 1769.14 1444.33 1771.97 1445.09 1775.28C1445.85 1778.6 1445.27 1782.13 1443.46 1785.17C1439.41 1789.88 1431.02 1789.57 1424.73 1784.46C1421.83 1782.7 1419.78 1779.87 1419.02 1776.56C1418.26 1773.25 1418.84 1769.71 1420.65 1766.68C1424.69 1761.96 1433.08 1762.27 1439.38 1767.38Z" fill="#324096"/>
<path d="M692.833 1374.96C693.07 1379.98 695.271 1384.62 698.982 1387.92C702.693 1391.21 707.629 1392.92 712.769 1392.68C721.639 1390.7 727.083 1379.52 724.93 1367.75C724.697 1362.73 722.498 1358.08 718.788 1354.78C715.077 1351.48 710.14 1349.78 704.998 1350.02C696.128 1352 690.69 1363.18 692.833 1374.96ZM673.746 1479.39C676.979 1477.45 679.823 1474.92 682.112 1471.94C684.402 1468.97 686.093 1465.61 687.088 1462.06C687.835 1459.41 689.611 1457.1 692.024 1455.65C694.437 1454.19 697.291 1453.71 699.958 1454.31C707.154 1455.87 714.836 1454.54 721.328 1450.61C727.819 1446.67 732.591 1440.45 734.601 1433.31C736.612 1426.16 735.697 1418.67 732.057 1412.48C728.418 1406.28 722.349 1401.87 715.176 1400.23C706.714 1398.33 697.868 1398.12 689.143 1399.59C680.417 1401.06 671.985 1404.19 664.326 1408.8C656.667 1413.42 649.933 1419.42 644.508 1426.48C639.082 1433.53 635.073 1441.49 632.708 1449.91C631.205 1455.25 631.33 1460.84 633.067 1465.95C634.804 1471.06 638.076 1475.48 642.468 1478.63C646.86 1481.79 652.176 1483.55 657.744 1483.68C663.311 1483.82 668.88 1482.32 673.746 1479.39ZM650.045 1378.99C655.76 1391.32 668.029 1397.6 677.433 1393.02C686.836 1388.44 689.828 1374.74 684.103 1362.42C678.392 1350.1 666.123 1343.81 656.72 1348.39C647.311 1352.96 644.329 1366.66 650.045 1378.99ZM645.109 1381.97C653.146 1392.9 652.8 1406.78 644.343 1412.96C635.886 1419.14 622.524 1415.28 614.486 1404.35C606.454 1393.43 606.8 1379.55 615.257 1373.37C623.709 1367.18 637.08 1371.03 645.109 1381.97ZM621.274 1418.05C625.546 1420.65 628.553 1424.81 629.669 1429.67C630.786 1434.54 629.927 1439.74 627.271 1444.19C621.328 1451.12 609.002 1450.66 599.757 1443.15C595.487 1440.56 592.483 1436.4 591.366 1431.54C590.248 1426.68 591.104 1421.48 593.755 1417.03C599.693 1410.09 612.019 1410.56 621.274 1418.05Z" fill="#324096"/>
<path d="M1238.47 944.972C1238.66 949.192 1240.51 953.091 1243.63 955.863C1246.75 958.634 1250.9 960.066 1255.22 959.863C1262.67 958.198 1267.25 948.81 1265.44 938.915C1265.24 934.693 1263.39 930.792 1260.28 928.018C1257.16 925.244 1253.01 923.81 1248.69 924.012C1241.23 925.677 1236.66 935.073 1238.47 944.972ZM1222.43 1032.74C1225.14 1031.1 1227.53 1028.98 1229.46 1026.48C1231.38 1023.98 1232.8 1021.15 1233.64 1018.17C1234.27 1015.94 1235.76 1014 1237.79 1012.78C1239.81 1011.56 1242.21 1011.15 1244.45 1011.65C1250.5 1012.97 1256.96 1011.85 1262.41 1008.54C1267.87 1005.24 1271.88 1000.01 1273.57 994.008C1275.26 988.004 1274.49 981.71 1271.43 976.501C1268.37 971.293 1263.27 967.592 1257.24 966.208C1250.13 964.616 1242.7 964.433 1235.36 965.67C1228.03 966.907 1220.94 969.539 1214.51 973.416C1208.07 977.294 1202.41 982.34 1197.85 988.266C1193.29 994.193 1189.93 1000.88 1187.94 1007.96C1186.67 1012.45 1186.78 1017.14 1188.24 1021.44C1189.7 1025.74 1192.45 1029.45 1196.14 1032.1C1199.83 1034.75 1204.3 1036.23 1208.98 1036.34C1213.66 1036.45 1218.34 1035.2 1222.43 1032.74ZM1202.51 948.362C1207.31 958.724 1217.62 964.003 1225.52 960.154C1233.43 956.306 1235.94 944.789 1231.13 934.432C1226.33 924.078 1216.02 918.799 1208.12 922.647C1200.21 926.489 1197.7 938.001 1202.51 948.362ZM1198.36 950.861C1205.11 960.047 1204.82 971.712 1197.72 976.906C1190.61 982.099 1179.38 978.86 1172.62 969.675C1165.87 960.496 1166.17 948.831 1173.27 943.638C1180.38 938.437 1191.61 941.671 1198.36 950.861ZM1178.33 981.189C1181.92 983.367 1184.45 986.864 1185.38 990.953C1186.32 995.043 1185.6 999.412 1183.37 1003.16C1178.37 1008.98 1168.02 1008.59 1160.25 1002.28C1156.66 1000.1 1154.13 996.611 1153.19 992.524C1152.26 988.437 1152.97 984.071 1155.2 980.328C1160.19 974.497 1170.55 974.889 1178.33 981.189Z" fill="#324096"/>
<path d="M1745.47 1064.5C1745.66 1068.72 1747.51 1072.62 1750.63 1075.39C1753.75 1078.17 1757.9 1079.6 1762.22 1079.39C1769.67 1077.73 1774.25 1068.34 1772.44 1058.45C1772.24 1054.23 1770.39 1050.32 1767.28 1047.55C1764.16 1044.78 1760.01 1043.34 1755.69 1043.54C1748.23 1045.21 1743.66 1054.61 1745.47 1064.5ZM1729.43 1152.27C1732.14 1150.64 1734.53 1148.51 1736.46 1146.01C1738.38 1143.51 1739.8 1140.69 1740.64 1137.7C1741.27 1135.47 1742.76 1133.54 1744.79 1132.31C1746.81 1131.09 1749.21 1130.69 1751.45 1131.19C1757.5 1132.5 1763.96 1131.38 1769.41 1128.08C1774.87 1124.77 1778.88 1119.54 1780.57 1113.54C1782.26 1107.54 1781.49 1101.24 1778.43 1096.03C1775.37 1090.82 1770.27 1087.12 1764.24 1085.74C1757.13 1084.15 1749.7 1083.97 1742.36 1085.2C1735.03 1086.44 1727.94 1089.07 1721.51 1092.95C1715.07 1096.83 1709.41 1101.87 1704.85 1107.8C1700.29 1113.73 1696.93 1120.42 1694.94 1127.49C1693.67 1131.98 1693.78 1136.68 1695.24 1140.97C1696.7 1145.27 1699.45 1148.98 1703.14 1151.63C1706.83 1154.28 1711.3 1155.76 1715.98 1155.87C1720.66 1155.99 1725.34 1154.73 1729.43 1152.27ZM1709.51 1067.89C1714.31 1078.26 1724.62 1083.54 1732.52 1079.69C1740.43 1075.84 1742.94 1064.32 1738.13 1053.96C1733.33 1043.61 1723.02 1038.33 1715.12 1042.18C1707.21 1046.02 1704.7 1057.53 1709.51 1067.89ZM1705.36 1070.39C1712.11 1079.58 1711.82 1091.24 1704.72 1096.44C1697.61 1101.63 1686.38 1098.39 1679.62 1089.21C1672.87 1080.03 1673.17 1068.36 1680.27 1063.17C1687.38 1057.97 1698.61 1061.2 1705.36 1070.39ZM1685.33 1100.72C1688.92 1102.9 1691.45 1106.4 1692.38 1110.49C1693.32 1114.57 1692.6 1118.94 1690.37 1122.69C1685.37 1128.51 1675.02 1128.12 1667.25 1121.82C1663.66 1119.64 1661.13 1116.14 1660.19 1112.06C1659.26 1107.97 1659.97 1103.6 1662.2 1099.86C1667.19 1094.03 1677.55 1094.42 1685.33 1100.72Z" fill="#324096"/>
<path d="M152.903 62.6431C149.96 65.4354 148.231 69.2356 148.073 73.2574C147.915 77.2792 149.341 81.2149 152.055 84.2503C157.692 88.6642 167.221 86.1257 173.324 78.595C176.27 75.8038 178.002 72.0033 178.162 67.9803C178.322 63.9572 176.897 60.0197 174.183 56.9827C168.546 52.5688 159.015 55.1151 152.903 62.6431ZM79.7062 105.945C82.5047 106.911 85.4674 107.326 88.424 107.167C91.3807 107.008 94.273 106.278 96.9348 105.019C98.9245 104.081 101.217 103.958 103.308 104.676C105.399 105.395 107.119 106.897 108.088 108.852C110.727 114.104 115.374 118.131 121.013 120.051C126.653 121.972 132.827 121.63 138.186 119.102C143.545 116.573 147.655 112.063 149.616 106.556C151.577 101.049 151.231 94.9932 148.654 89.7117C145.584 83.506 141.299 77.9477 136.046 73.3543C130.792 68.761 124.672 65.2227 118.035 62.9417C111.398 60.6607 104.375 59.6817 97.3669 60.0606C90.3587 60.4395 83.5027 62.1689 77.1908 65.15C73.1802 67.0437 69.8388 70.0635 67.589 73.8277C65.3393 77.5919 64.2822 81.9315 64.5514 86.2978C64.8206 90.6641 66.4041 94.8611 69.1016 98.3582C71.7991 101.855 75.4895 104.495 79.7062 105.945ZM129.079 38.4393C124.417 48.4553 126.713 59.3161 134.2 62.6889C141.687 66.0617 151.536 60.6785 156.19 50.6597C160.85 40.6515 158.554 29.7907 151.067 26.4179C143.582 23.0374 133.742 28.4233 129.079 38.4393ZM124.802 36.9692C122.152 47.6767 113.517 54.7805 105.526 52.8337C97.5358 50.8869 93.2138 40.6333 95.8642 29.9258C98.5118 19.2261 107.147 12.1223 115.137 14.0691C123.13 16.0081 127.46 26.2644 124.802 36.9692ZM90.9005 41.3243C91.4535 45.3199 90.4181 49.3627 88.009 52.6148C85.5998 55.8669 82.0015 58.079 77.9598 58.7926C70.7672 58.7884 64.8975 50.9575 64.8543 41.3142C64.3024 37.3208 65.337 33.2806 67.7439 30.0299C70.1508 26.7792 73.7456 24.5668 77.7843 23.8509C84.9797 23.8473 90.8494 31.6782 90.9005 41.3243Z" fill="#324096"/>
<path d="M291.5 2.375L298.75 9.625L306 2.375" stroke="white" stroke-width="2.9" stroke-linecap="round" stroke-linejoin="round"/>
<path d="M291.5 100.375L298.75 107.625L306 100.375" stroke="white" stroke-width="2.9" stroke-linecap="round" stroke-linejoin="round"/>
<path d="M0.965909 155.017V153.455H11.875V155.017H7.30114V168H5.53977V155.017H0.965909ZM16.092 168.256C15.4007 168.256 14.7733 168.125 14.2099 167.865C13.6464 167.6 13.199 167.219 12.8675 166.722C12.5361 166.22 12.3704 165.614 12.3704 164.903C12.3704 164.278 12.4935 163.772 12.7397 163.384C12.9859 162.991 13.315 162.683 13.7269 162.46C14.1388 162.238 14.5934 162.072 15.0906 161.963C15.5924 161.849 16.0967 161.759 16.6033 161.693C17.2662 161.608 17.8036 161.544 18.2156 161.501C18.6322 161.454 18.9353 161.376 19.1246 161.267C19.3188 161.158 19.4158 160.969 19.4158 160.699V160.642C19.4158 159.941 19.2241 159.397 18.8406 159.009C18.4618 158.62 17.8865 158.426 17.1147 158.426C16.3145 158.426 15.6871 158.601 15.2326 158.952C14.7781 159.302 14.4585 159.676 14.2738 160.074L12.6829 159.506C12.967 158.843 13.3458 158.327 13.8192 157.957C14.2975 157.583 14.8183 157.323 15.3817 157.176C15.9499 157.025 16.5086 156.949 17.0579 156.949C17.4083 156.949 17.8107 156.991 18.2653 157.077C18.7246 157.157 19.1673 157.325 19.5934 157.581C20.0243 157.837 20.3817 158.223 20.6658 158.739C20.9499 159.255 21.092 159.946 21.092 160.812V168H19.4158V166.523H19.3306C19.217 166.759 19.0276 167.013 18.7624 167.283C18.4973 167.553 18.1445 167.782 17.7042 167.972C17.2638 168.161 16.7264 168.256 16.092 168.256ZM16.3477 166.75C17.0105 166.75 17.5692 166.62 18.0238 166.359C18.4831 166.099 18.8287 165.763 19.0607 165.351C19.2975 164.939 19.4158 164.506 19.4158 164.051V162.517C19.3448 162.602 19.1886 162.68 18.9471 162.751C18.7103 162.818 18.4357 162.877 18.1232 162.929C17.8155 162.976 17.5148 163.019 17.2212 163.057C16.9324 163.09 16.698 163.118 16.5181 163.142C16.0825 163.199 15.6753 163.291 15.2965 163.419C14.9225 163.542 14.6194 163.729 14.3874 163.98C14.1602 164.226 14.0465 164.562 14.0465 164.989C14.0465 165.571 14.262 166.011 14.6928 166.31C15.1284 166.603 15.68 166.75 16.3477 166.75ZM24.1513 168V157.091H25.7706V158.795H25.9126C26.1399 158.213 26.5069 157.761 27.0135 157.439C27.5201 157.112 28.1286 156.949 28.8388 156.949C29.5585 156.949 30.1574 157.112 30.6357 157.439C31.1186 157.761 31.495 158.213 31.7649 158.795H31.8786C32.1579 158.232 32.5769 157.785 33.1357 157.453C33.6944 157.117 34.3643 156.949 35.1456 156.949C36.121 156.949 36.9188 157.254 37.5391 157.865C38.1593 158.471 38.4695 159.416 38.4695 160.699V168H36.7933V160.699C36.7933 159.894 36.5732 159.319 36.1328 158.973C35.6925 158.627 35.174 158.455 34.5774 158.455C33.8104 158.455 33.2161 158.687 32.7947 159.151C32.3733 159.61 32.1626 160.192 32.1626 160.898V168H30.4581V160.528C30.4581 159.908 30.2569 159.409 29.8544 159.03C29.4519 158.646 28.9335 158.455 28.299 158.455C27.8634 158.455 27.4562 158.571 27.0774 158.803C26.7034 159.035 26.4003 159.357 26.1683 159.768C25.9411 160.176 25.8274 160.647 25.8274 161.182V168H24.1513ZM44.7443 168.256C44.053 168.256 43.4257 168.125 42.8622 167.865C42.2988 167.6 41.8513 167.219 41.5199 166.722C41.1884 166.22 41.0227 165.614 41.0227 164.903C41.0227 164.278 41.1458 163.772 41.392 163.384C41.6383 162.991 41.9673 162.683 42.3793 162.46C42.7912 162.238 43.2457 162.072 43.7429 161.963C44.2448 161.849 44.7491 161.759 45.2557 161.693C45.9186 161.608 46.456 161.544 46.8679 161.501C47.2846 161.454 47.5876 161.376 47.777 161.267C47.9711 161.158 48.0682 160.969 48.0682 160.699V160.642C48.0682 159.941 47.8764 159.397 47.4929 159.009C47.1141 158.62 46.5388 158.426 45.767 158.426C44.9669 158.426 44.3395 158.601 43.8849 158.952C43.4304 159.302 43.1108 159.676 42.9261 160.074L41.3352 159.506C41.6193 158.843 41.9981 158.327 42.4716 157.957C42.9498 157.583 43.4706 157.323 44.0341 157.176C44.6023 157.025 45.161 156.949 45.7102 156.949C46.0606 156.949 46.4631 156.991 46.9176 157.077C47.3769 157.157 47.8196 157.325 48.2457 157.581C48.6766 157.837 49.0341 158.223 49.3182 158.739C49.6023 159.255 49.7443 159.946 49.7443 160.812V168H48.0682V166.523H47.983C47.8693 166.759 47.6799 167.013 47.4148 167.283C47.1496 167.553 46.7969 167.782 46.3565 167.972C45.9162 168.161 45.3788 168.256 44.7443 168.256ZM45 166.75C45.6629 166.75 46.2216 166.62 46.6761 166.359C47.1354 166.099 47.4811 165.763 47.7131 165.351C47.9498 164.939 48.0682 164.506 48.0682 164.051V162.517C47.9972 162.602 47.8409 162.68 47.5994 162.751C47.3627 162.818 47.0881 162.877 46.7756 162.929C46.4678 162.976 46.1671 163.019 45.8736 163.057C45.5848 163.09 45.3504 163.118 45.1705 163.142C44.7348 163.199 44.3277 163.291 43.9489 163.419C43.5748 163.542 43.2718 163.729 43.0398 163.98C42.8125 164.226 42.6989 164.562 42.6989 164.989C42.6989 165.571 42.9143 166.011 43.3452 166.31C43.7808 166.603 44.3324 166.75 45 166.75ZM54.4798 161.438V168H52.8036V157.091H54.4229V158.795H54.565C54.8207 158.241 55.2089 157.796 55.7298 157.46C56.2506 157.119 56.9229 156.949 57.7468 156.949C58.4854 156.949 59.1317 157.1 59.6857 157.403C60.2397 157.702 60.6706 158.156 60.9783 158.767C61.2861 159.373 61.44 160.14 61.44 161.068V168H59.7638V161.182C59.7638 160.325 59.5413 159.657 59.0962 159.179C58.6512 158.696 58.0404 158.455 57.2638 158.455C56.7288 158.455 56.2506 158.571 55.8292 158.803C55.4125 159.035 55.0835 159.373 54.842 159.818C54.6005 160.263 54.4798 160.803 54.4798 161.438ZM66.179 161.438V168H64.5028V153.455H66.179V158.795H66.321C66.5767 158.232 66.9602 157.785 67.4716 157.453C67.9877 157.117 68.6742 156.949 69.5312 156.949C70.2746 156.949 70.9257 157.098 71.4844 157.396C72.0431 157.69 72.4763 158.142 72.7841 158.753C73.0966 159.359 73.2528 160.131 73.2528 161.068V168H71.5767V161.182C71.5767 160.315 71.3518 159.645 70.902 159.172C70.4569 158.694 69.839 158.455 69.0483 158.455C68.4991 158.455 68.0066 158.571 67.571 158.803C67.1402 159.035 66.7992 159.373 66.5483 159.818C66.3021 160.263 66.179 160.803 66.179 161.438ZM80.7511 168.227C79.7662 168.227 78.9021 167.993 78.1587 167.524C77.4201 167.055 76.8424 166.4 76.4258 165.557C76.0138 164.714 75.8079 163.729 75.8079 162.602C75.8079 161.466 76.0138 160.474 76.4258 159.626C76.8424 158.779 77.4201 158.121 78.1587 157.652C78.9021 157.183 79.7662 156.949 80.7511 156.949C81.7359 156.949 82.5977 157.183 83.3363 157.652C84.0797 158.121 84.6573 158.779 85.0692 159.626C85.4859 160.474 85.6942 161.466 85.6942 162.602C85.6942 163.729 85.4859 164.714 85.0692 165.557C84.6573 166.4 84.0797 167.055 83.3363 167.524C82.5977 167.993 81.7359 168.227 80.7511 168.227ZM80.7511 166.722C81.4992 166.722 82.1147 166.53 82.5977 166.146C83.0806 165.763 83.4381 165.259 83.6701 164.634C83.9021 164.009 84.0181 163.331 84.0181 162.602C84.0181 161.873 83.9021 161.194 83.6701 160.564C83.4381 159.934 83.0806 159.425 82.5977 159.037C82.1147 158.649 81.4992 158.455 80.7511 158.455C80.003 158.455 79.3874 158.649 78.9045 159.037C78.4215 159.425 78.064 159.934 77.832 160.564C77.6 161.194 77.484 161.873 77.484 162.602C77.484 163.331 77.6 164.009 77.832 164.634C78.064 165.259 78.4215 165.763 78.9045 166.146C79.3874 166.53 80.003 166.722 80.7511 166.722Z" fill="white"/>
<path d="M291.5 198.375L298.75 205.625L306 198.375" stroke="white" stroke-width="2.9" stroke-linecap="round" stroke-linejoin="round"/>
<path d="M291.5 296.375L298.75 303.625L306 296.375" stroke="white" stroke-width="2.9" stroke-linecap="round" stroke-linejoin="round"/>
<path d="M291.5 492.375L298.75 499.625L306 492.375" stroke="white" stroke-width="2.9" stroke-linecap="round" stroke-linejoin="round"/>
<path d="M291.5 2.375L298.75 9.625L306 2.375" stroke="white" stroke-width="2.9" stroke-linecap="round" stroke-linejoin="round"/>
<path d="M291.5 100.375L298.75 107.625L306 100.375" stroke="white" stroke-width="2.9" stroke-linecap="round" stroke-linejoin="round"/>
<path d="M0.965909 155.017V153.455H11.875V155.017H7.30114V168H5.53977V155.017H0.965909ZM16.092 168.256C15.4007 168.256 14.7733 168.125 14.2099 167.865C13.6464 167.6 13.199 167.219 12.8675 166.722C12.5361 166.22 12.3704 165.614 12.3704 164.903C12.3704 164.278 12.4935 163.772 12.7397 163.384C12.9859 162.991 13.315 162.683 13.7269 162.46C14.1388 162.238 14.5934 162.072 15.0906 161.963C15.5924 161.849 16.0967 161.759 16.6033 161.693C17.2662 161.608 17.8036 161.544 18.2156 161.501C18.6322 161.454 18.9353 161.376 19.1246 161.267C19.3188 161.158 19.4158 160.969 19.4158 160.699V160.642C19.4158 159.941 19.2241 159.397 18.8406 159.009C18.4618 158.62 17.8865 158.426 17.1147 158.426C16.3145 158.426 15.6871 158.601 15.2326 158.952C14.7781 159.302 14.4585 159.676 14.2738 160.074L12.6829 159.506C12.967 158.843 13.3458 158.327 13.8192 157.957C14.2975 157.583 14.8183 157.323 15.3817 157.176C15.9499 157.025 16.5086 156.949 17.0579 156.949C17.4083 156.949 17.8107 156.991 18.2653 157.077C18.7246 157.157 19.1673 157.325 19.5934 157.581C20.0243 157.837 20.3817 158.223 20.6658 158.739C20.9499 159.255 21.092 159.946 21.092 160.812V168H19.4158V166.523H19.3306C19.217 166.759 19.0276 167.013 18.7624 167.283C18.4973 167.553 18.1445 167.782 17.7042 167.972C17.2638 168.161 16.7264 168.256 16.092 168.256ZM16.3477 166.75C17.0105 166.75 17.5692 166.62 18.0238 166.359C18.4831 166.099 18.8287 165.763 19.0607 165.351C19.2975 164.939 19.4158 164.506 19.4158 164.051V162.517C19.3448 162.602 19.1886 162.68 18.9471 162.751C18.7103 162.818 18.4357 162.877 18.1232 162.929C17.8155 162.976 17.5148 163.019 17.2212 163.057C16.9324 163.09 16.698 163.118 16.5181 163.142C16.0825 163.199 15.6753 163.291 15.2965 163.419C14.9225 163.542 14.6194 163.729 14.3874 163.98C14.1602 164.226 14.0465 164.562 14.0465 164.989C14.0465 165.571 14.262 166.011 14.6928 166.31C15.1284 166.603 15.68 166.75 16.3477 166.75ZM24.1513 168V157.091H25.7706V158.795H25.9126C26.1399 158.213 26.5069 157.761 27.0135 157.439C27.5201 157.112 28.1286 156.949 28.8388 156.949C29.5585 156.949 30.1574 157.112 30.6357 157.439C31.1186 157.761 31.495 158.213 31.7649 158.795H31.8786C32.1579 158.232 32.5769 157.785 33.1357 157.453C33.6944 157.117 34.3643 156.949 35.1456 156.949C36.121 156.949 36.9188 157.254 37.5391 157.865C38.1593 158.471 38.4695 159.416 38.4695 160.699V168H36.7933V160.699C36.7933 159.894 36.5732 159.319 36.1328 158.973C35.6925 158.627 35.174 158.455 34.5774 158.455C33.8104 158.455 33.2161 158.687 32.7947 159.151C32.3733 159.61 32.1626 160.192 32.1626 160.898V168H30.4581V160.528C30.4581 159.908 30.2569 159.409 29.8544 159.03C29.4519 158.646 28.9335 158.455 28.299 158.455C27.8634 158.455 27.4562 158.571 27.0774 158.803C26.7034 159.035 26.4003 159.357 26.1683 159.768C25.9411 160.176 25.8274 160.647 25.8274 161.182V168H24.1513ZM44.7443 168.256C44.053 168.256 43.4257 168.125 42.8622 167.865C42.2988 167.6 41.8513 167.219 41.5199 166.722C41.1884 166.22 41.0227 165.614 41.0227 164.903C41.0227 164.278 41.1458 163.772 41.392 163.384C41.6383 162.991 41.9673 162.683 42.3793 162.46C42.7912 162.238 43.2457 162.072 43.7429 161.963C44.2448 161.849 44.7491 161.759 45.2557 161.693C45.9186 161.608 46.456 161.544 46.8679 161.501C47.2846 161.454 47.5876 161.376 47.777 161.267C47.9711 161.158 48.0682 160.969 48.0682 160.699V160.642C48.0682 159.941 47.8764 159.397 47.4929 159.009C47.1141 158.62 46.5388 158.426 45.767 158.426C44.9669 158.426 44.3395 158.601 43.8849 158.952C43.4304 159.302 43.1108 159.676 42.9261 160.074L41.3352 159.506C41.6193 158.843 41.9981 158.327 42.4716 157.957C42.9498 157.583 43.4706 157.323 44.0341 157.176C44.6023 157.025 45.161 156.949 45.7102 156.949C46.0606 156.949 46.4631 156.991 46.9176 157.077C47.3769 157.157 47.8196 157.325 48.2457 157.581C48.6766 157.837 49.0341 158.223 49.3182 158.739C49.6023 159.255 49.7443 159.946 49.7443 160.812V168H48.0682V166.523H47.983C47.8693 166.759 47.6799 167.013 47.4148 167.283C47.1496 167.553 46.7969 167.782 46.3565 167.972C45.9162 168.161 45.3788 168.256 44.7443 168.256ZM45 166.75C45.6629 166.75 46.2216 166.62 46.6761 166.359C47.1354 166.099 47.4811 165.763 47.7131 165.351C47.9498 164.939 48.0682 164.506 48.0682 164.051V162.517C47.9972 162.602 47.8409 162.68 47.5994 162.751C47.3627 162.818 47.0881 162.877 46.7756 162.929C46.4678 162.976 46.1671 163.019 45.8736 163.057C45.5848 163.09 45.3504 163.118 45.1705 163.142C44.7348 163.199 44.3277 163.291 43.9489 163.419C43.5748 163.542 43.2718 163.729 43.0398 163.98C42.8125 164.226 42.6989 164.562 42.6989 164.989C42.6989 165.571 42.9143 166.011 43.3452 166.31C43.7808 166.603 44.3324 166.75 45 166.75ZM54.4798 161.438V168H52.8036V157.091H54.4229V158.795H54.565C54.8207 158.241 55.2089 157.796 55.7298 157.46C56.2506 157.119 56.9229 156.949 57.7468 156.949C58.4854 156.949 59.1317 157.1 59.6857 157.403C60.2397 157.702 60.6706 158.156 60.9783 158.767C61.2861 159.373 61.44 160.14 61.44 161.068V168H59.7638V161.182C59.7638 160.325 59.5413 159.657 59.0962 159.179C58.6512 158.696 58.0404 158.455 57.2638 158.455C56.7288 158.455 56.2506 158.571 55.8292 158.803C55.4125 159.035 55.0835 159.373 54.842 159.818C54.6005 160.263 54.4798 160.803 54.4798 161.438ZM66.179 161.438V168H64.5028V153.455H66.179V158.795H66.321C66.5767 158.232 66.9602 157.785 67.4716 157.453C67.9877 157.117 68.6742 156.949 69.5312 156.949C70.2746 156.949 70.9257 157.098 71.4844 157.396C72.0431 157.69 72.4763 158.142 72.7841 158.753C73.0966 159.359 73.2528 160.131 73.2528 161.068V168H71.5767V161.182C71.5767 160.315 71.3518 159.645 70.902 159.172C70.4569 158.694 69.839 158.455 69.0483 158.455C68.4991 158.455 68.0066 158.571 67.571 158.803C67.1402 159.035 66.7992 159.373 66.5483 159.818C66.3021 160.263 66.179 160.803 66.179 161.438ZM80.7511 168.227C79.7662 168.227 78.9021 167.993 78.1587 167.524C77.4201 167.055 76.8424 166.4 76.4258 165.557C76.0138 164.714 75.8079 163.729 75.8079 162.602C75.8079 161.466 76.0138 160.474 76.4258 159.626C76.8424 158.779 77.4201 158.121 78.1587 157.652C78.9021 157.183 79.7662 156.949 80.7511 156.949C81.7359 156.949 82.5977 157.183 83.3363 157.652C84.0797 158.121 84.6573 158.779 85.0692 159.626C85.4859 160.474 85.6942 161.466 85.6942 162.602C85.6942 163.729 85.4859 164.714 85.0692 165.557C84.6573 166.4 84.0797 167.055 83.3363 167.524C82.5977 167.993 81.7359 168.227 80.7511 168.227ZM80.7511 166.722C81.4992 166.722 82.1147 166.53 82.5977 166.146C83.0806 165.763 83.4381 165.259 83.6701 164.634C83.9021 164.009 84.0181 163.331 84.0181 162.602C84.0181 161.873 83.9021 161.194 83.6701 160.564C83.4381 159.934 83.0806 159.425 82.5977 159.037C82.1147 158.649 81.4992 158.455 80.7511 158.455C80.003 158.455 79.3874 158.649 78.9045 159.037C78.4215 159.425 78.064 159.934 77.832 160.564C77.6 161.194 77.484 161.873 77.484 162.602C77.484 163.331 77.6 164.009 77.832 164.634C78.064 165.259 78.4215 165.763 78.9045 166.146C79.3874 166.53 80.003 166.722 80.7511 166.722Z" fill="white"/>
<path d="M291.5 198.375L298.75 205.625L306 198.375" stroke="white" stroke-width="2.9" stroke-linecap="round" stroke-linejoin="round"/>
<path d="M291.5 296.375L298.75 303.625L306 296.375" stroke="white" stroke-width="2.9" stroke-linecap="round" stroke-linejoin="round"/>
<path d="M291.5 492.375L298.75 499.625L306 492.375" stroke="white" stroke-width="2.9" stroke-linecap="round" stroke-linejoin="round"/>
</svg>
