<svg width="417" height="164" viewBox="0 0 417 164" fill="none" xmlns="http://www.w3.org/2000/svg">
<path d="M43.6965 39.7949C44.3223 42.0722 44.0305 44.4981 42.8814 46.5705C41.7324 48.643 39.814 50.2035 37.5232 50.9292C33.343 51.4845 29.3308 47.3862 28.5642 41.7869C27.9366 39.5092 28.2271 37.0824 29.3755 35.0087C30.5239 32.935 32.4424 31.3733 34.7338 30.6468C38.9139 30.0915 42.9252 34.1946 43.6965 39.7949ZM67.2481 83.266C65.547 82.9244 63.9316 82.257 62.4946 81.302C61.0576 80.347 59.8274 79.1233 58.8747 77.7012C58.1615 76.64 57.0473 75.8997 55.777 75.6429C54.5067 75.3861 53.1843 75.6338 52.1005 76.3317C49.1702 78.1963 45.6056 78.8493 42.1855 78.1478C38.7654 77.4463 35.7677 75.4474 33.8472 72.5879C31.9268 69.7283 31.2398 66.2404 31.9363 62.8862C32.6327 59.5321 34.656 56.5842 37.5642 54.6866C41.0021 52.4694 44.8524 50.9375 48.8949 50.1785C52.9375 49.4196 57.0931 49.4484 61.1243 50.2634C65.1555 51.0783 68.9833 52.6635 72.3887 54.9282C75.7942 57.1929 78.7107 60.0928 80.9716 63.4622C82.4083 65.6028 83.1648 68.1127 83.1455 70.6744C83.1262 73.2362 82.3319 75.7348 80.8631 77.8545C79.3943 79.9741 77.3168 81.6195 74.8934 82.5827C72.47 83.546 69.8095 83.7837 67.2481 83.266ZM63.0589 34.6535C62.3423 41.0781 57.8716 45.8692 53.0797 45.3525C48.2877 44.8358 44.9835 39.2099 45.7049 32.7862C46.4205 26.3663 50.8912 21.5752 55.6831 22.0919C60.4761 22.6039 63.7755 28.2288 63.0589 34.6535ZM65.657 35.1787C63.7183 41.3563 65.8872 47.4897 70.4965 48.8736C75.1058 50.2575 80.409 46.3718 82.3476 40.1942C84.2853 34.0213 82.1164 27.8879 77.5071 26.504C72.8988 25.1153 67.5908 29.0001 65.657 35.1787ZM81.3602 47.4043C79.862 49.2533 79.1474 51.596 79.3647 53.947C79.5819 56.298 80.7142 58.477 82.5269 60.0324C86.142 62.1587 91.4829 59.9513 94.4499 55.1068C95.9468 53.2587 96.661 50.9175 96.4445 48.5678C96.228 46.2182 95.0975 44.0401 93.287 42.4844C89.6729 40.3533 84.332 42.5608 81.3602 47.4043Z" fill="white"/>
<path d="M153.154 101.795C152.528 104.072 152.82 106.498 153.969 108.571C155.118 110.643 157.037 112.204 159.327 112.929C163.508 113.485 167.52 109.386 168.286 103.787C168.914 101.509 168.624 99.0824 167.475 97.0087C166.327 94.935 164.408 93.3733 162.117 92.6468C157.937 92.0915 153.926 96.1946 153.154 101.795ZM129.603 145.266C131.304 144.924 132.919 144.257 134.356 143.302C135.793 142.347 137.023 141.123 137.976 139.701C138.689 138.64 139.803 137.9 141.074 137.643C142.344 137.386 143.666 137.634 144.75 138.332C147.68 140.196 151.245 140.849 154.665 140.148C158.085 139.446 161.083 137.447 163.003 134.588C164.924 131.728 165.611 128.24 164.914 124.886C164.218 121.532 162.195 118.584 159.286 116.687C155.849 114.469 151.998 112.937 147.956 112.179C143.913 111.42 139.758 111.448 135.726 112.263C131.695 113.078 127.867 114.663 124.462 116.928C121.056 119.193 118.14 122.093 115.879 125.462C114.442 127.603 113.686 130.113 113.705 132.674C113.724 135.236 114.519 137.735 115.988 139.854C117.456 141.974 119.534 143.62 121.957 144.583C124.381 145.546 127.041 145.784 129.603 145.266ZM133.792 96.6535C134.508 103.078 138.979 107.869 143.771 107.353C148.563 106.836 151.867 101.21 151.146 94.7862C150.43 88.3663 145.959 83.5752 141.168 84.0919C136.375 84.6039 133.075 90.2288 133.792 96.6535ZM131.194 97.1787C133.132 103.356 130.963 109.49 126.354 110.874C121.745 112.258 116.442 108.372 114.503 102.194C112.565 96.0213 114.734 89.8879 119.344 88.504C123.952 87.1153 129.26 91.0001 131.194 97.1787ZM115.49 109.404C116.989 111.253 117.703 113.596 117.486 115.947C117.269 118.298 116.137 120.477 114.324 122.032C110.709 124.159 105.368 121.951 102.401 117.107C100.904 115.259 100.19 112.917 100.406 110.568C100.623 108.218 101.753 106.04 103.564 104.484C107.178 102.353 112.519 104.561 115.49 109.404Z" fill="white"/>
<path d="M204.994 36.7949C205.62 39.0722 205.328 41.4981 204.179 43.5705C203.03 45.643 201.112 47.2035 198.821 47.9292C194.641 48.4845 190.629 44.3862 189.862 38.7869C189.234 36.5092 189.525 34.0824 190.673 32.0087C191.822 29.935 193.74 28.3733 196.032 27.6468C200.212 27.0915 204.223 31.1946 204.994 36.7949ZM228.546 80.266C226.845 79.9244 225.229 79.257 223.792 78.302C222.355 77.347 221.125 76.1233 220.173 74.7012C219.459 73.64 218.345 72.8997 217.075 72.6429C215.805 72.3861 214.482 72.6338 213.398 73.3317C210.468 75.1963 206.903 75.8493 203.483 75.1478C200.063 74.4463 197.066 72.4474 195.145 69.5879C193.225 66.7283 192.538 63.2404 193.234 59.8862C193.931 56.5321 195.954 53.5842 198.862 51.6866C202.3 49.4694 206.15 47.9375 210.193 47.1785C214.235 46.4196 218.391 46.4484 222.422 47.2634C226.453 48.0783 230.281 49.6635 233.687 51.9282C237.092 54.1929 240.009 57.0928 242.269 60.4622C243.706 62.6028 244.463 65.1127 244.443 67.6744C244.424 70.2362 243.63 72.7348 242.161 74.8545C240.692 76.9741 238.615 78.6195 236.191 79.5827C233.768 80.546 231.107 80.7837 228.546 80.266ZM224.357 31.6535C223.64 38.0781 219.169 42.8692 214.378 42.3525C209.586 41.8358 206.281 36.2099 207.003 29.7862C207.718 23.3663 212.189 18.5752 216.981 19.0919C221.774 19.6039 225.073 25.2288 224.357 31.6535ZM226.955 32.1787C225.016 38.3563 227.185 44.4897 231.794 45.8736C236.404 47.2575 241.707 43.3718 243.645 37.1942C245.583 31.0213 243.414 24.8879 238.805 23.504C234.197 22.1153 228.889 26.0001 226.955 32.1787ZM242.658 44.4043C241.16 46.2533 240.445 48.596 240.663 50.947C240.88 53.298 242.012 55.477 243.825 57.0324C247.44 59.1587 252.781 56.9513 255.748 52.1068C257.245 50.2587 257.959 47.9175 257.742 45.5678C257.526 43.2182 256.395 41.0401 254.585 39.4844C250.971 37.3533 245.63 39.5608 242.658 44.4043Z" fill="white"/>
<path d="M280.539 101.795C281.165 104.072 280.873 106.498 279.724 108.571C278.575 110.643 276.657 112.204 274.366 112.929C270.186 113.485 266.174 109.386 265.407 103.787C264.779 101.509 265.07 99.0824 266.218 97.0087C267.367 94.935 269.285 93.3733 271.577 92.6468C275.757 92.0915 279.768 96.1946 280.539 101.795ZM304.091 145.266C302.39 144.924 300.774 144.257 299.337 143.302C297.9 142.347 296.67 141.123 295.718 139.701C295.004 138.64 293.89 137.9 292.62 137.643C291.349 137.386 290.027 137.634 288.943 138.332C286.013 140.196 282.448 140.849 279.028 140.148C275.608 139.446 272.61 137.447 270.69 134.588C268.77 131.728 268.083 128.24 268.779 124.886C269.475 121.532 271.499 118.584 274.407 116.687C277.845 114.469 281.695 112.937 285.738 112.179C289.78 111.42 293.936 111.448 297.967 112.263C301.998 113.078 305.826 114.663 309.232 116.928C312.637 119.193 315.554 122.093 317.814 125.462C319.251 127.603 320.008 130.113 319.988 132.674C319.969 135.236 319.175 137.735 317.706 139.854C316.237 141.974 314.16 143.62 311.736 144.583C309.313 145.546 306.652 145.784 304.091 145.266ZM299.902 96.6535C299.185 103.078 294.714 107.869 289.922 107.353C285.13 106.836 281.826 101.21 282.548 94.7862C283.263 88.3663 287.734 83.5752 292.526 84.0919C297.319 84.6039 300.618 90.2288 299.902 96.6535ZM302.5 97.1787C300.561 103.356 302.73 109.49 307.339 110.874C311.949 112.258 317.252 108.372 319.19 102.194C321.128 96.0213 318.959 89.8879 314.35 88.504C309.742 87.1153 304.434 91.0001 302.5 97.1787ZM318.203 109.404C316.705 111.253 315.99 113.596 316.207 115.947C316.425 118.298 317.557 120.477 319.37 122.032C322.985 124.159 328.326 121.951 331.293 117.107C332.79 115.259 333.504 112.917 333.287 110.568C333.071 108.218 331.94 106.04 330.13 104.484C326.516 102.353 321.175 104.561 318.203 109.404Z" fill="white"/>
<path d="M394.081 36.7949C393.455 39.0722 393.747 41.4981 394.896 43.5705C396.045 45.643 397.963 47.2035 400.254 47.9292C404.434 48.4845 408.447 44.3862 409.213 38.7869C409.841 36.5092 409.55 34.0824 408.402 32.0087C407.254 29.935 405.335 28.3733 403.044 27.6468C398.864 27.0915 394.852 31.1946 394.081 36.7949ZM370.529 80.266C372.23 79.9244 373.846 79.257 375.283 78.302C376.72 77.347 377.95 76.1233 378.903 74.7012C379.616 73.64 380.73 72.8997 382 72.6429C383.271 72.3861 384.593 72.6338 385.677 73.3317C388.607 75.1963 392.172 75.8493 395.592 75.1478C399.012 74.4463 402.01 72.4474 403.93 69.5879C405.851 66.7283 406.538 63.2404 405.841 59.8862C405.145 56.5321 403.121 53.5842 400.213 51.6866C396.775 49.4694 392.925 47.9375 388.882 47.1785C384.84 46.4196 380.684 46.4484 376.653 47.2634C372.622 48.0783 368.794 49.6635 365.389 51.9282C361.983 54.1929 359.067 57.0928 356.806 60.4622C355.369 62.6028 354.613 65.1127 354.632 67.6744C354.651 70.2362 355.446 72.7348 356.914 74.8545C358.383 76.9741 360.461 78.6195 362.884 79.5827C365.307 80.546 367.968 80.7837 370.529 80.266ZM374.719 31.6535C375.435 38.0781 379.906 42.8692 384.698 42.3525C389.49 41.8358 392.794 36.2099 392.073 29.7862C391.357 23.3663 386.886 18.5752 382.094 19.0919C377.301 19.6039 374.002 25.2288 374.719 31.6535ZM372.12 32.1787C374.059 38.3563 371.89 44.4897 367.281 45.8736C362.672 47.2575 357.368 43.3718 355.43 37.1942C353.492 31.0213 355.661 24.8879 360.27 23.504C364.879 22.1153 370.187 26.0001 372.12 32.1787ZM356.417 44.4043C357.915 46.2533 358.63 48.596 358.413 50.947C358.196 53.298 357.063 55.477 355.251 57.0324C351.635 59.1587 346.295 56.9513 343.328 52.1068C341.831 50.2587 341.116 47.9175 341.333 45.5678C341.549 43.2182 342.68 41.0401 344.49 39.4844C348.105 37.3533 353.445 39.5608 356.417 44.4043Z" fill="white"/>
</svg>
