<svg width="407" height="164" viewBox="0 0 407 164" fill="none" xmlns="http://www.w3.org/2000/svg">
<path d="M363.304 39.7947C362.678 42.072 362.97 44.4978 364.119 46.5703C365.268 48.6428 367.186 50.2033 369.477 50.929C373.657 51.4843 377.669 47.3859 378.436 41.7867C379.064 39.509 378.773 37.0822 377.625 35.0085C376.476 32.9348 374.558 31.3731 372.266 30.6466C368.086 30.0913 364.075 34.1944 363.304 39.7947ZM339.752 83.2658C341.453 82.9242 343.069 82.2568 344.506 81.3018C345.943 80.3468 347.173 79.1231 348.125 77.701C348.839 76.6398 349.953 75.8995 351.223 75.6427C352.493 75.3859 353.816 75.6336 354.9 76.3314C357.83 78.1961 361.394 78.849 364.815 78.1476C368.235 77.4461 371.232 75.4472 373.153 72.5876C375.073 69.7281 375.76 66.2402 375.064 62.886C374.367 59.5319 372.344 56.584 369.436 54.6864C365.998 52.4692 362.148 50.9373 358.105 50.1783C354.063 49.4193 349.907 49.4482 345.876 50.2631C341.845 51.0781 338.017 52.6633 334.611 54.928C331.206 57.1927 328.289 60.0926 326.029 63.462C324.592 65.6026 323.835 68.1125 323.855 70.6742C323.874 73.236 324.668 75.7346 326.137 77.8542C327.606 79.9739 329.683 81.6193 332.107 82.5825C334.53 83.5457 337.191 83.7835 339.752 83.2658ZM343.941 34.6532C344.658 41.0779 349.128 45.869 353.92 45.3523C358.712 44.8356 362.017 39.2097 361.295 32.786C360.58 26.366 356.109 21.5749 351.317 22.0917C346.524 22.6037 343.225 28.2286 343.941 34.6532ZM341.343 35.1785C343.282 41.3561 341.113 47.4895 336.504 48.8734C331.894 50.2573 326.591 46.3716 324.653 40.1939C322.715 34.021 324.884 27.8876 329.493 26.5037C334.101 25.1151 339.409 28.9999 341.343 35.1785ZM325.64 47.4041C327.138 49.2531 327.853 51.5958 327.635 53.9468C327.418 56.2977 326.286 58.4768 324.473 60.0322C320.858 62.1585 315.517 59.951 312.55 55.1066C311.053 53.2584 310.339 50.9172 310.556 48.5676C310.772 46.218 311.903 44.0399 313.713 42.4841C317.327 40.3531 322.668 42.5606 325.64 47.4041Z" fill="white"/>
<path d="M253.846 101.795C254.472 104.072 254.18 106.498 253.031 108.57C251.882 110.643 249.963 112.203 247.672 112.929C243.492 113.484 239.48 109.386 238.714 103.787C238.086 101.509 238.376 99.0822 239.525 97.0085C240.673 94.9348 242.592 93.3731 244.883 92.6466C249.063 92.0913 253.074 96.1944 253.846 101.795ZM277.397 145.266C275.696 144.924 274.081 144.257 272.644 143.302C271.207 142.347 269.977 141.123 269.024 139.701C268.311 138.64 267.197 137.899 265.926 137.643C264.656 137.386 263.334 137.634 262.25 138.331C259.319 140.196 255.755 140.849 252.335 140.148C248.915 139.446 245.917 137.447 243.997 134.588C242.076 131.728 241.389 128.24 242.086 124.886C242.782 121.532 244.805 118.584 247.714 116.686C251.151 114.469 255.002 112.937 259.044 112.178C263.087 111.419 267.242 111.448 271.274 112.263C275.305 113.078 279.133 114.663 282.538 116.928C285.944 119.193 288.86 122.093 291.121 125.462C292.558 127.603 293.314 130.112 293.295 132.674C293.275 135.236 292.481 137.735 291.012 139.854C289.544 141.974 287.466 143.619 285.043 144.583C282.619 145.546 279.959 145.784 277.397 145.266ZM273.208 96.6532C272.492 103.078 268.021 107.869 263.229 107.352C258.437 106.836 255.133 101.21 255.854 94.786C256.57 88.366 261.04 83.5749 265.832 84.0917C270.625 84.6037 273.925 90.2286 273.208 96.6532ZM275.806 97.1785C273.868 103.356 276.037 109.49 280.646 110.873C285.255 112.257 290.558 108.372 292.497 102.194C294.435 96.021 292.266 89.8876 287.656 88.5037C283.048 87.1151 277.74 90.9999 275.806 97.1785ZM291.509 109.404C290.011 111.253 289.297 113.596 289.514 115.947C289.731 118.298 290.863 120.477 292.676 122.032C296.291 124.159 301.632 121.951 304.599 117.107C306.096 115.258 306.81 112.917 306.594 110.568C306.377 108.218 305.247 106.04 303.436 104.484C299.822 102.353 294.481 104.561 291.509 109.404Z" fill="white"/>
<path d="M202.006 36.7947C201.38 39.072 201.672 41.4978 202.821 43.5703C203.97 45.6428 205.888 47.2033 208.179 47.929C212.359 48.4843 216.371 44.3859 217.138 38.7867C217.766 36.509 217.475 34.0822 216.327 32.0085C215.178 29.9348 213.26 28.3731 210.969 27.6466C206.788 27.0913 202.777 31.1944 202.006 36.7947ZM178.454 80.2658C180.155 79.9242 181.771 79.2568 183.208 78.3018C184.645 77.3468 185.875 76.1231 186.828 74.701C187.541 73.6398 188.655 72.8995 189.925 72.6427C191.196 72.3859 192.518 72.6336 193.602 73.3314C196.532 75.1961 200.097 75.849 203.517 75.1476C206.937 74.4461 209.935 72.4472 211.855 69.5876C213.775 66.7281 214.462 63.2402 213.766 59.886C213.07 56.5319 211.046 53.584 208.138 51.6864C204.7 49.4692 200.85 47.9373 196.807 47.1783C192.765 46.4193 188.609 46.4482 184.578 47.2631C180.547 48.0781 176.719 49.6633 173.314 51.928C169.908 54.1927 166.992 57.0926 164.731 60.462C163.294 62.6026 162.537 65.1125 162.557 67.6742C162.576 70.236 163.37 72.7346 164.839 74.8542C166.308 76.9739 168.385 78.6193 170.809 79.5825C173.232 80.5457 175.893 80.7835 178.454 80.2658ZM182.643 31.6532C183.36 38.0779 187.831 42.869 192.623 42.3523C197.415 41.8356 200.719 36.2097 199.997 29.786C199.282 23.366 194.811 18.5749 190.019 19.0917C185.226 19.6037 181.927 25.2286 182.643 31.6532ZM180.045 32.1785C181.984 38.3561 179.815 44.4895 175.206 45.8734C170.597 47.2573 165.293 43.3716 163.355 37.1939C161.417 31.021 163.586 24.8876 168.195 23.5037C172.803 22.1151 178.111 25.9999 180.045 32.1785ZM164.342 44.4041C165.84 46.2531 166.555 48.5958 166.338 50.9468C166.12 53.2977 164.988 55.4768 163.175 57.0322C159.56 59.1585 154.219 56.951 151.252 52.1066C149.755 50.2584 149.041 47.9172 149.258 45.5676C149.474 43.218 150.605 41.0399 152.415 39.4841C156.029 37.3531 161.37 39.5606 164.342 44.4041Z" fill="white"/>
<path d="M126.461 101.795C125.835 104.072 126.127 106.498 127.276 108.57C128.425 110.643 130.343 112.203 132.634 112.929C136.814 113.484 140.827 109.386 141.593 103.787C142.221 101.509 141.93 99.0822 140.782 97.0085C139.633 94.9348 137.715 93.3731 135.424 92.6466C131.243 92.0913 127.232 96.1944 126.461 101.795ZM102.909 145.266C104.61 144.924 106.226 144.257 107.663 143.302C109.1 142.347 110.33 141.123 111.283 139.701C111.996 138.64 113.11 137.899 114.38 137.643C115.651 137.386 116.973 137.634 118.057 138.331C120.987 140.196 124.552 140.849 127.972 140.148C131.392 139.446 134.39 137.447 136.31 134.588C138.231 131.728 138.918 128.24 138.221 124.886C137.525 121.532 135.501 118.584 132.593 116.686C129.155 114.469 125.305 112.937 121.262 112.178C117.22 111.419 113.064 111.448 109.033 112.263C105.002 113.078 101.174 114.663 97.7686 116.928C94.3631 119.193 91.4466 122.093 89.1858 125.462C87.7491 127.603 86.9925 130.112 87.0118 132.674C87.0311 135.236 87.8254 137.735 89.2943 139.854C90.7631 141.974 92.8405 143.619 95.2639 144.583C97.6873 145.546 100.348 145.784 102.909 145.266ZM107.098 96.6532C107.815 103.078 112.286 107.869 117.078 107.352C121.87 106.836 125.174 101.21 124.452 94.786C123.737 88.366 119.266 83.5749 114.474 84.0917C109.681 84.6037 106.382 90.2286 107.098 96.6532ZM104.5 97.1785C106.439 103.356 104.27 109.49 99.6608 110.873C95.0516 112.257 89.7484 108.372 87.8097 102.194C85.8721 96.021 88.041 89.8876 92.6502 88.5037C97.2585 87.1151 102.567 90.9999 104.5 97.1785ZM88.7972 109.404C90.2954 111.253 91.0099 113.596 90.7927 115.947C90.5755 118.298 89.4432 120.477 87.6304 122.032C84.0153 124.159 78.6745 121.951 75.7075 117.107C74.2105 115.258 73.4964 112.917 73.7128 110.568C73.9293 108.218 75.0598 106.04 76.8703 104.484C80.4845 102.353 85.8253 104.561 88.7972 109.404Z" fill="white"/>
<path d="M12.919 36.7947C13.5448 39.072 13.253 41.4978 12.1039 43.5703C10.9549 45.6428 9.03652 47.2033 6.74572 47.929C2.56558 48.4843 -1.44667 44.3859 -2.21322 38.7867C-2.84087 36.509 -2.55041 34.0822 -1.40198 32.0085C-0.253551 29.9348 1.66492 28.3731 3.95629 27.6466C8.13643 27.0913 12.1477 31.1944 12.919 36.7947ZM36.4707 80.2658C34.7695 79.9242 33.1541 79.2568 31.7171 78.3018C30.2801 77.3468 29.05 76.1231 28.0973 74.701C27.384 73.6398 26.2698 72.8995 24.9995 72.6427C23.7293 72.3859 22.4069 72.6336 21.323 73.3314C18.3927 75.1961 14.8282 75.849 11.4081 75.1476C7.98792 74.4461 4.9902 72.4472 3.06978 69.5876C1.14936 66.7281 0.46234 63.2402 1.15879 59.886C1.85524 56.5319 3.87857 53.584 6.78675 51.6864C10.2246 49.4692 14.0749 47.9373 18.1175 47.1783C22.16 46.4193 26.3157 46.4482 30.3469 47.2631C34.3781 48.0781 38.2058 49.6633 41.6113 51.928C45.0168 54.1927 47.9333 57.0926 50.1941 60.462C51.6308 62.6026 52.3874 65.1125 52.368 67.6742C52.3487 70.236 51.5545 72.7346 50.0856 74.8542C48.6168 76.9739 46.5393 78.6193 44.1159 79.5825C41.6925 80.5457 39.032 80.7835 36.4707 80.2658ZM32.2814 31.6532C31.5648 38.0779 27.0942 42.869 22.3022 42.3523C17.5102 41.8356 14.2061 36.2097 14.9275 29.786C15.6431 23.366 20.1137 18.5749 24.9057 19.0917C29.6987 19.6037 32.998 25.2286 32.2814 31.6532ZM34.8795 32.1785C32.9409 38.3561 35.1098 44.4895 39.719 45.8734C44.3283 47.2573 49.6315 43.3716 51.5702 37.1939C53.5078 31.021 51.3389 24.8876 46.7296 23.5037C42.1214 22.1151 36.8134 25.9999 34.8795 32.1785ZM50.5827 44.4041C49.0845 46.2531 48.37 48.5958 48.5872 50.9468C48.8044 53.2977 49.9367 55.4768 51.7494 57.0322C55.3646 59.1585 60.7054 56.951 63.6724 52.1066C65.1694 50.2584 65.8835 47.9172 65.667 45.5676C65.4506 43.218 64.3201 41.0399 62.5096 39.4841C58.8954 37.3531 53.5545 39.5606 50.5827 44.4041Z" fill="white"/>
</svg>
