<svg width="444" height="336" viewBox="0 0 444 336" fill="none" xmlns="http://www.w3.org/2000/svg">
<rect width="205" height="100" transform="translate(147 233)" fill="white"/>
<rect width="170" height="100" transform="translate(0 9)" fill="white"/>
<path d="M11.8586 83C10.0594 83 8.66906 82.5366 7.68765 81.6097C6.76077 80.6283 6.29733 79.238 6.29733 77.4387V30.9039C6.29733 29.1046 6.76077 27.7416 7.68765 26.8147C8.66906 25.8333 10.0594 25.3426 11.8586 25.3426H41.0553C42.4184 25.3426 43.4543 25.697 44.1631 26.4058C44.9264 27.1146 45.3081 28.1232 45.3081 29.4318C45.3081 30.7948 44.9264 31.858 44.1631 32.6213C43.4543 33.3301 42.4184 33.6845 41.0553 33.6845H16.3567V49.5505H39.2561C40.6737 49.5505 41.7369 49.9049 42.4457 50.6137C43.1545 51.3225 43.5089 52.3584 43.5089 53.7215C43.5089 55.0845 43.1545 56.1205 42.4457 56.8293C41.7369 57.5381 40.6737 57.8924 39.2561 57.8924H16.3567V74.6581H41.0553C42.4184 74.6581 43.4543 75.0125 44.1631 75.7213C44.9264 76.4301 45.3081 77.466 45.3081 78.829C45.3081 80.1921 44.9264 81.228 44.1631 81.9368C43.4543 82.6456 42.4184 83 41.0553 83H11.8586ZM67.7724 83.8178C63.247 83.8178 59.8394 82.5366 57.5494 79.974C55.2595 77.3569 54.1145 73.5404 54.1145 68.5243V29.8407C54.1145 28.1505 54.5507 26.8692 55.4231 25.9969C56.2954 25.1245 57.5494 24.6883 59.1851 24.6883C60.8208 24.6883 62.0748 25.1245 62.9471 25.9969C63.874 26.8692 64.3375 28.1505 64.3375 29.8407V68.0336C64.3375 70.5416 64.8554 72.3954 65.8913 73.5949C66.9818 74.7944 68.5084 75.3941 70.4712 75.3941C70.9074 75.3941 71.3163 75.3941 71.698 75.3941C72.0796 75.3396 72.4613 75.2851 72.8429 75.2306C73.6063 75.1215 74.1242 75.3396 74.3968 75.8848C74.6694 76.3755 74.8058 77.4115 74.8058 78.9926C74.8058 80.3557 74.5331 81.4189 73.9879 82.1822C73.4427 82.9455 72.5431 83.4089 71.2891 83.5725C70.7438 83.627 70.1714 83.6815 69.5716 83.7361C68.9719 83.7906 68.3721 83.8178 67.7724 83.8178ZM99.5414 83.8178C95.0161 83.8178 91.1177 82.9727 87.8464 81.2825C84.5751 79.5924 82.0398 77.1934 80.2405 74.0856C78.4958 70.9778 77.6235 67.2976 77.6235 63.0448C77.6235 58.9011 78.4686 55.2754 80.1587 52.1676C81.9035 49.0598 84.2752 46.6336 87.2739 44.8889C90.3272 43.0896 93.7893 42.19 97.6604 42.19C100.496 42.19 103.031 42.6534 105.266 43.5803C107.556 44.5072 109.492 45.843 111.073 47.5877C112.709 49.3324 113.935 51.4588 114.753 53.9668C115.626 56.4203 116.062 59.201 116.062 62.3088C116.062 63.2902 115.707 64.0535 114.999 64.5987C114.344 65.0894 113.39 65.3348 112.136 65.3348H85.8836V59.4463H108.865L107.556 60.6731C107.556 58.1651 107.175 56.0659 106.411 54.3758C105.702 52.6856 104.639 51.4043 103.222 50.5319C101.859 49.605 100.141 49.1416 98.0693 49.1416C95.7794 49.1416 93.8166 49.6868 92.1809 50.7773C90.5998 51.8132 89.373 53.3126 88.5007 55.2754C87.6828 57.1837 87.2739 59.4736 87.2739 62.1452V62.7177C87.2739 67.1885 88.3098 70.5416 90.3817 72.7771C92.5081 74.958 95.6158 76.0484 99.705 76.0484C101.123 76.0484 102.704 75.8848 104.448 75.5577C106.248 75.176 107.938 74.549 109.519 73.6767C110.664 73.0224 111.673 72.7498 112.545 72.8588C113.417 72.9134 114.099 73.2132 114.59 73.7585C115.135 74.3037 115.462 74.9852 115.571 75.803C115.68 76.5664 115.517 77.3569 115.08 78.1748C114.699 78.9926 114.017 79.7014 113.036 80.3011C111.127 81.5006 108.919 82.4003 106.411 83C103.958 83.5452 101.668 83.8178 99.5414 83.8178ZM138.797 83.8178C136.452 83.8178 133.972 83.5725 131.355 83.0818C128.738 82.5911 126.393 81.746 124.321 80.5465C123.449 80.0013 122.822 79.3743 122.44 78.6655C122.113 77.9022 121.977 77.1661 122.031 76.4573C122.14 75.694 122.413 75.0397 122.849 74.4945C123.34 73.9493 123.94 73.5949 124.648 73.4313C125.412 73.2678 126.23 73.4041 127.102 73.8402C129.283 74.8762 131.327 75.6122 133.236 76.0484C135.144 76.4301 137.025 76.6209 138.879 76.6209C141.496 76.6209 143.431 76.1847 144.685 75.3123C145.994 74.3855 146.648 73.186 146.648 71.7139C146.648 70.4599 146.212 69.5057 145.34 68.8514C144.522 68.1427 143.268 67.6247 141.578 67.2976L133.399 65.7437C130.019 65.0894 127.429 63.8626 125.63 62.0634C123.885 60.2096 123.013 57.8379 123.013 54.9482C123.013 52.3312 123.721 50.0685 125.139 48.1602C126.611 46.2519 128.628 44.7798 131.191 43.7439C133.754 42.708 136.698 42.19 140.024 42.19C142.423 42.19 144.658 42.4626 146.73 43.0078C148.856 43.4985 150.901 44.2891 152.864 45.3796C153.682 45.8157 154.227 46.3882 154.499 47.097C154.826 47.8058 154.908 48.5419 154.745 49.3052C154.581 50.014 154.254 50.6682 153.763 51.268C153.273 51.8132 152.646 52.1676 151.882 52.3312C151.173 52.4402 150.356 52.2766 149.429 51.8405C147.739 50.9681 146.103 50.3411 144.522 49.9594C142.995 49.5778 141.523 49.387 140.105 49.387C137.434 49.387 135.444 49.8504 134.135 50.7773C132.881 51.7042 132.254 52.9309 132.254 54.4575C132.254 55.6025 132.636 56.5567 133.399 57.32C134.163 58.0833 135.335 58.6012 136.916 58.8739L145.094 60.4277C148.638 61.082 151.31 62.2815 153.109 64.0262C154.963 65.7709 155.89 68.1154 155.89 71.0596C155.89 75.0397 154.336 78.1748 151.228 80.4647C148.12 82.7001 143.977 83.8178 138.797 83.8178Z" fill="#3746A4"/>
<path d="M206.004 83.8178C201.478 83.8178 197.58 82.9727 194.309 81.2825C191.037 79.5924 188.502 77.1934 186.703 74.0856C184.958 70.9778 184.086 67.2976 184.086 63.0448C184.086 58.9011 184.931 55.2754 186.621 52.1676C188.366 49.0598 190.738 46.6336 193.736 44.8889C196.79 43.0896 200.252 42.19 204.123 42.19C206.958 42.19 209.493 42.6534 211.729 43.5803C214.019 44.5072 215.954 45.843 217.535 47.5877C219.171 49.3324 220.398 51.4588 221.216 53.9668C222.088 56.4203 222.524 59.201 222.524 62.3088C222.524 63.2902 222.17 64.0535 221.461 64.5987C220.807 65.0894 219.853 65.3348 218.598 65.3348H192.346V59.4463H215.327L214.019 60.6731C214.019 58.1651 213.637 56.0659 212.874 54.3758C212.165 52.6856 211.102 51.4043 209.684 50.5319C208.321 49.605 206.604 49.1416 204.532 49.1416C202.242 49.1416 200.279 49.6868 198.643 50.7773C197.062 51.8132 195.835 53.3126 194.963 55.2754C194.145 57.1837 193.736 59.4736 193.736 62.1452V62.7177C193.736 67.1885 194.772 70.5416 196.844 72.7771C198.97 74.958 202.078 76.0484 206.167 76.0484C207.585 76.0484 209.166 75.8848 210.911 75.5577C212.71 75.176 214.4 74.549 215.981 73.6767C217.126 73.0224 218.135 72.7498 219.007 72.8588C219.88 72.9134 220.561 73.2132 221.052 73.7585C221.597 74.3037 221.924 74.9852 222.033 75.803C222.142 76.5664 221.979 77.3569 221.543 78.1748C221.161 78.9926 220.48 79.7014 219.498 80.3011C217.59 81.5006 215.382 82.4003 212.874 83C210.42 83.5452 208.13 83.8178 206.004 83.8178ZM245.259 83.8178C242.915 83.8178 240.434 83.5725 237.817 83.0818C235.2 82.5911 232.855 81.746 230.784 80.5465C229.911 80.0013 229.284 79.3743 228.903 78.6655C228.575 77.9022 228.439 77.1661 228.494 76.4573C228.603 75.694 228.875 75.0397 229.312 74.4945C229.802 73.9493 230.402 73.5949 231.111 73.4313C231.874 73.2678 232.692 73.4041 233.564 73.8402C235.745 74.8762 237.79 75.6122 239.698 76.0484C241.606 76.4301 243.487 76.6209 245.341 76.6209C247.958 76.6209 249.894 76.1847 251.148 75.3123C252.456 74.3855 253.111 73.186 253.111 71.7139C253.111 70.4599 252.674 69.5057 251.802 68.8514C250.984 68.1427 249.73 67.6247 248.04 67.2976L239.862 65.7437C236.481 65.0894 233.891 63.8626 232.092 62.0634C230.347 60.2096 229.475 57.8379 229.475 54.9482C229.475 52.3312 230.184 50.0685 231.601 48.1602C233.074 46.2519 235.091 44.7798 237.653 43.7439C240.216 42.708 243.16 42.19 246.486 42.19C248.885 42.19 251.12 42.4626 253.192 43.0078C255.319 43.4985 257.363 44.2891 259.326 45.3796C260.144 45.8157 260.689 46.3882 260.962 47.097C261.289 47.8058 261.371 48.5419 261.207 49.3052C261.044 50.014 260.716 50.6682 260.226 51.268C259.735 51.8132 259.108 52.1676 258.345 52.3312C257.636 52.4402 256.818 52.2766 255.891 51.8405C254.201 50.9681 252.565 50.3411 250.984 49.9594C249.458 49.5778 247.985 49.387 246.568 49.387C243.896 49.387 241.906 49.8504 240.598 50.7773C239.344 51.7042 238.717 52.9309 238.717 54.4575C238.717 55.6025 239.098 56.5567 239.862 57.32C240.625 58.0833 241.797 58.6012 243.378 58.8739L251.557 60.4277C255.101 61.082 257.772 62.2815 259.571 64.0262C261.425 65.7709 262.352 68.1154 262.352 71.0596C262.352 75.0397 260.798 78.1748 257.69 80.4647C254.583 82.7001 250.439 83.8178 245.259 83.8178ZM288.474 83.8178C284.93 83.8178 281.958 83.2181 279.559 82.0186C277.215 80.8191 275.47 79.0744 274.325 76.7844C273.18 74.44 272.608 71.5503 272.608 68.1154V50.6955H268.355C267.046 50.6955 266.038 50.3684 265.329 49.7141C264.62 49.0053 264.266 48.0512 264.266 46.8517C264.266 45.5977 264.62 44.6435 265.329 43.9892C266.038 43.335 267.046 43.0078 268.355 43.0078H272.608V35.5655C272.608 33.8753 273.044 32.5941 273.916 31.7217C274.843 30.8494 276.124 30.4132 277.76 30.4132C279.396 30.4132 280.65 30.8494 281.522 31.7217C282.394 32.5941 282.831 33.8753 282.831 35.5655V43.0078H291.5C292.808 43.0078 293.817 43.335 294.526 43.9892C295.234 44.6435 295.589 45.5977 295.589 46.8517C295.589 48.0512 295.234 49.0053 294.526 49.7141C293.817 50.3684 292.808 50.6955 291.5 50.6955H282.831V67.5429C282.831 70.16 283.403 72.1228 284.548 73.4313C285.693 74.7399 287.547 75.3941 290.109 75.3941C291.036 75.3941 291.854 75.3123 292.563 75.1488C293.272 74.9852 293.899 74.8762 294.444 74.8216C295.098 74.7671 295.643 74.9852 296.079 75.4759C296.516 75.9121 296.734 76.839 296.734 78.2566C296.734 79.347 296.543 80.3284 296.161 81.2008C295.834 82.0186 295.207 82.5911 294.28 82.9182C293.571 83.1363 292.645 83.3271 291.5 83.4907C290.355 83.7088 289.346 83.8178 288.474 83.8178ZM314.709 83.8178C311.819 83.8178 309.229 83.2726 306.939 82.1822C304.704 81.0372 302.932 79.5106 301.623 77.6023C300.369 75.694 299.742 73.5404 299.742 71.1414C299.742 68.1972 300.506 65.88 302.032 64.1898C303.559 62.4451 306.04 61.1911 309.475 60.4277C312.91 59.6644 317.517 59.2828 323.296 59.2828H327.385V65.1712H323.378C319.998 65.1712 317.299 65.3348 315.281 65.6619C313.264 65.989 311.819 66.5615 310.947 67.3793C310.129 68.1427 309.72 69.2331 309.72 70.6507C309.72 72.4499 310.347 73.922 311.601 75.067C312.855 76.212 314.6 76.7844 316.835 76.7844C318.634 76.7844 320.216 76.3755 321.579 75.5577C322.996 74.6853 324.114 73.5131 324.932 72.041C325.75 70.5689 326.159 68.8787 326.159 66.9704V57.5653C326.159 54.8392 325.559 52.8764 324.359 51.6769C323.16 50.4774 321.142 49.8777 318.307 49.8777C316.726 49.8777 315.009 50.0685 313.155 50.4501C311.356 50.8318 309.447 51.4861 307.43 52.4129C306.394 52.9037 305.467 53.04 304.649 52.8219C303.886 52.6038 303.286 52.1676 302.85 51.5133C302.414 50.8045 302.196 50.0412 302.196 49.2234C302.196 48.4056 302.414 47.615 302.85 46.8517C303.286 46.0338 304.022 45.4341 305.058 45.0524C307.566 44.0165 309.965 43.2805 312.255 42.8443C314.6 42.4081 316.726 42.19 318.634 42.19C322.56 42.19 325.777 42.7898 328.285 43.9892C330.847 45.1887 332.756 47.0152 334.01 49.4687C335.264 51.8677 335.891 54.9755 335.891 58.7921V78.4201C335.891 80.1103 335.482 81.4189 334.664 82.3457C333.846 83.2181 332.674 83.6543 331.147 83.6543C329.621 83.6543 328.421 83.2181 327.549 82.3457C326.731 81.4189 326.322 80.1103 326.322 78.4201V74.4945H326.976C326.595 76.4028 325.831 78.0657 324.686 79.4833C323.596 80.8464 322.206 81.9096 320.515 82.6729C318.825 83.4362 316.89 83.8178 314.709 83.8178ZM305.713 35.4838C304.895 35.4292 304.268 35.1566 303.832 34.6659C303.395 34.1752 303.286 33.4119 303.505 32.376C303.723 31.231 304.05 30.1133 304.486 29.0229C304.977 27.8779 305.604 26.842 306.367 25.9151C307.13 24.9882 308.057 24.2521 309.148 23.7069C310.238 23.1072 311.519 22.8073 312.991 22.8073C314.354 22.8073 315.554 23.0799 316.59 23.6251C317.626 24.1704 318.58 24.7974 319.452 25.5062C320.325 26.2149 321.197 26.842 322.069 27.3872C322.942 27.9324 323.896 28.205 324.932 28.205C326.077 28.205 327.058 27.8234 327.876 27.06C328.748 26.2422 329.294 25.2335 329.512 24.0341C329.621 23.4343 329.893 22.9709 330.33 22.6437C330.82 22.3166 331.502 22.1803 332.374 22.2348C333.192 22.2893 333.819 22.562 334.255 23.0527C334.691 23.5434 334.8 24.3067 334.582 25.3426C334.31 26.8147 333.792 28.2868 333.028 29.7589C332.265 31.231 331.229 32.4578 329.921 33.4392C328.667 34.4206 327.058 34.9113 325.095 34.9113C323.732 34.9113 322.533 34.6387 321.497 34.0934C320.461 33.5482 319.48 32.9212 318.553 32.2124C317.68 31.5036 316.808 30.8766 315.936 30.3314C315.063 29.7862 314.136 29.5136 313.155 29.5136C312.01 29.5136 311.029 29.8952 310.211 30.6585C309.393 31.4218 308.848 32.4305 308.575 33.6845C308.466 34.2843 308.166 34.7477 307.675 35.0748C307.239 35.402 306.585 35.5383 305.713 35.4838ZM364.505 83.8178C360.361 83.8178 356.763 82.9727 353.709 81.2825C350.656 79.5924 348.284 77.1934 346.594 74.0856C344.904 70.9233 344.059 67.2158 344.059 62.963C344.059 59.7462 344.522 56.8838 345.449 54.3758C346.431 51.8132 347.821 49.6323 349.62 47.8331C351.419 45.9793 353.573 44.589 356.081 43.6621C358.589 42.6807 361.397 42.19 364.505 42.19C368.649 42.19 372.247 43.0351 375.3 44.7253C378.354 46.4155 380.725 48.8145 382.415 51.9222C384.106 55.03 384.951 58.7103 384.951 62.963C384.951 66.1798 384.46 69.0695 383.479 71.6321C382.552 74.1946 381.189 76.4028 379.389 78.2566C377.59 80.0558 375.437 81.4461 372.929 82.4275C370.421 83.3544 367.613 83.8178 364.505 83.8178ZM364.505 76.0484C366.522 76.0484 368.294 75.5577 369.821 74.5763C371.347 73.5949 372.52 72.15 373.337 70.2418C374.21 68.279 374.646 65.8527 374.646 62.963C374.646 58.6012 373.719 55.3572 371.865 53.2308C370.012 51.0499 367.558 49.9594 364.505 49.9594C362.488 49.9594 360.716 50.4501 359.189 51.4315C357.662 52.3584 356.463 53.8033 355.59 55.7661C354.773 57.6744 354.364 60.0733 354.364 62.963C354.364 67.2703 355.291 70.5416 357.144 72.7771C358.998 74.958 361.452 76.0484 364.505 76.0484ZM25.0258 195.818C20.5004 195.818 16.6021 194.973 13.3307 193.283C10.0594 191.592 7.52409 189.193 5.72485 186.086C3.98013 182.978 3.10778 179.298 3.10778 175.045C3.10778 170.901 3.95287 167.275 5.64307 164.168C7.38778 161.06 9.7595 158.634 12.7582 156.889C15.8115 155.09 19.2737 154.19 23.1447 154.19C25.9799 154.19 28.5152 154.653 30.7506 155.58C33.0406 156.507 34.9761 157.843 36.5573 159.588C38.1929 161.332 39.4197 163.459 40.2375 165.967C41.1099 168.42 41.546 171.201 41.546 174.309C41.546 175.29 41.1917 176.053 40.4829 176.599C39.8286 177.089 38.8745 177.335 37.6204 177.335H11.3679V171.446H34.3491L33.0406 172.673C33.0406 170.165 32.6589 168.066 31.8956 166.376C31.1868 164.686 30.1236 163.404 28.706 162.532C27.343 161.605 25.6255 161.142 23.5537 161.142C21.2637 161.142 19.3009 161.687 17.6652 162.777C16.0841 163.813 14.8573 165.313 13.985 167.275C13.1672 169.184 12.7582 171.474 12.7582 174.145V174.718C12.7582 179.189 13.7942 182.542 15.866 184.777C17.9924 186.958 21.1002 188.048 25.1893 188.048C26.6069 188.048 28.1881 187.885 29.9328 187.558C31.732 187.176 33.4222 186.549 35.0034 185.677C36.1483 185.022 37.157 184.75 38.0294 184.859C38.9017 184.913 39.5832 185.213 40.0739 185.758C40.6192 186.304 40.9463 186.985 41.0553 187.803C41.1644 188.566 41.0008 189.357 40.5646 190.175C40.183 190.993 39.5015 191.701 38.5201 192.301C36.6118 193.501 34.4036 194.4 31.8956 195C29.4421 195.545 27.1521 195.818 25.0258 195.818ZM64.2812 195.818C61.9368 195.818 59.456 195.572 56.8389 195.082C54.2219 194.591 51.8774 193.746 49.8055 192.546C48.9332 192.001 48.3062 191.374 47.9245 190.665C47.5974 189.902 47.4611 189.166 47.5156 188.457C47.6246 187.694 47.8973 187.04 48.3334 186.495C48.8241 185.949 49.4239 185.595 50.1327 185.431C50.896 185.268 51.7138 185.404 52.5862 185.84C54.7671 186.876 56.8117 187.612 58.72 188.048C60.6282 188.43 62.5093 188.621 64.363 188.621C66.9801 188.621 68.9156 188.185 70.1697 187.312C71.4782 186.385 72.1325 185.186 72.1325 183.714C72.1325 182.46 71.6963 181.506 70.8239 180.851C70.0061 180.143 68.7521 179.625 67.0619 179.298L58.8835 177.744C55.5031 177.089 52.9133 175.863 51.1141 174.063C49.3694 172.21 48.497 169.838 48.497 166.948C48.497 164.331 49.2058 162.068 50.6234 160.16C52.0955 158.252 54.1128 156.78 56.6754 155.744C59.2379 154.708 62.1821 154.19 65.508 154.19C67.907 154.19 70.1424 154.463 72.2142 155.008C74.3406 155.499 76.3852 156.289 78.348 157.38C79.1658 157.816 79.7111 158.388 79.9837 159.097C80.3108 159.806 80.3926 160.542 80.229 161.305C80.0655 162.014 79.7383 162.668 79.2476 163.268C78.7569 163.813 78.1299 164.168 77.3666 164.331C76.6578 164.44 75.84 164.277 74.9131 163.84C73.2229 162.968 71.5872 162.341 70.0061 161.959C68.4795 161.578 67.0074 161.387 65.5898 161.387C62.9182 161.387 60.9281 161.85 59.6196 162.777C58.3656 163.704 57.7385 164.931 57.7385 166.458C57.7385 167.603 58.1202 168.557 58.8835 169.32C59.6468 170.083 60.8191 170.601 62.4002 170.874L70.5786 172.428C74.1225 173.082 76.7941 174.281 78.5934 176.026C80.4471 177.771 81.374 180.115 81.374 183.06C81.374 187.04 79.8201 190.175 76.7123 192.465C73.6046 194.7 69.4609 195.818 64.2812 195.818ZM94.6459 210.375C93.0103 210.375 91.7562 209.939 90.8839 209.067C90.0115 208.194 89.5754 206.913 89.5754 205.223V159.506C89.5754 157.816 90.0115 156.534 90.8839 155.662C91.7562 154.79 92.983 154.354 94.5642 154.354C96.1998 154.354 97.4538 154.79 98.3262 155.662C99.1986 156.534 99.6347 157.816 99.6347 159.506V165.885L98.7351 163.432C99.5529 160.651 101.216 158.415 103.724 156.725C106.286 155.035 109.258 154.19 112.638 154.19C116.128 154.19 119.181 155.035 121.798 156.725C124.47 158.415 126.542 160.814 128.014 163.922C129.486 166.976 130.222 170.656 130.222 174.963C130.222 179.216 129.486 182.923 128.014 186.086C126.542 189.193 124.497 191.592 121.88 193.283C119.263 194.973 116.182 195.818 112.638 195.818C109.312 195.818 106.396 195 103.887 193.364C101.379 191.674 99.6893 189.493 98.8169 186.822H99.7983V205.223C99.7983 206.913 99.3349 208.194 98.408 209.067C97.5356 209.939 96.2816 210.375 94.6459 210.375ZM109.776 188.048C111.793 188.048 113.565 187.558 115.092 186.576C116.618 185.595 117.791 184.15 118.609 182.242C119.481 180.279 119.917 177.853 119.917 174.963C119.917 170.601 118.99 167.357 117.136 165.231C115.283 163.05 112.829 161.959 109.776 161.959C107.759 161.959 105.987 162.45 104.46 163.432C102.933 164.358 101.734 165.803 100.861 167.766C100.044 169.674 99.6347 172.073 99.6347 174.963C99.6347 179.27 100.562 182.542 102.415 184.777C104.269 186.958 106.723 188.048 109.776 188.048ZM158.323 195.818C153.798 195.818 149.9 194.973 146.628 193.283C143.357 191.592 140.822 189.193 139.022 186.086C137.278 182.978 136.405 179.298 136.405 175.045C136.405 170.901 137.25 167.275 138.941 164.168C140.685 161.06 143.057 158.634 146.056 156.889C149.109 155.09 152.571 154.19 156.442 154.19C159.278 154.19 161.813 154.653 164.048 155.58C166.338 156.507 168.274 157.843 169.855 159.588C171.491 161.332 172.717 163.459 173.535 165.967C174.407 168.42 174.844 171.201 174.844 174.309C174.844 175.29 174.489 176.053 173.78 176.599C173.126 177.089 172.172 177.335 170.918 177.335H144.666V171.446H167.647L166.338 172.673C166.338 170.165 165.957 168.066 165.193 166.376C164.484 164.686 163.421 163.404 162.004 162.532C160.641 161.605 158.923 161.142 156.851 161.142C154.561 161.142 152.599 161.687 150.963 162.777C149.382 163.813 148.155 165.313 147.283 167.275C146.465 169.184 146.056 171.474 146.056 174.145V174.718C146.056 179.189 147.092 182.542 149.164 184.777C151.29 186.958 154.398 188.048 158.487 188.048C159.905 188.048 161.486 187.885 163.23 187.558C165.03 187.176 166.72 186.549 168.301 185.677C169.446 185.022 170.455 184.75 171.327 184.859C172.199 184.913 172.881 185.213 173.372 185.758C173.917 186.304 174.244 186.985 174.353 187.803C174.462 188.566 174.298 189.357 173.862 190.175C173.481 190.993 172.799 191.701 171.818 192.301C169.909 193.501 167.701 194.4 165.193 195C162.74 195.545 160.45 195.818 158.323 195.818ZM188.174 195.654C186.484 195.654 185.175 195.218 184.248 194.346C183.376 193.419 182.94 192.11 182.94 190.42V159.506C182.94 157.816 183.376 156.534 184.248 155.662C185.12 154.79 186.347 154.354 187.928 154.354C189.51 154.354 190.736 154.79 191.609 155.662C192.481 156.534 192.917 157.816 192.917 159.506V164.658H192.099C192.863 161.387 194.362 158.906 196.597 157.216C198.833 155.526 201.804 154.517 205.512 154.19C206.657 154.081 207.556 154.381 208.211 155.09C208.919 155.744 209.328 156.78 209.437 158.197C209.547 159.56 209.219 160.678 208.456 161.551C207.747 162.368 206.657 162.859 205.185 163.023L203.385 163.186C200.06 163.513 197.552 164.549 195.861 166.294C194.171 167.984 193.326 170.383 193.326 173.491V190.42C193.326 192.11 192.89 193.419 192.018 194.346C191.145 195.218 189.864 195.654 188.174 195.654ZM227.734 195.818C224.844 195.818 222.254 195.273 219.965 194.182C217.729 193.037 215.957 191.511 214.649 189.602C213.395 187.694 212.768 185.54 212.768 183.141C212.768 180.197 213.531 177.88 215.058 176.19C216.584 174.445 219.065 173.191 222.5 172.428C225.935 171.664 230.542 171.283 236.321 171.283H240.41V177.171H236.403C233.023 177.171 230.324 177.335 228.306 177.662C226.289 177.989 224.844 178.562 223.972 179.379C223.154 180.143 222.745 181.233 222.745 182.651C222.745 184.45 223.372 185.922 224.626 187.067C225.88 188.212 227.625 188.784 229.86 188.784C231.66 188.784 233.241 188.376 234.604 187.558C236.021 186.685 237.139 185.513 237.957 184.041C238.775 182.569 239.184 180.879 239.184 178.97V169.565C239.184 166.839 238.584 164.876 237.384 163.677C236.185 162.477 234.168 161.878 231.332 161.878C229.751 161.878 228.034 162.068 226.18 162.45C224.381 162.832 222.473 163.486 220.455 164.413C219.419 164.904 218.492 165.04 217.675 164.822C216.911 164.604 216.312 164.168 215.875 163.513C215.439 162.805 215.221 162.041 215.221 161.223C215.221 160.406 215.439 159.615 215.875 158.852C216.312 158.034 217.048 157.434 218.084 157.052C220.592 156.017 222.991 155.28 225.28 154.844C227.625 154.408 229.751 154.19 231.66 154.19C235.585 154.19 238.802 154.79 241.31 155.989C243.873 157.189 245.781 159.015 247.035 161.469C248.289 163.868 248.916 166.976 248.916 170.792V190.42C248.916 192.11 248.507 193.419 247.689 194.346C246.871 195.218 245.699 195.654 244.172 195.654C242.646 195.654 241.446 195.218 240.574 194.346C239.756 193.419 239.347 192.11 239.347 190.42V186.495H240.002C239.62 188.403 238.857 190.066 237.712 191.483C236.621 192.846 235.231 193.91 233.541 194.673C231.85 195.436 229.915 195.818 227.734 195.818ZM264.363 195.654C262.727 195.654 261.473 195.218 260.601 194.346C259.728 193.419 259.292 192.11 259.292 190.42V159.506C259.292 157.816 259.728 156.534 260.601 155.662C261.473 154.79 262.7 154.354 264.281 154.354C265.862 154.354 267.089 154.79 267.961 155.662C268.834 156.534 269.27 157.816 269.27 159.506V165.067L268.37 163.023C269.57 160.133 271.423 157.952 273.931 156.48C276.494 154.953 279.384 154.19 282.601 154.19C285.817 154.19 288.462 154.79 290.534 155.989C292.605 157.189 294.159 159.015 295.195 161.469C296.231 163.868 296.749 166.921 296.749 170.629V190.42C296.749 192.11 296.313 193.419 295.441 194.346C294.568 195.218 293.314 195.654 291.678 195.654C290.043 195.654 288.762 195.218 287.835 194.346C286.962 193.419 286.526 192.11 286.526 190.42V171.119C286.526 168.011 285.926 165.749 284.727 164.331C283.582 162.914 281.783 162.205 279.329 162.205C276.33 162.205 273.931 163.159 272.132 165.067C270.388 166.921 269.515 169.402 269.515 172.51V190.42C269.515 193.91 267.798 195.654 264.363 195.654ZM322.508 195.818C319.018 195.818 315.938 194.973 313.266 193.283C310.649 191.592 308.604 189.193 307.132 186.086C305.66 182.923 304.924 179.216 304.924 174.963C304.924 170.656 305.66 166.976 307.132 163.922C308.604 160.814 310.649 158.415 313.266 156.725C315.938 155.035 319.018 154.19 322.508 154.19C325.834 154.19 328.723 155.008 331.177 156.644C333.685 158.279 335.375 160.433 336.247 163.104H335.348V141.841C335.348 140.15 335.784 138.869 336.656 137.997C337.529 137.125 338.783 136.688 340.418 136.688C342.054 136.688 343.308 137.125 344.18 137.997C345.107 138.869 345.571 140.15 345.571 141.841V190.42C345.571 192.11 345.134 193.419 344.262 194.346C343.39 195.218 342.136 195.654 340.5 195.654C338.864 195.654 337.61 195.218 336.738 194.346C335.866 193.419 335.429 192.11 335.429 190.42V184.041L336.329 186.495C335.511 189.33 333.848 191.592 331.34 193.283C328.832 194.973 325.888 195.818 322.508 195.818ZM325.37 188.048C327.387 188.048 329.159 187.558 330.686 186.576C332.213 185.595 333.385 184.15 334.203 182.242C335.075 180.279 335.511 177.853 335.511 174.963C335.511 170.601 334.584 167.357 332.731 165.231C330.877 163.05 328.423 161.959 325.37 161.959C323.353 161.959 321.581 162.45 320.054 163.432C318.528 164.358 317.328 165.803 316.456 167.766C315.638 169.674 315.229 172.073 315.229 174.963C315.229 179.27 316.156 182.542 318.01 184.777C319.863 186.958 322.317 188.048 325.37 188.048ZM374.408 195.818C370.265 195.818 366.666 194.973 363.613 193.283C360.56 191.592 358.188 189.193 356.498 186.086C354.808 182.923 353.962 179.216 353.962 174.963C353.962 171.746 354.426 168.884 355.353 166.376C356.334 163.813 357.724 161.632 359.524 159.833C361.323 157.979 363.477 156.589 365.985 155.662C368.493 154.681 371.301 154.19 374.408 154.19C378.552 154.19 382.15 155.035 385.204 156.725C388.257 158.415 390.629 160.814 392.319 163.922C394.009 167.03 394.854 170.71 394.854 174.963C394.854 178.18 394.363 181.07 393.382 183.632C392.455 186.195 391.092 188.403 389.293 190.257C387.494 192.056 385.34 193.446 382.832 194.428C380.324 195.354 377.516 195.818 374.408 195.818ZM374.408 188.048C376.426 188.048 378.198 187.558 379.724 186.576C381.251 185.595 382.423 184.15 383.241 182.242C384.113 180.279 384.549 177.853 384.549 174.963C384.549 170.601 383.623 167.357 381.769 165.231C379.915 163.05 377.462 161.959 374.408 161.959C372.391 161.959 370.619 162.45 369.092 163.432C367.566 164.358 366.366 165.803 365.494 167.766C364.676 169.674 364.267 172.073 364.267 174.963C364.267 179.27 365.194 182.542 367.048 184.777C368.902 186.958 371.355 188.048 374.408 188.048ZM10.3865 322.375C8.75084 322.375 7.49683 321.939 6.62447 321.067C5.75211 320.194 5.31593 318.913 5.31593 317.223V271.506C5.31593 269.816 5.75211 268.534 6.62447 267.662C7.49683 266.79 8.72358 266.354 10.3047 266.354C11.9404 266.354 13.1944 266.79 14.0668 267.662C14.9391 268.534 15.3753 269.816 15.3753 271.506V277.885L14.4757 275.432C15.2935 272.651 16.9565 270.415 19.4645 268.725C22.027 267.035 24.9985 266.19 28.3789 266.19C31.8683 266.19 34.9216 267.035 37.5387 268.725C40.2102 270.415 42.2821 272.814 43.7542 275.922C45.2263 278.976 45.9624 282.656 45.9624 286.963C45.9624 291.216 45.2263 294.923 43.7542 298.086C42.2821 301.193 40.2375 303.592 37.6204 305.283C35.0034 306.973 31.9228 307.818 28.3789 307.818C25.053 307.818 22.1361 307 19.6281 305.364C17.12 303.674 15.4298 301.493 14.5575 298.822H15.5389V317.223C15.5389 318.913 15.0754 320.194 14.1486 321.067C13.2762 321.939 12.0222 322.375 10.3865 322.375ZM25.5165 300.048C27.5338 300.048 29.3058 299.558 30.8324 298.576C32.359 297.595 33.5313 296.15 34.3491 294.242C35.2215 292.279 35.6576 289.853 35.6576 286.963C35.6576 282.601 34.7308 279.357 32.877 277.231C31.0232 275.05 28.5697 273.959 25.5165 273.959C23.4991 273.959 21.7272 274.45 20.2005 275.432C18.6739 276.358 17.4744 277.803 16.6021 279.766C15.7842 281.674 15.3753 284.073 15.3753 286.963C15.3753 291.27 16.3022 294.542 18.156 296.777C20.0097 298.958 22.4632 300.048 25.5165 300.048ZM72.5919 307.818C68.4481 307.818 64.8497 306.973 61.7964 305.283C58.7432 303.592 56.3714 301.193 54.6813 298.086C52.9911 294.923 52.146 291.216 52.146 286.963C52.146 283.746 52.6094 280.884 53.5363 278.376C54.5177 275.813 55.908 273.632 57.7072 271.833C59.5065 269.979 61.6601 268.589 64.1681 267.662C66.6762 266.681 69.4841 266.19 72.5919 266.19C76.7356 266.19 80.334 267.035 83.3873 268.725C86.4405 270.415 88.8123 272.814 90.5024 275.922C92.1926 279.03 93.0377 282.71 93.0377 286.963C93.0377 290.18 92.547 293.07 91.5656 295.632C90.6388 298.195 89.2757 300.403 87.4765 302.257C85.6772 304.056 83.5236 305.446 81.0156 306.428C78.5075 307.354 75.6996 307.818 72.5919 307.818ZM72.5919 300.048C74.6092 300.048 76.3812 299.558 77.9078 298.576C79.4344 297.595 80.6066 296.15 81.4245 294.242C82.2968 292.279 82.733 289.853 82.733 286.963C82.733 282.601 81.8061 279.357 79.9524 277.231C78.0986 275.05 75.6451 273.959 72.5919 273.959C70.5745 273.959 68.8025 274.45 67.2759 275.432C65.7493 276.358 64.5498 277.803 63.6774 279.766C62.8596 281.674 62.4507 284.073 62.4507 286.963C62.4507 291.27 63.3776 294.542 65.2313 296.777C67.0851 298.958 69.5386 300.048 72.5919 300.048ZM106.71 307.654C105.019 307.654 103.711 307.218 102.784 306.346C101.912 305.419 101.476 304.11 101.476 302.42V271.506C101.476 269.816 101.912 268.534 102.784 267.662C103.656 266.79 104.883 266.354 106.464 266.354C108.045 266.354 109.272 266.79 110.145 267.662C111.017 268.534 111.453 269.816 111.453 271.506V276.658H110.635C111.399 273.387 112.898 270.906 115.133 269.216C117.369 267.526 120.34 266.517 124.048 266.19C125.193 266.081 126.092 266.381 126.747 267.09C127.455 267.744 127.864 268.78 127.973 270.197C128.082 271.56 127.755 272.678 126.992 273.551C126.283 274.368 125.193 274.859 123.721 275.023L121.921 275.186C118.596 275.513 116.087 276.549 114.397 278.294C112.707 279.984 111.862 282.383 111.862 285.491V302.42C111.862 304.11 111.426 305.419 110.553 306.346C109.681 307.218 108.4 307.654 106.71 307.654Z" fill="white"/>
<path d="M171.898 307.654C170.535 307.654 169.336 307.3 168.3 306.591C167.318 305.882 166.5 304.792 165.846 303.32L152.843 273.142C152.352 271.942 152.161 270.824 152.27 269.788C152.434 268.753 152.924 267.935 153.742 267.335C154.615 266.681 155.787 266.354 157.259 266.354C158.513 266.354 159.522 266.653 160.285 267.253C161.048 267.798 161.73 268.862 162.329 270.443L173.37 298.004H170.917L182.285 270.361C182.884 268.834 183.566 267.798 184.329 267.253C185.147 266.653 186.238 266.354 187.601 266.354C188.8 266.354 189.754 266.681 190.463 267.335C191.172 267.935 191.608 268.753 191.772 269.788C191.935 270.77 191.744 271.86 191.199 273.06L177.95 303.32C177.35 304.792 176.533 305.882 175.497 306.591C174.515 307.3 173.316 307.654 171.898 307.654ZM216.272 307.818C212.128 307.818 208.53 306.973 205.477 305.283C202.423 303.592 200.052 301.193 198.362 298.086C196.671 294.923 195.826 291.216 195.826 286.963C195.826 283.746 196.29 280.884 197.217 278.376C198.198 275.813 199.588 273.632 201.388 271.833C203.187 269.979 205.34 268.589 207.848 267.662C210.356 266.681 213.164 266.19 216.272 266.19C220.416 266.19 224.014 267.035 227.068 268.725C230.121 270.415 232.493 272.814 234.183 275.922C235.873 279.03 236.718 282.71 236.718 286.963C236.718 290.18 236.227 293.07 235.246 295.632C234.319 298.195 232.956 300.403 231.157 302.257C229.358 304.056 227.204 305.446 224.696 306.428C222.188 307.354 219.38 307.818 216.272 307.818ZM216.272 300.048C218.289 300.048 220.061 299.558 221.588 298.576C223.115 297.595 224.287 296.15 225.105 294.242C225.977 292.279 226.413 289.853 226.413 286.963C226.413 282.601 225.486 279.357 223.633 277.231C221.779 275.05 219.325 273.959 216.272 273.959C214.255 273.959 212.483 274.45 210.956 275.432C209.43 276.358 208.23 277.803 207.358 279.766C206.54 281.674 206.131 284.073 206.131 286.963C206.131 291.27 207.058 294.542 208.912 296.777C210.765 298.958 213.219 300.048 216.272 300.048ZM263.639 307.818C259.441 307.818 255.788 306.973 252.68 305.283C249.572 303.538 247.173 301.084 245.483 297.922C243.793 294.76 242.948 291.052 242.948 286.799C242.948 283.583 243.411 280.72 244.338 278.212C245.319 275.65 246.71 273.496 248.509 271.751C250.308 269.952 252.489 268.589 255.052 267.662C257.614 266.681 260.477 266.19 263.639 266.19C265.438 266.19 267.374 266.435 269.446 266.926C271.572 267.417 273.562 268.235 275.416 269.38C276.288 269.925 276.861 270.579 277.133 271.342C277.406 272.106 277.46 272.896 277.297 273.714C277.133 274.477 276.779 275.159 276.234 275.759C275.743 276.304 275.116 276.658 274.353 276.822C273.589 276.931 272.744 276.74 271.817 276.249C270.618 275.541 269.391 275.023 268.137 274.695C266.883 274.314 265.683 274.123 264.538 274.123C262.739 274.123 261.158 274.423 259.795 275.023C258.432 275.568 257.26 276.386 256.278 277.476C255.351 278.512 254.643 279.821 254.152 281.402C253.661 282.983 253.416 284.809 253.416 286.881C253.416 290.916 254.37 294.105 256.278 296.45C258.241 298.74 260.995 299.885 264.538 299.885C265.683 299.885 266.856 299.721 268.055 299.394C269.309 299.067 270.563 298.549 271.817 297.84C272.744 297.35 273.562 297.186 274.271 297.35C275.034 297.513 275.661 297.895 276.152 298.495C276.642 299.04 276.942 299.721 277.051 300.539C277.16 301.302 277.051 302.066 276.724 302.829C276.452 303.592 275.906 304.219 275.089 304.71C273.289 305.801 271.381 306.591 269.364 307.082C267.346 307.572 265.438 307.818 263.639 307.818ZM302.643 307.818C298.117 307.818 294.219 306.973 290.948 305.283C287.676 303.592 285.141 301.193 283.342 298.086C281.597 294.978 280.725 291.298 280.725 287.045C280.725 282.901 281.57 279.275 283.26 276.168C285.005 273.06 287.376 270.634 290.375 268.889C293.428 267.09 296.89 266.19 300.762 266.19C303.597 266.19 306.132 266.653 308.367 267.58C310.657 268.507 312.593 269.843 314.174 271.588C315.81 273.332 317.036 275.459 317.854 277.967C318.727 280.42 319.163 283.201 319.163 286.309C319.163 287.29 318.808 288.053 318.1 288.599C317.445 289.089 316.491 289.335 315.237 289.335H288.985V283.446H311.966L310.657 284.673C310.657 282.165 310.276 280.066 309.512 278.376C308.804 276.686 307.74 275.404 306.323 274.532C304.96 273.605 303.242 273.142 301.17 273.142C298.881 273.142 296.918 273.687 295.282 274.777C293.701 275.813 292.474 277.313 291.602 279.275C290.784 281.184 290.375 283.474 290.375 286.145V286.718C290.375 291.189 291.411 294.542 293.483 296.777C295.609 298.958 298.717 300.048 302.806 300.048C304.224 300.048 305.805 299.885 307.55 299.558C309.349 299.176 311.039 298.549 312.62 297.677C313.765 297.022 314.774 296.75 315.646 296.859C316.519 296.913 317.2 297.213 317.691 297.758C318.236 298.304 318.563 298.985 318.672 299.803C318.781 300.566 318.618 301.357 318.181 302.175C317.8 302.993 317.118 303.701 316.137 304.301C314.229 305.501 312.02 306.4 309.512 307C307.059 307.545 304.769 307.818 302.643 307.818ZM312.457 258.175C312.947 259.048 313.056 259.838 312.784 260.547C312.511 261.256 312.048 261.801 311.393 262.183C310.739 262.51 310.03 262.619 309.267 262.51C308.558 262.401 307.959 261.965 307.468 261.201L300.843 250.896L294.219 261.201C293.728 261.965 293.101 262.401 292.338 262.51C291.629 262.619 290.948 262.51 290.293 262.183C289.639 261.801 289.176 261.256 288.903 260.547C288.63 259.838 288.739 259.048 289.23 258.175L295.119 247.38C295.773 246.126 296.563 245.199 297.49 244.599C298.472 243.999 299.589 243.7 300.843 243.7C302.097 243.7 303.215 243.999 304.196 244.599C305.178 245.199 305.996 246.126 306.65 247.38L312.457 258.175ZM332.166 307.409C330.312 307.409 328.813 306.836 327.668 305.691C326.577 304.546 326.032 303.074 326.032 301.275C326.032 299.53 326.577 298.113 327.668 297.022C328.813 295.877 330.312 295.305 332.166 295.305C334.074 295.305 335.546 295.877 336.582 297.022C337.673 298.113 338.218 299.53 338.218 301.275C338.218 303.074 337.673 304.546 336.582 305.691C335.546 306.836 334.074 307.409 332.166 307.409Z" fill="#F77F00"/>
</svg>
