<svg width="694" height="336" viewBox="0 0 694 336" fill="none" xmlns="http://www.w3.org/2000/svg">
<rect x="1" y="233" width="427" height="103" fill="white"/>
<rect x="1" width="253" height="100" fill="white"/>
<path d="M12.5315 83.6543C10.8413 83.6543 9.53275 83.1908 8.60587 82.2639C7.73351 81.2825 7.29733 79.9467 7.29733 78.2566V30.086C7.29733 28.3413 7.73351 27.0055 8.60587 26.0786C9.53275 25.1518 10.8413 24.6883 12.5315 24.6883C14.2217 24.6883 15.503 25.1518 16.3753 26.0786C17.3022 27.0055 17.7656 28.3413 17.7656 30.086V49.387H47.4531V30.086C47.4531 28.3413 47.8892 27.0055 48.7616 26.0786C49.6885 25.1518 50.997 24.6883 52.6872 24.6883C54.3774 24.6883 55.6587 25.1518 56.531 26.0786C57.4579 27.0055 57.9214 28.3413 57.9214 30.086V78.2566C57.9214 79.9467 57.4579 81.2825 56.531 82.2639C55.6587 83.1908 54.3774 83.6543 52.6872 83.6543C50.997 83.6543 49.6885 83.1908 48.7616 82.2639C47.8892 81.2825 47.4531 79.9467 47.4531 78.2566V58.1378H17.7656V78.2566C17.7656 79.9467 17.3295 81.2825 16.4571 82.2639C15.5847 83.1908 14.2762 83.6543 12.5315 83.6543ZM89.2802 83.8178C84.7549 83.8178 80.8565 82.9727 77.5852 81.2825C74.3138 79.5924 71.7786 77.1934 69.9793 74.0856C68.2346 70.9778 67.3622 67.2976 67.3622 63.0448C67.3622 58.9011 68.2073 55.2754 69.8975 52.1676C71.6422 49.0598 74.014 46.6336 77.0127 44.8889C80.066 43.0896 83.5281 42.19 87.3992 42.19C90.2344 42.19 92.7697 42.6534 95.0051 43.5803C97.295 44.5072 99.2306 45.843 100.812 47.5877C102.447 49.3324 103.674 51.4588 104.492 53.9668C105.364 56.4203 105.801 59.201 105.801 62.3088C105.801 63.2902 105.446 64.0535 104.737 64.5987C104.083 65.0894 103.129 65.3348 101.875 65.3348H75.6224V59.4463H98.6036L97.295 60.6731C97.295 58.1651 96.9134 56.0659 96.1501 54.3758C95.4413 52.6856 94.3781 51.4043 92.9605 50.5319C91.5974 49.605 89.88 49.1416 87.8081 49.1416C85.5182 49.1416 83.5554 49.6868 81.9197 50.7773C80.3386 51.8132 79.1118 53.3126 78.2395 55.2754C77.4216 57.1837 77.0127 59.4736 77.0127 62.1452V62.7177C77.0127 67.1885 78.0486 70.5416 80.1205 72.7771C82.2468 74.958 85.3546 76.0484 89.4438 76.0484C90.8614 76.0484 92.4425 75.8848 94.1872 75.5577C95.9865 75.176 97.6767 74.549 99.2578 73.6767C100.403 73.0224 101.411 72.7498 102.284 72.8588C103.156 72.9134 103.838 73.2132 104.328 73.7585C104.874 74.3037 105.201 74.9852 105.31 75.803C105.419 76.5664 105.255 77.3569 104.819 78.1748C104.437 78.9926 103.756 79.7014 102.775 80.3011C100.866 81.5006 98.6581 82.4003 96.1501 83C93.6965 83.5452 91.4066 83.8178 89.2802 83.8178ZM119.131 83.6543C117.44 83.6543 116.132 83.2181 115.205 82.3457C114.333 81.4189 113.896 80.1103 113.896 78.4201V47.5059C113.896 45.8157 114.333 44.5345 115.205 43.6621C116.077 42.7898 117.304 42.3536 118.885 42.3536C120.466 42.3536 121.693 42.7898 122.566 43.6621C123.438 44.5345 123.874 45.8157 123.874 47.5059V52.6583H123.056C123.82 49.387 125.319 46.9062 127.554 45.216C129.79 43.5258 132.761 42.5171 136.469 42.19C137.614 42.081 138.513 42.3808 139.168 43.0896C139.876 43.7439 140.285 44.7798 140.394 46.1974C140.503 47.5605 140.176 48.6782 139.413 49.5505C138.704 50.3684 137.614 50.8591 136.142 51.0226L134.342 51.1862C131.016 51.5133 128.508 52.5493 126.818 54.294C125.128 55.9842 124.283 58.3831 124.283 61.4909V78.4201C124.283 80.1103 123.847 81.4189 122.974 82.3457C122.102 83.2181 120.821 83.6543 119.131 83.6543ZM163.522 83.8178C159.378 83.8178 155.78 82.9727 152.726 81.2825C149.673 79.5924 147.301 77.1934 145.611 74.0856C143.921 70.9233 143.076 67.2158 143.076 62.963C143.076 59.7462 143.539 56.8838 144.466 54.3758C145.448 51.8132 146.838 49.6323 148.637 47.8331C150.436 45.9793 152.59 44.589 155.098 43.6621C157.606 42.6807 160.414 42.19 163.522 42.19C167.666 42.19 171.264 43.0351 174.317 44.7253C177.37 46.4155 179.742 48.8145 181.432 51.9222C183.123 55.03 183.968 58.7103 183.968 62.963C183.968 66.1798 183.477 69.0695 182.496 71.6321C181.569 74.1946 180.206 76.4028 178.406 78.2566C176.607 80.0558 174.454 81.4461 171.946 82.4275C169.437 83.3544 166.63 83.8178 163.522 83.8178ZM163.522 76.0484C165.539 76.0484 167.311 75.5577 168.838 74.5763C170.364 73.5949 171.537 72.15 172.354 70.2418C173.227 68.279 173.663 65.8527 173.663 62.963C173.663 58.6012 172.736 55.3572 170.882 53.2308C169.029 51.0499 166.575 49.9594 163.522 49.9594C161.504 49.9594 159.732 50.4501 158.206 51.4315C156.679 52.3584 155.48 53.8033 154.607 55.7661C153.79 57.6744 153.381 60.0733 153.381 62.963C153.381 67.2703 154.308 70.5416 156.161 72.7771C158.015 74.958 160.469 76.0484 163.522 76.0484ZM167.366 37.2012C166.82 37.9645 166.166 38.4007 165.403 38.5097C164.64 38.6188 163.903 38.4825 163.195 38.1008C162.486 37.7192 161.968 37.1739 161.641 36.4652C161.368 35.7564 161.45 34.9658 161.886 34.0934L168.102 21.9077C168.592 20.8718 169.247 20.2175 170.064 19.9449C170.882 19.6177 171.727 19.5632 172.6 19.7813C173.472 19.9994 174.208 20.4083 174.808 21.0081C175.462 21.6078 175.844 22.3439 175.953 23.2162C176.116 24.0341 175.898 24.8792 175.299 25.7515L167.366 37.2012ZM197.476 83.5725C195.84 83.5725 194.586 83.0818 193.714 82.1004C192.842 81.119 192.405 79.7559 192.405 78.0112V47.9966C192.405 46.1974 192.842 44.8343 193.714 43.9075C194.586 42.9261 195.84 42.4354 197.476 42.4354C199.112 42.4354 200.366 42.9261 201.238 43.9075C202.165 44.8343 202.628 46.1974 202.628 47.9966V78.0112C202.628 79.7559 202.192 81.119 201.32 82.1004C200.448 83.0818 199.166 83.5725 197.476 83.5725ZM197.476 34.8295C195.568 34.8295 194.068 34.366 192.978 33.4392C191.942 32.4578 191.424 31.122 191.424 29.4318C191.424 27.6871 191.942 26.3513 192.978 25.4244C194.068 24.4975 195.568 24.0341 197.476 24.0341C199.439 24.0341 200.938 24.4975 201.974 25.4244C203.01 26.3513 203.528 27.6871 203.528 29.4318C203.528 31.122 203.01 32.4578 201.974 33.4392C200.938 34.366 199.439 34.8295 197.476 34.8295ZM227.89 83.8178C225.545 83.8178 223.065 83.5725 220.448 83.0818C217.831 82.5911 215.486 81.746 213.414 80.5465C212.542 80.0013 211.915 79.3743 211.533 78.6655C211.206 77.9022 211.07 77.1661 211.124 76.4573C211.233 75.694 211.506 75.0397 211.942 74.4945C212.433 73.9493 213.033 73.5949 213.741 73.4313C214.505 73.2678 215.323 73.4041 216.195 73.8402C218.376 74.8762 220.42 75.6122 222.329 76.0484C224.237 76.4301 226.118 76.6209 227.972 76.6209C230.589 76.6209 232.524 76.1847 233.778 75.3123C235.087 74.3855 235.741 73.186 235.741 71.7139C235.741 70.4599 235.305 69.5057 234.433 68.8514C233.615 68.1427 232.361 67.6247 230.671 67.2976L222.492 65.7437C219.112 65.0894 216.522 63.8626 214.723 62.0634C212.978 60.2096 212.106 57.8379 212.106 54.9482C212.106 52.3312 212.815 50.0685 214.232 48.1602C215.704 46.2519 217.722 44.7798 220.284 43.7439C222.847 42.708 225.791 42.19 229.117 42.19C231.516 42.19 233.751 42.4626 235.823 43.0078C237.949 43.4985 239.994 44.2891 241.957 45.3796C242.775 45.8157 243.32 46.3882 243.592 47.097C243.92 47.8058 244.001 48.5419 243.838 49.3052C243.674 50.014 243.347 50.6682 242.856 51.268C242.366 51.8132 241.739 52.1676 240.975 52.3312C240.267 52.4402 239.449 52.2766 238.522 51.8405C236.832 50.9681 235.196 50.3411 233.615 49.9594C232.088 49.5778 230.616 49.387 229.198 49.387C226.527 49.387 224.537 49.8504 223.228 50.7773C221.974 51.7042 221.347 52.9309 221.347 54.4575C221.347 55.6025 221.729 56.5567 222.492 57.32C223.256 58.0833 224.428 58.6012 226.009 58.8739L234.187 60.4277C237.731 61.082 240.403 62.2815 242.202 64.0262C244.056 65.7709 244.983 68.1154 244.983 71.0596C244.983 75.0397 243.429 78.1748 240.321 80.4647C237.213 82.7001 233.07 83.8178 227.89 83.8178Z" fill="#3746A4"/>
<path d="M293.707 83.8178C290.163 83.8178 287.191 83.2181 284.792 82.0186C282.448 80.8191 280.703 79.0744 279.558 76.7844C278.413 74.44 277.841 71.5503 277.841 68.1154V50.6955H273.588C272.279 50.6955 271.271 50.3684 270.562 49.7141C269.853 49.0053 269.499 48.0512 269.499 46.8517C269.499 45.5977 269.853 44.6435 270.562 43.9892C271.271 43.335 272.279 43.0078 273.588 43.0078H277.841V35.5655C277.841 33.8753 278.277 32.5941 279.149 31.7217C280.076 30.8494 281.357 30.4132 282.993 30.4132C284.629 30.4132 285.883 30.8494 286.755 31.7217C287.627 32.5941 288.063 33.8753 288.063 35.5655V43.0078H296.733C298.041 43.0078 299.05 43.335 299.759 43.9892C300.467 44.6435 300.822 45.5977 300.822 46.8517C300.822 48.0512 300.467 49.0053 299.759 49.7141C299.05 50.3684 298.041 50.6955 296.733 50.6955H288.063V67.5429C288.063 70.16 288.636 72.1228 289.781 73.4313C290.926 74.7399 292.78 75.3941 295.342 75.3941C296.269 75.3941 297.087 75.3123 297.796 75.1488C298.504 74.9852 299.132 74.8762 299.677 74.8216C300.331 74.7671 300.876 74.9852 301.312 75.4759C301.749 75.9121 301.967 76.839 301.967 78.2566C301.967 79.347 301.776 80.3284 301.394 81.2008C301.067 82.0186 300.44 82.5911 299.513 82.9182C298.804 83.1363 297.877 83.3271 296.733 83.4907C295.588 83.7088 294.579 83.8178 293.707 83.8178ZM319.942 83.8178C317.052 83.8178 314.462 83.2726 312.172 82.1822C309.937 81.0372 308.165 79.5106 306.856 77.6023C305.602 75.694 304.975 73.5404 304.975 71.1414C304.975 68.1972 305.739 65.88 307.265 64.1898C308.792 62.4451 311.273 61.1911 314.708 60.4277C318.143 59.6644 322.75 59.2828 328.529 59.2828H332.618V65.1712H328.611C325.23 65.1712 322.532 65.3348 320.514 65.6619C318.497 65.989 317.052 66.5615 316.18 67.3793C315.362 68.1427 314.953 69.2331 314.953 70.6507C314.953 72.4499 315.58 73.922 316.834 75.067C318.088 76.212 319.833 76.7844 322.068 76.7844C323.867 76.7844 325.449 76.3755 326.812 75.5577C328.229 74.6853 329.347 73.5131 330.165 72.041C330.983 70.5689 331.391 68.8787 331.391 66.9704V57.5653C331.391 54.8392 330.792 52.8764 329.592 51.6769C328.393 50.4774 326.375 49.8777 323.54 49.8777C321.959 49.8777 320.242 50.0685 318.388 50.4501C316.589 50.8318 314.68 51.4861 312.663 52.4129C311.627 52.9037 310.7 53.04 309.882 52.8219C309.119 52.6038 308.519 52.1676 308.083 51.5133C307.647 50.8045 307.429 50.0412 307.429 49.2234C307.429 48.4056 307.647 47.615 308.083 46.8517C308.519 46.0338 309.255 45.4341 310.291 45.0524C312.799 44.0165 315.198 43.2805 317.488 42.8443C319.833 42.4081 321.959 42.19 323.867 42.19C327.793 42.19 331.01 42.7898 333.518 43.9892C336.08 45.1887 337.989 47.0152 339.243 49.4687C340.497 51.8677 341.124 54.9755 341.124 58.7921V78.4201C341.124 80.1103 340.715 81.4189 339.897 82.3457C339.079 83.2181 337.907 83.6543 336.38 83.6543C334.854 83.6543 333.654 83.2181 332.782 82.3457C331.964 81.4189 331.555 80.1103 331.555 78.4201V74.4945H332.209C331.828 76.4028 331.064 78.0657 329.919 79.4833C328.829 80.8464 327.439 81.9096 325.748 82.6729C324.058 83.4362 322.123 83.8178 319.942 83.8178ZM356.734 83.6543C355.099 83.6543 353.845 83.2181 352.972 82.3457C352.1 81.4189 351.664 80.1103 351.664 78.4201V47.5059C351.664 45.8157 352.1 44.5345 352.972 43.6621C353.845 42.7898 355.071 42.3536 356.652 42.3536C358.234 42.3536 359.46 42.7898 360.333 43.6621C361.205 44.5345 361.641 45.8157 361.641 47.5059V53.4761L360.742 51.0226C361.832 48.2965 363.522 46.1429 365.812 44.5617C368.102 42.9806 370.828 42.19 373.991 42.19C377.207 42.19 379.852 42.9533 381.924 44.4799C383.995 46.0066 385.44 48.351 386.258 51.5133H385.113C386.204 48.6236 388.003 46.361 390.511 44.7253C393.019 43.0351 395.909 42.19 399.18 42.19C402.233 42.19 404.741 42.7898 406.704 43.9892C408.721 45.1887 410.221 47.0152 411.202 49.4687C412.183 51.8677 412.674 54.921 412.674 58.6285V78.4201C412.674 80.1103 412.211 81.4189 411.284 82.3457C410.411 83.2181 409.157 83.6543 407.522 83.6543C405.886 83.6543 404.632 83.2181 403.76 82.3457C402.887 81.4189 402.451 80.1103 402.451 78.4201V59.0374C402.451 55.9842 401.933 53.7487 400.897 52.3312C399.916 50.9136 398.226 50.2048 395.827 50.2048C393.155 50.2048 391.056 51.1589 389.529 53.0672C388.003 54.921 387.239 57.5108 387.239 60.8367V78.4201C387.239 80.1103 386.803 81.4189 385.931 82.3457C385.059 83.2181 383.805 83.6543 382.169 83.6543C380.533 83.6543 379.252 83.2181 378.325 82.3457C377.453 81.4189 377.017 80.1103 377.017 78.4201V59.0374C377.017 55.9842 376.499 53.7487 375.463 52.3312C374.481 50.9136 372.818 50.2048 370.474 50.2048C367.802 50.2048 365.703 51.1589 364.176 53.0672C362.65 54.921 361.887 57.5108 361.887 60.8367V78.4201C361.887 81.9096 360.169 83.6543 356.734 83.6543ZM446.283 83.8178C442.903 83.8178 439.931 82.9727 437.369 81.2825C434.861 79.5924 433.198 77.3297 432.38 74.4945L433.28 72.4499V78.4201C433.28 80.1103 432.844 81.4189 431.971 82.3457C431.099 83.2181 429.872 83.6543 428.291 83.6543C426.655 83.6543 425.401 83.2181 424.529 82.3457C423.657 81.4189 423.22 80.1103 423.22 78.4201V29.8407C423.22 28.1505 423.657 26.8692 424.529 25.9969C425.401 25.1245 426.655 24.6883 428.291 24.6883C429.927 24.6883 431.181 25.1245 432.053 25.9969C432.98 26.8692 433.443 28.1505 433.443 29.8407V51.1044H432.462C433.334 48.4328 435.024 46.2792 437.533 44.6435C440.041 43.0078 442.957 42.19 446.283 42.19C449.827 42.19 452.908 43.0351 455.525 44.7253C458.142 46.4155 460.187 48.8145 461.659 51.9222C463.131 54.9755 463.867 58.6558 463.867 62.963C463.867 67.2158 463.131 70.9233 461.659 74.0856C460.187 77.1934 458.115 79.5924 455.443 81.2825C452.826 82.9727 449.773 83.8178 446.283 83.8178ZM443.421 76.0484C445.438 76.0484 447.21 75.5577 448.737 74.5763C450.263 73.5949 451.436 72.15 452.254 70.2418C453.126 68.279 453.562 65.8527 453.562 62.963C453.562 58.6012 452.635 55.3572 450.781 53.2308C448.928 51.0499 446.474 49.9594 443.421 49.9594C441.404 49.9594 439.632 50.4501 438.105 51.4315C436.578 52.3584 435.379 53.8033 434.507 55.7661C433.689 57.6744 433.28 60.0733 433.28 62.963C433.28 67.2703 434.207 70.5416 436.06 72.7771C437.914 74.958 440.368 76.0484 443.421 76.0484ZM491.968 83.8178C487.443 83.8178 483.545 82.9727 480.273 81.2825C477.002 79.5924 474.467 77.1934 472.667 74.0856C470.923 70.9778 470.05 67.2976 470.05 63.0448C470.05 58.9011 470.895 55.2754 472.586 52.1676C474.33 49.0598 476.702 46.6336 479.701 44.8889C482.754 43.0896 486.216 42.19 490.087 42.19C492.923 42.19 495.458 42.6534 497.693 43.5803C499.983 44.5072 501.919 45.843 503.5 47.5877C505.136 49.3324 506.362 51.4588 507.18 53.9668C508.052 56.4203 508.489 59.201 508.489 62.3088C508.489 63.2902 508.134 64.0535 507.425 64.5987C506.771 65.0894 505.817 65.3348 504.563 65.3348H478.311V59.4463H501.292L499.983 60.6731C499.983 58.1651 499.602 56.0659 498.838 54.3758C498.129 52.6856 497.066 51.4043 495.649 50.5319C494.286 49.605 492.568 49.1416 490.496 49.1416C488.206 49.1416 486.244 49.6868 484.608 50.7773C483.027 51.8132 481.8 53.3126 480.928 55.2754C480.11 57.1837 479.701 59.4736 479.701 62.1452V62.7177C479.701 67.1885 480.737 70.5416 482.809 72.7771C484.935 74.958 488.043 76.0484 492.132 76.0484C493.55 76.0484 495.131 75.8848 496.875 75.5577C498.675 75.176 500.365 74.549 501.946 73.6767C503.091 73.0224 504.1 72.7498 504.972 72.8588C505.844 72.9134 506.526 73.2132 507.017 73.7585C507.562 74.3037 507.889 74.9852 507.998 75.803C508.107 76.5664 507.943 77.3569 507.507 78.1748C507.126 78.9926 506.444 79.7014 505.463 80.3011C503.554 81.5006 501.346 82.4003 498.838 83C496.385 83.5452 494.095 83.8178 491.968 83.8178ZM494.013 37.2012C493.468 37.9645 492.813 38.4007 492.05 38.5097C491.287 38.6188 490.551 38.4825 489.842 38.1008C489.133 37.7192 488.615 37.1739 488.288 36.4652C488.016 35.7564 488.097 34.9658 488.533 34.0934L494.749 21.9077C495.24 20.8718 495.894 20.2175 496.712 19.9449C497.53 19.6177 498.375 19.5632 499.247 19.7813C500.119 19.9994 500.856 20.4083 501.455 21.0081C502.11 21.6078 502.491 22.3439 502.6 23.2162C502.764 24.0341 502.546 24.8792 501.946 25.7515L494.013 37.2012ZM521.819 83.6543C520.183 83.6543 518.929 83.2181 518.057 82.3457C517.184 81.4189 516.748 80.1103 516.748 78.4201V47.5059C516.748 45.8157 517.184 44.5345 518.057 43.6621C518.929 42.7898 520.156 42.3536 521.737 42.3536C523.318 42.3536 524.545 42.7898 525.417 43.6621C526.29 44.5345 526.726 45.8157 526.726 47.5059V53.4761L525.826 51.0226C526.917 48.2965 528.607 46.1429 530.897 44.5617C533.187 42.9806 535.913 42.19 539.075 42.19C542.292 42.19 544.936 42.9533 547.008 44.4799C549.08 46.0066 550.525 48.351 551.343 51.5133H550.198C551.288 48.6236 553.087 46.361 555.595 44.7253C558.103 43.0351 560.993 42.19 564.264 42.19C567.318 42.19 569.826 42.7898 571.789 43.9892C573.806 45.1887 575.305 47.0152 576.287 49.4687C577.268 51.8677 577.759 54.921 577.759 58.6285V78.4201C577.759 80.1103 577.295 81.4189 576.368 82.3457C575.496 83.2181 574.242 83.6543 572.606 83.6543C570.971 83.6543 569.717 83.2181 568.844 82.3457C567.972 81.4189 567.536 80.1103 567.536 78.4201V59.0374C567.536 55.9842 567.018 53.7487 565.982 52.3312C565 50.9136 563.31 50.2048 560.911 50.2048C558.24 50.2048 556.141 51.1589 554.614 53.0672C553.087 54.921 552.324 57.5108 552.324 60.8367V78.4201C552.324 80.1103 551.888 81.4189 551.015 82.3457C550.143 83.2181 548.889 83.6543 547.253 83.6543C545.618 83.6543 544.336 83.2181 543.41 82.3457C542.537 81.4189 542.101 80.1103 542.101 78.4201V59.0374C542.101 55.9842 541.583 53.7487 540.547 52.3312C539.566 50.9136 537.903 50.2048 535.558 50.2048C532.887 50.2048 530.788 51.1589 529.261 53.0672C527.734 54.921 526.971 57.5108 526.971 60.8367V78.4201C526.971 81.9096 525.254 83.6543 521.819 83.6543ZM24.6354 195.818C21.0915 195.818 18.12 195.218 15.721 194.019C13.3766 192.819 11.6319 191.074 10.4869 188.784C9.34192 186.44 8.76944 183.55 8.76944 180.115V162.695H4.51669C3.20816 162.695 2.19949 162.368 1.4907 161.714C0.781911 161.005 0.427515 160.051 0.427515 158.852C0.427515 157.598 0.781911 156.644 1.4907 155.989C2.19949 155.335 3.20816 155.008 4.51669 155.008H8.76944V147.566C8.76944 145.875 9.20562 144.594 10.078 143.722C11.0049 142.849 12.2861 142.413 13.9218 142.413C15.5575 142.413 16.8115 142.849 17.6838 143.722C18.5562 144.594 18.9924 145.875 18.9924 147.566V155.008H27.6614C28.97 155.008 29.9786 155.335 30.6874 155.989C31.3962 156.644 31.7506 157.598 31.7506 158.852C31.7506 160.051 31.3962 161.005 30.6874 161.714C29.9786 162.368 28.97 162.695 27.6614 162.695H18.9924V179.543C18.9924 182.16 19.5649 184.123 20.7098 185.431C21.8548 186.74 23.7086 187.394 26.2711 187.394C27.198 187.394 28.0158 187.312 28.7246 187.149C29.4334 186.985 30.0604 186.876 30.6056 186.822C31.2599 186.767 31.8051 186.985 32.2413 187.476C32.6775 187.912 32.8956 188.839 32.8956 190.257C32.8956 191.347 32.7048 192.328 32.3231 193.201C31.996 194.019 31.369 194.591 30.4421 194.918C29.7333 195.136 28.8064 195.327 27.6614 195.491C26.5165 195.709 25.5078 195.818 24.6354 195.818ZM42.9377 195.654C41.2475 195.654 39.939 195.218 39.0121 194.346C38.1397 193.419 37.7036 192.11 37.7036 190.42V159.506C37.7036 157.816 38.1397 156.534 39.0121 155.662C39.8845 154.79 41.1112 154.354 42.6924 154.354C44.2735 154.354 45.5003 154.79 46.3726 155.662C47.245 156.534 47.6812 157.816 47.6812 159.506V164.658H46.8633C47.6266 161.387 49.126 158.906 51.3614 157.216C53.5968 155.526 56.5683 154.517 60.2758 154.19C61.4208 154.081 62.3204 154.381 62.9747 155.09C63.6835 155.744 64.0924 156.78 64.2014 158.197C64.3105 159.56 63.9833 160.678 63.22 161.551C62.5112 162.368 61.4208 162.859 59.9487 163.023L58.1495 163.186C54.8236 163.513 52.3156 164.549 50.6254 166.294C48.9352 167.984 48.0901 170.383 48.0901 173.491V190.42C48.0901 192.11 47.6539 193.419 46.7815 194.346C45.9092 195.218 44.6279 195.654 42.9377 195.654ZM82.498 195.818C79.6083 195.818 77.0185 195.273 74.7285 194.182C72.4931 193.037 70.7211 191.511 69.4126 189.602C68.1586 187.694 67.5316 185.54 67.5316 183.141C67.5316 180.197 68.2949 177.88 69.8215 176.19C71.3481 174.445 73.8289 173.191 77.2638 172.428C80.6987 171.664 85.3059 171.283 91.0852 171.283H95.1744V177.171H91.167C87.7866 177.171 85.0878 177.335 83.0704 177.662C81.0531 177.989 79.6083 178.562 78.7359 179.379C77.9181 180.143 77.5092 181.233 77.5092 182.651C77.5092 184.45 78.1362 185.922 79.3902 187.067C80.6442 188.212 82.3889 188.784 84.6243 188.784C86.4236 188.784 88.0047 188.376 89.3678 187.558C90.7854 186.685 91.9031 185.513 92.7209 184.041C93.5387 182.569 93.9477 180.879 93.9477 178.97V169.565C93.9477 166.839 93.3479 164.876 92.1484 163.677C90.9489 162.477 88.9316 161.878 86.0964 161.878C84.5153 161.878 82.7978 162.068 80.9441 162.45C79.1448 162.832 77.2365 163.486 75.2192 164.413C74.1833 164.904 73.2564 165.04 72.4386 164.822C71.6753 164.604 71.0755 164.168 70.6393 163.513C70.2032 162.805 69.9851 162.041 69.9851 161.223C69.9851 160.406 70.2032 159.615 70.6393 158.852C71.0755 158.034 71.8116 157.434 72.8475 157.052C75.3555 156.017 77.7545 155.28 80.0444 154.844C82.3889 154.408 84.5153 154.19 86.4236 154.19C90.3492 154.19 93.566 154.79 96.074 155.989C98.6366 157.189 100.545 159.015 101.799 161.469C103.053 163.868 103.68 166.976 103.68 170.792V190.42C103.68 192.11 103.271 193.419 102.453 194.346C101.635 195.218 100.463 195.654 98.9364 195.654C97.4098 195.654 96.2103 195.218 95.338 194.346C94.5201 193.419 94.1112 192.11 94.1112 190.42V186.495H94.7655C94.3838 188.403 93.6205 190.066 92.4755 191.483C91.3851 192.846 89.9948 193.91 88.3046 194.673C86.6144 195.436 84.6788 195.818 82.498 195.818ZM137.119 195.818C133.739 195.818 130.767 194.973 128.205 193.283C125.697 191.592 124.034 189.33 123.216 186.495L124.116 184.45V190.42C124.116 192.11 123.679 193.419 122.807 194.346C121.935 195.218 120.708 195.654 119.127 195.654C117.491 195.654 116.237 195.218 115.365 194.346C114.492 193.419 114.056 192.11 114.056 190.42V141.841C114.056 140.15 114.492 138.869 115.365 137.997C116.237 137.125 117.491 136.688 119.127 136.688C120.762 136.688 122.016 137.125 122.889 137.997C123.816 138.869 124.279 140.15 124.279 141.841V163.104H123.298C124.17 160.433 125.86 158.279 128.368 156.644C130.876 155.008 133.793 154.19 137.119 154.19C140.663 154.19 143.744 155.035 146.361 156.725C148.978 158.415 151.022 160.814 152.494 163.922C153.967 166.976 154.703 170.656 154.703 174.963C154.703 179.216 153.967 182.923 152.494 186.086C151.022 189.193 148.95 191.592 146.279 193.283C143.662 194.973 140.609 195.818 137.119 195.818ZM134.257 188.048C136.274 188.048 138.046 187.558 139.573 186.576C141.099 185.595 142.272 184.15 143.089 182.242C143.962 180.279 144.398 177.853 144.398 174.963C144.398 170.601 143.471 167.357 141.617 165.231C139.763 163.05 137.31 161.959 134.257 161.959C132.239 161.959 130.467 162.45 128.941 163.432C127.414 164.358 126.215 165.803 125.342 167.766C124.524 169.674 124.116 172.073 124.116 174.963C124.116 179.27 125.042 182.542 126.896 184.777C128.75 186.958 131.203 188.048 134.257 188.048ZM176.262 195.818C173.372 195.818 170.782 195.273 168.492 194.182C166.257 193.037 164.485 191.511 163.176 189.602C161.922 187.694 161.295 185.54 161.295 183.141C161.295 180.197 162.058 177.88 163.585 176.19C165.112 174.445 167.592 173.191 171.027 172.428C174.462 171.664 179.069 171.283 184.849 171.283H188.938V177.171H184.931C181.55 177.171 178.851 177.335 176.834 177.662C174.817 177.989 173.372 178.562 172.499 179.379C171.682 180.143 171.273 181.233 171.273 182.651C171.273 184.45 171.9 185.922 173.154 187.067C174.408 188.212 176.152 188.784 178.388 188.784C180.187 188.784 181.768 188.376 183.131 187.558C184.549 186.685 185.667 185.513 186.484 184.041C187.302 182.569 187.711 180.879 187.711 178.97V169.565C187.711 166.839 187.111 164.876 185.912 163.677C184.712 162.477 182.695 161.878 179.86 161.878C178.279 161.878 176.561 162.068 174.708 162.45C172.908 162.832 171 163.486 168.983 164.413C167.947 164.904 167.02 165.04 166.202 164.822C165.439 164.604 164.839 164.168 164.403 163.513C163.967 162.805 163.749 162.041 163.749 161.223C163.749 160.406 163.967 159.615 164.403 158.852C164.839 158.034 165.575 157.434 166.611 157.052C169.119 156.017 171.518 155.28 173.808 154.844C176.152 154.408 178.279 154.19 180.187 154.19C184.113 154.19 187.33 154.79 189.838 155.989C192.4 157.189 194.308 159.015 195.562 161.469C196.816 163.868 197.443 166.976 197.443 170.792V190.42C197.443 192.11 197.035 193.419 196.217 194.346C195.399 195.218 194.227 195.654 192.7 195.654C191.173 195.654 189.974 195.218 189.102 194.346C188.284 193.419 187.875 192.11 187.875 190.42V186.495H188.529C188.147 188.403 187.384 190.066 186.239 191.483C185.149 192.846 183.758 193.91 182.068 194.673C180.378 195.436 178.442 195.818 176.262 195.818ZM221.478 195.818C216.952 195.818 213.545 194.537 211.255 191.974C208.965 189.357 207.82 185.54 207.82 180.524V141.841C207.82 140.15 208.256 138.869 209.128 137.997C210.001 137.125 211.255 136.688 212.89 136.688C214.526 136.688 215.78 137.125 216.652 137.997C217.579 138.869 218.043 140.15 218.043 141.841V180.034C218.043 182.542 218.561 184.395 219.597 185.595C220.687 186.794 222.214 187.394 224.176 187.394C224.613 187.394 225.022 187.394 225.403 187.394C225.785 187.34 226.167 187.285 226.548 187.231C227.311 187.122 227.829 187.34 228.102 187.885C228.375 188.376 228.511 189.411 228.511 190.993C228.511 192.356 228.238 193.419 227.693 194.182C227.148 194.945 226.248 195.409 224.994 195.572C224.449 195.627 223.877 195.682 223.277 195.736C222.677 195.791 222.077 195.818 221.478 195.818ZM239.007 195.654C237.371 195.654 236.117 195.218 235.245 194.346C234.372 193.419 233.936 192.11 233.936 190.42V141.841C233.936 140.15 234.372 138.869 235.245 137.997C236.117 137.125 237.371 136.688 239.007 136.688C240.642 136.688 241.896 137.125 242.769 137.997C243.696 138.869 244.159 140.15 244.159 141.841V163.023H243.014C244.214 160.133 246.067 157.952 248.575 156.48C251.138 154.953 254.028 154.19 257.244 154.19C260.461 154.19 263.106 154.79 265.177 155.989C267.249 157.189 268.803 159.015 269.839 161.469C270.875 163.868 271.393 166.921 271.393 170.629V190.42C271.393 192.11 270.957 193.419 270.085 194.346C269.212 195.218 267.958 195.654 266.322 195.654C264.687 195.654 263.406 195.218 262.479 194.346C261.606 193.419 261.17 192.11 261.17 190.42V171.119C261.17 168.011 260.57 165.749 259.371 164.331C258.226 162.914 256.427 162.205 253.973 162.205C250.974 162.205 248.575 163.159 246.776 165.067C245.031 166.921 244.159 169.402 244.159 172.51V190.42C244.159 193.91 242.442 195.654 239.007 195.654ZM294.944 195.818C292.054 195.818 289.464 195.273 287.174 194.182C284.939 193.037 283.167 191.511 281.858 189.602C280.604 187.694 279.977 185.54 279.977 183.141C279.977 180.197 280.74 177.88 282.267 176.19C283.794 174.445 286.274 173.191 289.709 172.428C293.144 171.664 297.751 171.283 303.531 171.283H307.62V177.171H303.613C300.232 177.171 297.533 177.335 295.516 177.662C293.499 177.989 292.054 178.562 291.181 179.379C290.364 180.143 289.955 181.233 289.955 182.651C289.955 184.45 290.582 185.922 291.836 187.067C293.09 188.212 294.834 188.784 297.07 188.784C298.869 188.784 300.45 188.376 301.813 187.558C303.231 186.685 304.349 185.513 305.166 184.041C305.984 182.569 306.393 180.879 306.393 178.97V169.565C306.393 166.839 305.793 164.876 304.594 163.677C303.394 162.477 301.377 161.878 298.542 161.878C296.961 161.878 295.243 162.068 293.39 162.45C291.59 162.832 289.682 163.486 287.665 164.413C286.629 164.904 285.702 165.04 284.884 164.822C284.121 164.604 283.521 164.168 283.085 163.513C282.649 162.805 282.431 162.041 282.431 161.223C282.431 160.406 282.649 159.615 283.085 158.852C283.521 158.034 284.257 157.434 285.293 157.052C287.801 156.017 290.2 155.28 292.49 154.844C294.834 154.408 296.961 154.19 298.869 154.19C302.795 154.19 306.012 154.79 308.52 155.989C311.082 157.189 312.99 159.015 314.244 161.469C315.498 163.868 316.125 166.976 316.125 170.792V190.42C316.125 192.11 315.717 193.419 314.899 194.346C314.081 195.218 312.909 195.654 311.382 195.654C309.855 195.654 308.656 195.218 307.784 194.346C306.966 193.419 306.557 192.11 306.557 190.42V186.495H307.211C306.829 188.403 306.066 190.066 304.921 191.483C303.831 192.846 302.44 193.91 300.75 194.673C299.06 195.436 297.124 195.818 294.944 195.818ZM331.736 195.654C330.1 195.654 328.846 195.218 327.974 194.346C327.101 193.419 326.665 192.11 326.665 190.42V159.506C326.665 157.816 327.101 156.534 327.974 155.662C328.846 154.79 330.073 154.354 331.654 154.354C333.235 154.354 334.462 154.79 335.334 155.662C336.207 156.534 336.643 157.816 336.643 159.506V165.476L335.743 163.023C336.834 160.297 338.524 158.143 340.814 156.562C343.104 154.981 345.83 154.19 348.992 154.19C352.209 154.19 354.853 154.953 356.925 156.48C358.997 158.007 360.442 160.351 361.26 163.513H360.115C361.205 160.624 363.004 158.361 365.512 156.725C368.021 155.035 370.91 154.19 374.182 154.19C377.235 154.19 379.743 154.79 381.706 155.989C383.723 157.189 385.222 159.015 386.204 161.469C387.185 163.868 387.676 166.921 387.676 170.629V190.42C387.676 192.11 387.212 193.419 386.286 194.346C385.413 195.218 384.159 195.654 382.523 195.654C380.888 195.654 379.634 195.218 378.761 194.346C377.889 193.419 377.453 192.11 377.453 190.42V171.037C377.453 167.984 376.935 165.749 375.899 164.331C374.918 162.914 373.227 162.205 370.828 162.205C368.157 162.205 366.058 163.159 364.531 165.067C363.004 166.921 362.241 169.511 362.241 172.837V190.42C362.241 192.11 361.805 193.419 360.933 194.346C360.06 195.218 358.806 195.654 357.171 195.654C355.535 195.654 354.254 195.218 353.327 194.346C352.454 193.419 352.018 192.11 352.018 190.42V171.037C352.018 167.984 351.5 165.749 350.464 164.331C349.483 162.914 347.82 162.205 345.476 162.205C342.804 162.205 340.705 163.159 339.178 165.067C337.652 166.921 336.888 169.511 336.888 172.837V190.42C336.888 193.91 335.171 195.654 331.736 195.654ZM425.496 195.654C423.86 195.654 422.606 195.218 421.734 194.346C420.861 193.419 420.425 192.11 420.425 190.42V159.506C420.425 157.816 420.861 156.534 421.734 155.662C422.606 154.79 423.833 154.354 425.414 154.354C426.995 154.354 428.222 154.79 429.094 155.662C429.966 156.534 430.403 157.816 430.403 159.506V165.067L429.503 163.023C430.702 160.133 432.556 157.952 435.064 156.48C437.627 154.953 440.517 154.19 443.733 154.19C446.95 154.19 449.595 154.79 451.666 155.989C453.738 157.189 455.292 159.015 456.328 161.469C457.364 163.868 457.882 166.921 457.882 170.629V190.42C457.882 192.11 457.446 193.419 456.573 194.346C455.701 195.218 454.447 195.654 452.811 195.654C451.176 195.654 449.894 195.218 448.967 194.346C448.095 193.419 447.659 192.11 447.659 190.42V171.119C447.659 168.011 447.059 165.749 445.86 164.331C444.715 162.914 442.916 162.205 440.462 162.205C437.463 162.205 435.064 163.159 433.265 165.067C431.52 166.921 430.648 169.402 430.648 172.51V190.42C430.648 193.91 428.931 195.654 425.496 195.654ZM486.503 195.818C482.359 195.818 478.761 194.973 475.708 193.283C472.654 191.592 470.283 189.193 468.592 186.086C466.902 182.923 466.057 179.216 466.057 174.963C466.057 171.746 466.52 168.884 467.447 166.376C468.429 163.813 469.819 161.632 471.618 159.833C473.418 157.979 475.571 156.589 478.079 155.662C480.587 154.681 483.395 154.19 486.503 154.19C490.647 154.19 494.245 155.035 497.298 156.725C500.352 158.415 502.723 160.814 504.414 163.922C506.104 167.03 506.949 170.71 506.949 174.963C506.949 178.18 506.458 181.07 505.477 183.632C504.55 186.195 503.187 188.403 501.388 190.257C499.588 192.056 497.435 193.446 494.927 194.428C492.419 195.354 489.611 195.818 486.503 195.818ZM486.503 188.048C488.52 188.048 490.292 187.558 491.819 186.576C493.346 185.595 494.518 184.15 495.336 182.242C496.208 180.279 496.644 177.853 496.644 174.963C496.644 170.601 495.717 167.357 493.863 165.231C492.01 163.05 489.556 161.959 486.503 161.959C484.486 161.959 482.714 162.45 481.187 163.432C479.66 164.358 478.461 165.803 477.589 167.766C476.771 169.674 476.362 172.073 476.362 174.963C476.362 179.27 477.289 182.542 479.142 184.777C480.996 186.958 483.45 188.048 486.503 188.048ZM530.026 195.818C527.681 195.818 525.201 195.572 522.584 195.082C519.966 194.591 517.622 193.746 515.55 192.546C514.678 192.001 514.051 191.374 513.669 190.665C513.342 189.902 513.206 189.166 513.26 188.457C513.369 187.694 513.642 187.04 514.078 186.495C514.569 185.949 515.169 185.595 515.877 185.431C516.641 185.268 517.458 185.404 518.331 185.84C520.512 186.876 522.556 187.612 524.465 188.048C526.373 188.43 528.254 188.621 530.108 188.621C532.725 188.621 534.66 188.185 535.914 187.312C537.223 186.385 537.877 185.186 537.877 183.714C537.877 182.46 537.441 181.506 536.569 180.851C535.751 180.143 534.497 179.625 532.807 179.298L524.628 177.744C521.248 177.089 518.658 175.863 516.859 174.063C515.114 172.21 514.242 169.838 514.242 166.948C514.242 164.331 514.95 162.068 516.368 160.16C517.84 158.252 519.857 156.78 522.42 155.744C524.983 154.708 527.927 154.19 531.253 154.19C533.652 154.19 535.887 154.463 537.959 155.008C540.085 155.499 542.13 156.289 544.093 157.38C544.91 157.816 545.456 158.388 545.728 159.097C546.055 159.806 546.137 160.542 545.974 161.305C545.81 162.014 545.483 162.668 544.992 163.268C544.502 163.813 543.875 164.168 543.111 164.331C542.402 164.44 541.585 164.277 540.658 163.84C538.968 162.968 537.332 162.341 535.751 161.959C534.224 161.578 532.752 161.387 531.334 161.387C528.663 161.387 526.673 161.85 525.364 162.777C524.11 163.704 523.483 164.931 523.483 166.458C523.483 167.603 523.865 168.557 524.628 169.32C525.391 170.083 526.564 170.601 528.145 170.874L536.323 172.428C539.867 173.082 542.539 174.281 544.338 176.026C546.192 177.771 547.119 180.115 547.119 183.06C547.119 187.04 545.565 190.175 542.457 192.465C539.349 194.7 535.205 195.818 530.026 195.818Z" fill="white"/>
<path d="M29.3789 307.818C25.9985 307.818 23.027 306.973 20.4645 305.283C17.9565 303.592 16.2935 301.33 15.4757 298.495L16.3753 296.45V302.42C16.3753 304.11 15.9391 305.419 15.0668 306.346C14.1944 307.218 12.9677 307.654 11.3865 307.654C9.75084 307.654 8.49683 307.218 7.62447 306.346C6.75211 305.419 6.31593 304.11 6.31593 302.42V253.841C6.31593 252.15 6.75211 250.869 7.62447 249.997C8.49683 249.125 9.75084 248.688 11.3865 248.688C13.0222 248.688 14.2762 249.125 15.1486 249.997C16.0754 250.869 16.5389 252.15 16.5389 253.841V275.104H15.5575C16.4298 272.433 18.12 270.279 20.6281 268.644C23.1361 267.008 26.053 266.19 29.3789 266.19C32.9228 266.19 36.0034 267.035 38.6204 268.725C41.2375 270.415 43.2821 272.814 44.7542 275.922C46.2263 278.976 46.9624 282.656 46.9624 286.963C46.9624 291.216 46.2263 294.923 44.7542 298.086C43.2821 301.193 41.2102 303.592 38.5387 305.283C35.9216 306.973 32.8683 307.818 29.3789 307.818ZM26.5165 300.048C28.5338 300.048 30.3058 299.558 31.8324 298.576C33.359 297.595 34.5313 296.15 35.3491 294.242C36.2215 292.279 36.6576 289.853 36.6576 286.963C36.6576 282.601 35.7308 279.357 33.877 277.231C32.0232 275.05 29.5697 273.959 26.5165 273.959C24.4991 273.959 22.7272 274.45 21.2005 275.432C19.6739 276.358 18.4744 277.803 17.6021 279.766C16.7842 281.674 16.3753 284.073 16.3753 286.963C16.3753 291.27 17.3022 294.542 19.156 296.777C21.0097 298.958 23.4632 300.048 26.5165 300.048ZM68.5213 307.818C65.6316 307.818 63.0418 307.273 60.7518 306.182C58.5164 305.037 56.7444 303.511 55.4359 301.602C54.1819 299.694 53.5549 297.54 53.5549 295.141C53.5549 292.197 54.3182 289.88 55.8448 288.19C57.3714 286.445 59.8522 285.191 63.2871 284.428C66.722 283.664 71.3292 283.283 77.1085 283.283H81.1977V289.171H77.1903C73.8099 289.171 71.1111 289.335 69.0938 289.662C67.0764 289.989 65.6316 290.562 64.7592 291.379C63.9414 292.143 63.5325 293.233 63.5325 294.651C63.5325 296.45 64.1595 297.922 65.4135 299.067C66.6675 300.212 68.4122 300.784 70.6476 300.784C72.4469 300.784 74.028 300.376 75.3911 299.558C76.8087 298.685 77.9264 297.513 78.7442 296.041C79.562 294.569 79.971 292.879 79.971 290.97V281.565C79.971 278.839 79.3712 276.876 78.1717 275.677C76.9722 274.477 74.9549 273.878 72.1197 273.878C70.5386 273.878 68.8211 274.068 66.9674 274.45C65.1681 274.832 63.2599 275.486 61.2425 276.413C60.2066 276.904 59.2797 277.04 58.4619 276.822C57.6986 276.604 57.0988 276.168 56.6627 275.513C56.2265 274.805 56.0084 274.041 56.0084 273.223C56.0084 272.406 56.2265 271.615 56.6627 270.852C57.0988 270.034 57.8349 269.434 58.8708 269.052C61.3788 268.017 63.7778 267.28 66.0678 266.844C68.4122 266.408 70.5386 266.19 72.4469 266.19C76.3725 266.19 79.5893 266.79 82.0973 267.989C84.6599 269.189 86.5682 271.015 87.8222 273.469C89.0762 275.868 89.7032 278.976 89.7032 282.792V302.42C89.7032 304.11 89.2943 305.419 88.4765 306.346C87.6586 307.218 86.4864 307.654 84.9598 307.654C83.4331 307.654 82.2336 307.218 81.3613 306.346C80.5435 305.419 80.1345 304.11 80.1345 302.42V298.495H80.7888C80.4071 300.403 79.6438 302.066 78.4989 303.483C77.4084 304.846 76.0181 305.91 74.3279 306.673C72.6377 307.436 70.7022 307.818 68.5213 307.818ZM114.719 307.818C112.374 307.818 109.894 307.572 107.276 307.082C104.659 306.591 102.315 305.746 100.243 304.546C99.3707 304.001 98.7437 303.374 98.362 302.665C98.0349 301.902 97.8986 301.166 97.9531 300.457C98.0622 299.694 98.3348 299.04 98.771 298.495C99.2617 297.949 99.8614 297.595 100.57 297.431C101.334 297.268 102.151 297.404 103.024 297.84C105.205 298.876 107.249 299.612 109.157 300.048C111.066 300.43 112.947 300.621 114.801 300.621C117.418 300.621 119.353 300.185 120.607 299.312C121.916 298.385 122.57 297.186 122.57 295.714C122.57 294.46 122.134 293.506 121.261 292.851C120.444 292.143 119.19 291.625 117.499 291.298L109.321 289.744C105.941 289.089 103.351 287.863 101.552 286.063C99.8069 284.21 98.9345 281.838 98.9345 278.948C98.9345 276.331 99.6433 274.068 101.061 272.16C102.533 270.252 104.55 268.78 107.113 267.744C109.675 266.708 112.62 266.19 115.946 266.19C118.344 266.19 120.58 266.463 122.652 267.008C124.778 267.499 126.823 268.289 128.786 269.38C129.603 269.816 130.149 270.388 130.421 271.097C130.748 271.806 130.83 272.542 130.667 273.305C130.503 274.014 130.176 274.668 129.685 275.268C129.194 275.813 128.567 276.168 127.804 276.331C127.095 276.44 126.277 276.277 125.351 275.84C123.66 274.968 122.025 274.341 120.444 273.959C118.917 273.578 117.445 273.387 116.027 273.387C113.356 273.387 111.366 273.85 110.057 274.777C108.803 275.704 108.176 276.931 108.176 278.458C108.176 279.603 108.558 280.557 109.321 281.32C110.084 282.083 111.257 282.601 112.838 282.874L121.016 284.428C124.56 285.082 127.232 286.281 129.031 288.026C130.885 289.771 131.812 292.115 131.812 295.06C131.812 299.04 130.258 302.175 127.15 304.465C124.042 306.7 119.898 307.818 114.719 307.818ZM157.933 307.818C154.389 307.818 151.418 307.218 149.019 306.019C146.674 304.819 144.929 303.074 143.785 300.784C142.64 298.44 142.067 295.55 142.067 292.115V274.695H137.814C136.506 274.695 135.497 274.368 134.788 273.714C134.08 273.005 133.725 272.051 133.725 270.852C133.725 269.598 134.08 268.644 134.788 267.989C135.497 267.335 136.506 267.008 137.814 267.008H142.067V259.566C142.067 257.875 142.503 256.594 143.376 255.722C144.302 254.849 145.584 254.413 147.219 254.413C148.855 254.413 150.109 254.849 150.981 255.722C151.854 256.594 152.29 257.875 152.29 259.566V267.008H160.959C162.268 267.008 163.276 267.335 163.985 267.989C164.694 268.644 165.048 269.598 165.048 270.852C165.048 272.051 164.694 273.005 163.985 273.714C163.276 274.368 162.268 274.695 160.959 274.695H152.29V291.543C152.29 294.16 152.862 296.123 154.007 297.431C155.152 298.74 157.006 299.394 159.569 299.394C160.496 299.394 161.313 299.312 162.022 299.149C162.731 298.985 163.358 298.876 163.903 298.822C164.558 298.767 165.103 298.985 165.539 299.476C165.975 299.912 166.193 300.839 166.193 302.257C166.193 303.347 166.002 304.328 165.621 305.201C165.294 306.019 164.667 306.591 163.74 306.918C163.031 307.136 162.104 307.327 160.959 307.491C159.814 307.709 158.805 307.818 157.933 307.818ZM177.11 307.572C175.474 307.572 174.22 307.082 173.348 306.1C172.476 305.119 172.039 303.756 172.039 302.011V271.997C172.039 270.197 172.476 268.834 173.348 267.907C174.22 266.926 175.474 266.435 177.11 266.435C178.746 266.435 180 266.926 180.872 267.907C181.799 268.834 182.262 270.197 182.262 271.997V302.011C182.262 303.756 181.826 305.119 180.954 306.1C180.081 307.082 178.8 307.572 177.11 307.572ZM177.11 258.829C175.202 258.829 173.702 258.366 172.612 257.439C171.576 256.458 171.058 255.122 171.058 253.432C171.058 251.687 171.576 250.351 172.612 249.424C173.702 248.497 175.202 248.034 177.11 248.034C179.073 248.034 180.572 248.497 181.608 249.424C182.644 250.351 183.162 251.687 183.162 253.432C183.162 255.122 182.644 256.458 181.608 257.439C180.572 258.366 179.073 258.829 177.11 258.829ZM208.26 307.818C204.771 307.818 201.69 306.973 199.018 305.283C196.401 303.592 194.357 301.193 192.885 298.086C191.413 294.923 190.677 291.216 190.677 286.963C190.677 282.656 191.413 278.976 192.885 275.922C194.357 272.814 196.401 270.415 199.018 268.725C201.69 267.035 204.771 266.19 208.26 266.19C211.586 266.19 214.476 267.008 216.929 268.644C219.437 270.279 221.127 272.433 222 275.104H221.1V253.841C221.1 252.15 221.536 250.869 222.409 249.997C223.281 249.125 224.535 248.688 226.171 248.688C227.806 248.688 229.06 249.125 229.933 249.997C230.859 250.869 231.323 252.15 231.323 253.841V302.42C231.323 304.11 230.887 305.419 230.014 306.346C229.142 307.218 227.888 307.654 226.252 307.654C224.617 307.654 223.363 307.218 222.49 306.346C221.618 305.419 221.182 304.11 221.182 302.42V296.041L222.081 298.495C221.264 301.33 219.601 303.592 217.093 305.283C214.585 306.973 211.64 307.818 208.26 307.818ZM211.122 300.048C213.14 300.048 214.912 299.558 216.438 298.576C217.965 297.595 219.137 296.15 219.955 294.242C220.827 292.279 221.264 289.853 221.264 286.963C221.264 282.601 220.337 279.357 218.483 277.231C216.629 275.05 214.176 273.959 211.122 273.959C209.105 273.959 207.333 274.45 205.806 275.432C204.28 276.358 203.08 277.803 202.208 279.766C201.39 281.674 200.981 284.073 200.981 286.963C200.981 291.27 201.908 294.542 203.762 296.777C205.616 298.958 208.069 300.048 211.122 300.048ZM260.161 307.818C256.017 307.818 252.418 306.973 249.365 305.283C246.312 303.592 243.94 301.193 242.25 298.086C240.56 294.923 239.715 291.216 239.715 286.963C239.715 283.746 240.178 280.884 241.105 278.376C242.086 275.813 243.477 273.632 245.276 271.833C247.075 269.979 249.229 268.589 251.737 267.662C254.245 266.681 257.053 266.19 260.161 266.19C264.304 266.19 267.903 267.035 270.956 268.725C274.009 270.415 276.381 272.814 278.071 275.922C279.761 279.03 280.606 282.71 280.606 286.963C280.606 290.18 280.116 293.07 279.134 295.632C278.207 298.195 276.844 300.403 275.045 302.257C273.246 304.056 271.092 305.446 268.584 306.428C266.076 307.354 263.268 307.818 260.161 307.818ZM260.161 300.048C262.178 300.048 263.95 299.558 265.477 298.576C267.003 297.595 268.175 296.15 268.993 294.242C269.866 292.279 270.302 289.853 270.302 286.963C270.302 282.601 269.375 279.357 267.521 277.231C265.667 275.05 263.214 273.959 260.161 273.959C258.143 273.959 256.371 274.45 254.845 275.432C253.318 276.358 252.119 277.803 251.246 279.766C250.428 281.674 250.019 284.073 250.019 286.963C250.019 291.27 250.946 294.542 252.8 296.777C254.654 298.958 257.107 300.048 260.161 300.048ZM294.278 307.654C292.588 307.654 291.28 307.218 290.353 306.346C289.48 305.419 289.044 304.11 289.044 302.42V271.506C289.044 269.816 289.48 268.534 290.353 267.662C291.225 266.79 292.452 266.354 294.033 266.354C295.614 266.354 296.841 266.79 297.713 267.662C298.586 268.534 299.022 269.816 299.022 271.506V276.658H298.204C298.967 273.387 300.467 270.906 302.702 269.216C304.938 267.526 307.909 266.517 311.616 266.19C312.761 266.081 313.661 266.381 314.315 267.09C315.024 267.744 315.433 268.78 315.542 270.197C315.651 271.56 315.324 272.678 314.561 273.551C313.852 274.368 312.761 274.859 311.289 275.023L309.49 275.186C306.164 275.513 303.656 276.549 301.966 278.294C300.276 279.984 299.431 282.383 299.431 285.491V302.42C299.431 304.11 298.995 305.419 298.122 306.346C297.25 307.218 295.969 307.654 294.278 307.654ZM340.142 307.818C335.616 307.818 331.718 306.973 328.447 305.283C325.175 303.592 322.64 301.193 320.841 298.086C319.096 294.978 318.224 291.298 318.224 287.045C318.224 282.901 319.069 279.275 320.759 276.168C322.504 273.06 324.875 270.634 327.874 268.889C330.927 267.09 334.39 266.19 338.261 266.19C341.096 266.19 343.631 266.653 345.867 267.58C348.156 268.507 350.092 269.843 351.673 271.588C353.309 273.332 354.536 275.459 355.353 277.967C356.226 280.42 356.662 283.201 356.662 286.309C356.662 287.29 356.308 288.053 355.599 288.599C354.945 289.089 353.99 289.335 352.736 289.335H326.484V283.446H349.465L348.156 284.673C348.156 282.165 347.775 280.066 347.012 278.376C346.303 276.686 345.24 275.404 343.822 274.532C342.459 273.605 340.741 273.142 338.67 273.142C336.38 273.142 334.417 273.687 332.781 274.777C331.2 275.813 329.973 277.313 329.101 279.275C328.283 281.184 327.874 283.474 327.874 286.145V286.718C327.874 291.189 328.91 294.542 330.982 296.777C333.108 298.958 336.216 300.048 340.305 300.048C341.723 300.048 343.304 299.885 345.049 299.558C346.848 299.176 348.538 298.549 350.119 297.677C351.264 297.022 352.273 296.75 353.145 296.859C354.018 296.913 354.699 297.213 355.19 297.758C355.735 298.304 356.062 298.985 356.171 299.803C356.28 300.566 356.117 301.357 355.681 302.175C355.299 302.993 354.617 303.701 353.636 304.301C351.728 305.501 349.52 306.4 347.012 307C344.558 307.545 342.268 307.818 340.142 307.818ZM379.397 307.818C377.053 307.818 374.572 307.572 371.955 307.082C369.338 306.591 366.993 305.746 364.921 304.546C364.049 304.001 363.422 303.374 363.04 302.665C362.713 301.902 362.577 301.166 362.632 300.457C362.741 299.694 363.013 299.04 363.449 298.495C363.94 297.949 364.54 297.595 365.249 297.431C366.012 297.268 366.83 297.404 367.702 297.84C369.883 298.876 371.928 299.612 373.836 300.048C375.744 300.43 377.625 300.621 379.479 300.621C382.096 300.621 384.032 300.185 385.286 299.312C386.594 298.385 387.248 297.186 387.248 295.714C387.248 294.46 386.812 293.506 385.94 292.851C385.122 292.143 383.868 291.625 382.178 291.298L373.999 289.744C370.619 289.089 368.029 287.863 366.23 286.063C364.485 284.21 363.613 281.838 363.613 278.948C363.613 276.331 364.322 274.068 365.739 272.16C367.211 270.252 369.229 268.78 371.791 267.744C374.354 266.708 377.298 266.19 380.624 266.19C383.023 266.19 385.258 266.463 387.33 267.008C389.457 267.499 391.501 268.289 393.464 269.38C394.282 269.816 394.827 270.388 395.1 271.097C395.427 271.806 395.509 272.542 395.345 273.305C395.181 274.014 394.854 274.668 394.364 275.268C393.873 275.813 393.246 276.168 392.483 276.331C391.774 276.44 390.956 276.277 390.029 275.84C388.339 274.968 386.703 274.341 385.122 273.959C383.595 273.578 382.123 273.387 380.706 273.387C378.034 273.387 376.044 273.85 374.736 274.777C373.481 275.704 372.854 276.931 372.854 278.458C372.854 279.603 373.236 280.557 373.999 281.32C374.763 282.083 375.935 282.601 377.516 282.874L385.695 284.428C389.238 285.082 391.91 286.281 393.709 288.026C395.563 289.771 396.49 292.115 396.49 295.06C396.49 299.04 394.936 302.175 391.828 304.465C388.721 306.7 384.577 307.818 379.397 307.818ZM409.199 307.409C407.345 307.409 405.846 306.836 404.701 305.691C403.61 304.546 403.065 303.074 403.065 301.275C403.065 299.53 403.61 298.113 404.701 297.022C405.846 295.877 407.345 295.305 409.199 295.305C411.107 295.305 412.579 295.877 413.615 297.022C414.706 298.113 415.251 299.53 415.251 301.275C415.251 303.074 414.706 304.546 413.615 305.691C412.579 306.836 411.107 307.409 409.199 307.409Z" fill="#F77F00"/>
</svg>
