<svg width="114" height="116" viewBox="0 0 114 116" fill="none" xmlns="http://www.w3.org/2000/svg">
<path d="M113.863 38.9538V41.5833C113.73 41.6809 113.559 41.7975 113.389 41.9142L109.158 44.8943C108.874 45.0892 108.533 45.3227 108.191 45.5762C106.427 46.7834 104.132 48.4001 102.614 49.4326L65.492 75.3565L64.3159 76.1746L60.8635 78.5898C60.4272 78.8818 59.9151 79.1156 59.346 79.2714C59.1183 79.3491 58.8527 79.3882 58.6062 79.427C58.5682 79.4465 58.5303 79.4465 58.5115 79.4465C58.0752 79.505 57.639 79.505 57.2215 79.4855C56.8041 79.505 56.368 79.505 55.9316 79.4465C55.6473 79.4074 55.3625 79.3489 55.097 79.2712C54.5278 79.1156 54.0158 78.8816 53.5794 78.5895L52.0241 77.4986L50.1272 76.1744L11.8286 49.4328C11.4113 49.1405 10.9371 48.8094 10.406 48.4589C9.07832 47.5434 7.52273 46.4527 6.2517 45.5764C5.91026 45.323 5.56883 45.0894 5.28426 44.8945L1.05428 41.9145C0.883674 41.7977 0.712846 41.6809 0.580078 41.5836V38.9541C0.580078 38.5062 0.636947 38.1556 0.731876 37.8245C0.731876 37.8053 0.750906 37.8053 0.750906 37.8053C0.845835 37.7274 0.940543 37.6689 1.05428 37.5907L2.42002 36.6168L5.28426 34.6107C7.08614 33.3644 10.0265 31.2998 11.8284 30.0726L53.5794 0.915426C54.5849 0.253193 55.9126 -0.0584995 57.2215 0.0194237C57.3542 0.0194237 57.468 0 57.601 0H57.62C58.7961 0 59.9722 0.311921 60.8637 0.915655L102.615 30.0726C104.113 31.0854 106.389 32.6825 108.153 33.9098C108.514 34.1628 108.855 34.3968 109.159 34.6107L112.023 36.6168L113.389 37.5907C113.502 37.6687 113.597 37.7272 113.692 37.8053C113.806 38.136 113.863 38.5059 113.863 38.9538Z" fill="url(#paint0_linear_929_188)"/>
<path d="M113.869 50.613V53.2274C113.731 53.3287 113.553 53.4505 113.395 53.572L109.151 56.5512C107.356 57.7874 104.415 59.8543 102.618 61.0908L60.8731 90.2339C60.4193 90.5378 59.9059 90.7606 59.3534 90.9228C58.6825 91.1255 57.9323 91.1863 57.2218 91.1456C56.5113 91.1863 55.7611 91.1253 55.0902 90.9228C54.5375 90.7606 54.0243 90.5378 53.5705 90.2339L11.825 61.0906C10.0288 59.8541 7.08781 57.7872 5.2919 56.5509L1.04798 53.572C0.890427 53.4502 0.712519 53.3287 0.574219 53.2274V50.613C0.574219 50.1672 0.633522 49.8022 0.732212 49.4782C0.732212 49.4579 0.751906 49.4579 0.751906 49.4579C0.850597 49.3767 0.949288 49.3157 1.04776 49.2346L2.42965 48.2618L5.29168 46.2555C7.08759 45.0192 10.0286 42.9523 11.8247 41.7158L53.5702 12.573C54.5769 11.9041 55.9189 11.6 57.2216 11.6811C58.5243 11.6 59.8862 11.9039 60.8729 12.573L102.618 41.7158C104.415 42.9523 107.356 45.0192 109.151 46.2555L112.014 48.2618L113.395 49.2346C113.494 49.3157 113.593 49.3765 113.691 49.4579C113.81 49.7819 113.869 50.1672 113.869 50.613Z" fill="url(#paint1_linear_929_188)"/>
<path d="M58.6053 71.8705V80.0897H58.3776L55.8357 80.2649H0.579102V39.7138C0.579102 39.2659 0.63597 38.8957 0.730899 38.584C0.730899 38.5646 0.749929 38.5646 0.749929 38.5646C0.958596 37.883 1.37593 37.4933 1.92603 37.396L4.29726 38.8372L5.41627 39.5189L10.519 42.6159L10.7845 42.7716L14.0283 44.7388L50.9419 67.2152L51.0178 67.2543L58.3397 71.695L58.6053 71.8705Z" fill="#D2995B"/>
<path d="M59.5915 76.8364C59.5915 76.8559 59.2122 77.1287 58.6053 77.5766C58.2258 77.8298 57.7516 78.1611 57.2205 78.5505C56.955 78.7258 56.6704 78.9205 56.367 79.1348L55.9307 79.4463L55.096 80.0306L54.7355 80.2644L48.8362 84.374C48.2102 84.8024 47.5842 85.2503 47.0153 85.6596C45.9341 86.4192 45.0424 87.0423 44.739 87.237C44.3026 87.5681 42.4817 88.8343 40.6796 90.1001L30.8156 96.9756L30.7776 97.0147L30.7588 97.0341L6.55432 113.901C6.13698 114.194 5.68181 114.505 5.24545 114.817C4.99872 114.992 4.75221 115.148 4.50571 115.323H2.4571C1.3569 115.323 0.730899 115.07 0.598132 114.642C0.598132 114.622 0.598132 114.622 0.598132 114.622C0.598132 114.544 0.579102 114.486 0.598132 114.388C0.579102 114.271 0.579102 114.155 0.579102 114.018V39.7132C0.579102 39.2653 0.63597 38.8951 0.730899 38.5835C0.730899 38.564 0.749929 38.564 0.749929 38.564C0.958596 37.8824 1.37593 37.4928 1.92603 37.3954C2.09664 37.3369 2.24844 37.3369 2.41926 37.3563C2.8366 37.3758 3.3108 37.5707 3.82306 37.9212L10.538 42.5957L10.7845 42.771L13.6868 44.7965C13.7437 44.8356 13.8006 44.8744 13.8574 44.9135C15.6405 46.1601 18.4479 48.1273 20.1931 49.3348L54.1476 73.0383C54.1856 73.0577 54.2235 73.0774 54.2425 73.0968C54.2994 73.1359 54.3562 73.1747 54.4131 73.2138C54.8683 73.5253 55.3047 73.8372 55.703 74.1096C56.367 74.5575 56.8981 74.9471 57.2205 75.1809C57.4101 75.2979 57.5431 75.3755 57.5619 75.395C57.6378 75.4532 58.112 75.7846 58.6053 76.1545C58.6243 76.1545 58.6243 76.174 58.6431 76.174C59.1554 76.5442 59.5915 76.8168 59.5915 76.8364Z" fill="#F9CC90"/>
<path d="M113.838 39.2981C113.855 39.5266 113.868 39.9653 113.868 40.2731V113.451C113.868 113.758 113.868 114.069 113.868 114.142C113.868 114.214 113.848 114.427 113.848 114.466C113.848 114.505 113.848 114.537 113.848 114.618C113.848 114.618 113.848 114.623 113.848 114.628C113.848 114.634 113.675 114.794 113.463 114.983C113.251 115.172 111.749 115.327 111.451 115.327H110.482C110.184 115.327 109.738 115.187 109.489 115.017L108.338 114.219C108.09 114.048 107.685 113.768 107.438 113.595L74.2095 90.409C73.9626 90.2367 73.5585 89.9548 73.3116 89.7825L70.142 87.5538C69.8959 87.3801 69.4925 87.097 69.2458 86.9244L66.0567 84.6955C65.8104 84.5223 65.4066 84.2399 65.1594 84.0678L59.8009 80.3362C59.5538 80.1641 59.1495 79.8828 58.9021 79.7109L58.5184 79.4443C58.2712 79.2724 57.8656 78.9927 57.6173 78.8227C57.6173 78.8227 57.4768 78.7265 57.2201 78.5442C55.8582 77.5714 54.8516 76.8618 54.8516 76.8415C54.8516 76.8212 55.2859 76.5378 55.7991 76.1729C56.312 75.8079 56.4375 75.719 56.4375 75.719C56.6833 75.5449 56.9157 75.3799 56.9535 75.3518C56.9916 75.3239 57.4202 75.0358 57.6647 74.8601C57.6647 74.8601 58.7987 74.0449 60.0229 73.2138C60.0822 73.1732 60.0822 73.1732 60.0822 73.1732C60.1472 73.1286 60.2138 73.0831 60.23 73.0719C60.2461 73.0607 60.4411 72.9309 60.615 72.8085C60.7887 72.686 61.133 72.4447 61.38 72.2724L93.7992 49.6532C94.0462 49.4809 94.45 49.1986 94.6967 49.0259L100.312 45.113C100.559 44.941 100.964 44.6595 101.211 44.4872L110.162 38.2432C110.408 38.0709 110.825 37.8109 111.088 37.6653C111.088 37.6653 111.324 37.5198 111.568 37.464C111.812 37.4082 112.249 37.4208 112.539 37.4921L113.378 38.1004C113.55 38.3525 113.822 39.0695 113.838 39.2981Z" fill="#F7BA76"/>
<path d="M113.868 104.809V114.01C113.868 114.152 113.868 114.274 113.849 114.395C113.868 114.476 113.849 114.537 113.849 114.618C113.849 114.618 113.849 114.618 113.849 114.638C113.71 115.064 113.079 115.327 111.993 115.327H10.8369L30.7523 97.0269L30.772 97.0066L55.7007 74.1059L58.1286 71.8966L58.7796 71.2885L60.9311 72.5858L113.868 104.809Z" fill="#D2995B"/>
<path d="M113.868 113.666V114.01C113.868 114.152 113.868 114.274 113.849 114.395C113.868 114.476 113.849 114.537 113.849 114.618C113.849 114.618 113.849 114.618 113.849 114.639C113.71 115.064 113.078 115.327 111.993 115.327H2.44837C1.36299 115.327 0.731236 115.064 0.592936 114.639C0.592936 114.618 0.592936 114.618 0.592936 114.618C0.592936 114.537 0.573242 114.476 0.592936 114.395C0.573242 114.274 0.573242 114.152 0.573242 114.01V113.666C0.75093 113.422 1.00761 113.179 1.34307 112.936L54.0231 73.2542C54.0428 73.2542 54.0428 73.2341 54.0627 73.214C54.122 73.1733 54.1813 73.1329 54.2404 73.0924C55.3258 72.3018 56.4313 71.7545 57.2208 71.5522C57.4972 71.6331 57.7931 71.7344 58.129 71.8966C58.7605 72.1601 59.4907 72.5858 60.2012 73.0924C60.28 73.153 60.3393 73.1937 60.4183 73.2542L113.098 112.936C113.434 113.199 113.69 113.442 113.868 113.666Z" fill="#F7C37B"/>
<defs>
<linearGradient id="paint0_linear_929_188" x1="57.2215" y1="79.4973" x2="57.2215" y2="-0.000227444" gradientUnits="userSpaceOnUse">
<stop stop-color="#E1AA50"/>
<stop offset="0.7685" stop-color="#F0B460"/>
</linearGradient>
<linearGradient id="paint1_linear_929_188" x1="57.2217" y1="91.1575" x2="57.2217" y2="11.6684" gradientUnits="userSpaceOnUse">
<stop stop-color="#E1AA50"/>
<stop offset="0.7685" stop-color="#F0B460"/>
</linearGradient>
</defs>
</svg>
