<svg width="64" height="63" viewBox="0 0 64 63" fill="none" xmlns="http://www.w3.org/2000/svg">
<path d="M53.8375 53.0491H44.6355V38.6354C44.6355 35.1989 44.5734 30.7739 39.8482 30.7739C35.0557 30.7739 34.3208 34.521 34.3208 38.3819V53.0491H25.1188V23.4092H33.9534V27.4616H34.0776C35.8786 24.3874 39.2323 22.5449 42.7931 22.6743C52.1193 22.6743 53.8427 28.8072 53.8427 36.793L53.8375 53.044V53.0491ZM14.7368 19.3568C13.3233 19.35 11.9695 18.7858 10.9695 17.7868C9.96942 16.7877 9.40392 15.4345 9.39575 14.0209C9.39575 11.0916 11.8075 8.67984 14.7368 8.67984C17.6662 8.67984 20.0727 11.0916 20.0779 14.0209C20.0779 16.9502 17.6662 19.3568 14.7368 19.3568ZM19.3378 53.0491H10.1255V23.4092H19.3378V53.0491ZM58.4178 0.12996H5.49863C4.2987 0.12299 3.1445 0.58985 2.28685 1.42909C1.4292 2.26832 0.937405 3.41212 0.918335 4.61192V57.7536C0.937405 58.9534 1.4292 60.0972 2.28685 60.9365C3.1445 61.7757 4.2987 62.2426 5.49863 62.2356H58.423C59.6257 62.2453 60.7836 61.78 61.6452 60.9408C62.5067 60.1015 63.0022 58.9562 63.024 57.7536V4.60674C63.0022 3.40514 62.5063 2.26085 61.6445 1.42325C60.7827 0.585653 59.6247 0.122646 58.423 0.135135L58.4178 0.12996Z" fill="#0A66C2"/>
</svg>
