<svg width="63" height="62" viewBox="0 0 63 62" fill="none" xmlns="http://www.w3.org/2000/svg">
<path fill-rule="evenodd" clip-rule="evenodd" d="M31.9032 0.820817C16.596 0.805248 3.5406 11.9022 1.08972 27.0119C-1.36115 42.1217 7.51717 56.7765 22.0445 61.6002C23.6142 61.8874 24.1694 60.9111 24.1694 60.0877C24.1694 59.2647 24.1694 57.3885 24.1694 54.7851C15.4593 56.6805 13.6216 50.5927 13.6216 50.5927C13.0437 48.706 11.8161 47.0851 10.1566 46.0177C7.34261 44.1033 10.3864 44.1033 10.3864 44.1033C12.3851 44.3856 14.1429 45.5716 15.153 47.3194C16.0085 48.8706 17.4465 50.017 19.1492 50.5057C20.8519 50.9941 22.6791 50.7844 24.2268 49.9229C24.347 48.348 25.0259 46.8679 26.1411 45.7497C19.2113 44.9649 11.937 42.2847 11.937 30.4351C11.8894 27.3397 13.034 24.3445 15.1338 22.0696C14.1986 19.3782 14.3079 16.4337 15.4402 13.819C15.4402 13.819 18.0627 12.9767 24.0162 17.0159C29.1286 15.6122 34.5245 15.6122 39.6371 17.0159C45.5906 12.9767 48.1941 13.819 48.1941 13.819C49.342 16.406 49.4784 19.3294 48.5767 22.0122C50.6766 24.287 51.8213 27.2822 51.7738 30.3777C51.7738 42.3614 44.4803 44.9839 37.5313 45.6922C39.0388 47.2077 39.8142 49.3032 39.6561 51.435C39.6561 55.6084 39.6561 58.9775 39.6561 59.992C39.6561 61.0065 40.2112 61.7917 41.8001 61.4852C56.1549 56.5367 64.8592 41.9685 62.4144 26.9826C59.9696 11.997 47.0865 0.950394 31.9032 0.820817Z" fill="#758CA3"/>
</svg>
