<svg width="434" height="112" viewBox="0 0 434 112" fill="none" xmlns="http://www.w3.org/2000/svg">
<path fill-rule="evenodd" clip-rule="evenodd" d="M361.265 28.246V42.7777C361.265 53.4785 352.672 62.1532 342.073 62.1532H332.477V81.5287H284.496V71.841L288.966 61.5264C290.504 61.9347 292.127 62.1532 293.81 62.1532C302.485 62.1532 310.047 56.1927 312.151 47.696L302.842 45.3464C301.806 49.5303 298.082 52.4655 293.81 52.4655C293.506 52.4655 293.206 52.451 292.911 52.4228C289.418 52.0887 286.57 49.828 285.265 46.804C284.876 45.9015 284.624 44.9311 284.534 43.9236C284.442 42.9055 284.516 41.8495 284.779 40.7875L287.849 28.3906C289.984 19.7653 297.661 13.7144 306.468 13.7144H332.477L342.073 28.246H361.265ZM327.678 37.9338C330.328 37.9338 332.477 35.7651 332.477 33.0899C332.477 30.4147 330.328 28.246 327.678 28.246C325.029 28.246 322.88 30.4147 322.88 33.0899C322.88 35.7651 325.029 37.9338 327.678 37.9338Z" fill="#3746A4"/>
<path d="M33.1223 83.8178C27.1249 83.8178 21.9725 82.6183 17.6652 80.2194C13.4125 77.7659 10.1412 74.3309 7.85122 69.9146C5.56128 65.4438 4.41631 60.1824 4.41631 54.1304C4.41631 49.605 5.07058 45.5431 6.37912 41.9447C7.68765 38.2917 9.56868 35.1839 12.0222 32.6213C14.4757 30.0043 17.4744 28.0142 21.0184 26.6511C24.6169 25.2335 28.6515 24.5248 33.1223 24.5248C36.1211 24.5248 39.0653 24.9064 41.955 25.6697C44.8447 26.433 47.3799 27.5235 49.5608 28.9411C50.7058 29.6499 51.4691 30.5222 51.8508 31.5581C52.2324 32.5395 52.3142 33.5209 52.0961 34.5023C51.878 35.4292 51.4146 36.2198 50.7058 36.8741C50.0515 37.5283 49.2064 37.91 48.1705 38.019C47.1891 38.0736 46.0987 37.7192 44.8992 36.9559C43.209 35.8654 41.3825 35.0748 39.4197 34.5841C37.4569 34.0934 35.4668 33.8481 33.4495 33.8481C29.5784 33.8481 26.307 34.6387 23.6354 36.2198C20.9639 37.801 18.9465 40.0909 17.5835 43.0896C16.2204 46.0884 15.5389 49.7686 15.5389 54.1304C15.5389 58.4377 16.2204 62.1179 17.5835 65.1712C18.9465 68.2244 20.9639 70.5416 23.6354 72.1228C26.307 73.7039 29.5784 74.4945 33.4495 74.4945C35.5213 74.4945 37.5659 74.2492 39.5832 73.7585C41.6006 73.2132 43.5089 72.3954 45.3081 71.305C46.5076 70.5962 47.5708 70.2963 48.4977 70.4053C49.4791 70.4599 50.2969 70.787 50.9512 71.3867C51.6054 71.9865 52.0416 72.7498 52.2597 73.6767C52.4778 74.549 52.4233 75.4759 52.0961 76.4573C51.769 77.3842 51.1147 78.202 50.1333 78.9108C47.9524 80.492 45.3354 81.7187 42.2821 82.5911C39.2834 83.4089 36.2301 83.8178 33.1223 83.8178ZM77.7378 83.8178C73.2125 83.8178 69.3141 82.9727 66.0428 81.2825C62.7714 79.5924 60.2361 77.1934 58.4369 74.0856C56.6922 70.9778 55.8198 67.2976 55.8198 63.0448C55.8198 58.9011 56.6649 55.2754 58.3551 52.1676C60.0998 49.0598 62.4716 46.6336 65.4703 44.8889C68.5235 43.0896 71.9857 42.19 75.8568 42.19C78.692 42.19 81.2273 42.6534 83.4627 43.5803C85.7526 44.5072 87.6882 45.843 89.2693 47.5877C90.905 49.3324 92.1317 51.4588 92.9496 53.9668C93.8219 56.4203 94.2581 59.201 94.2581 62.3088C94.2581 63.2902 93.9037 64.0535 93.1949 64.5987C92.5406 65.0894 91.5865 65.3348 90.3325 65.3348H64.08V59.4463H87.0611L85.7526 60.6731C85.7526 58.1651 85.371 56.0659 84.6076 54.3758C83.8989 52.6856 82.8357 51.4043 81.4181 50.5319C80.055 49.605 78.3376 49.1416 76.2657 49.1416C73.9758 49.1416 72.013 49.6868 70.3773 50.7773C68.7962 51.8132 67.5694 53.3126 66.697 55.2754C65.8792 57.1837 65.4703 59.4736 65.4703 62.1452V62.7177C65.4703 67.1885 66.5062 70.5416 68.5781 72.7771C70.7044 74.958 73.8122 76.0484 77.9014 76.0484C79.319 76.0484 80.9001 75.8848 82.6448 75.5577C84.4441 75.176 86.1343 74.549 87.7154 73.6767C88.8604 73.0224 89.8691 72.7498 90.7414 72.8588C91.6138 72.9134 92.2953 73.2132 92.786 73.7585C93.3312 74.3037 93.6584 74.9852 93.7674 75.803C93.8764 76.5664 93.7129 77.3569 93.2767 78.1748C92.895 78.9926 92.2135 79.7014 91.2321 80.3011C89.3238 81.5006 87.1157 82.4003 84.6076 83C82.1541 83.5452 79.8642 83.8178 77.7378 83.8178ZM107.425 83.6543C105.789 83.6543 104.535 83.2181 103.663 82.3457C102.79 81.4189 102.354 80.1103 102.354 78.4201V47.5059C102.354 45.8157 102.79 44.5345 103.663 43.6621C104.535 42.7898 105.762 42.3536 107.343 42.3536C108.924 42.3536 110.151 42.7898 111.023 43.6621C111.895 44.5345 112.332 45.8157 112.332 47.5059V53.0672L111.432 51.0226C112.631 48.1329 114.485 45.952 116.993 44.4799C119.556 42.9533 122.446 42.19 125.662 42.19C128.879 42.19 131.524 42.7898 133.595 43.9892C135.667 45.1887 137.221 47.0152 138.257 49.4687C139.293 51.8677 139.811 54.921 139.811 58.6285V78.4201C139.811 80.1103 139.375 81.4189 138.502 82.3457C137.63 83.2181 136.376 83.6543 134.74 83.6543C133.105 83.6543 131.823 83.2181 130.896 82.3457C130.024 81.4189 129.588 80.1103 129.588 78.4201V59.1192C129.588 56.0114 128.988 53.7487 127.789 52.3312C126.644 50.9136 124.845 50.2048 122.391 50.2048C119.392 50.2048 116.993 51.1589 115.194 53.0672C113.449 54.921 112.577 57.4017 112.577 60.5095V78.4201C112.577 81.9096 110.86 83.6543 107.425 83.6543ZM168.514 83.8178C164.97 83.8178 161.998 83.2181 159.599 82.0186C157.255 80.8191 155.51 79.0744 154.365 76.7844C153.22 74.44 152.648 71.5503 152.648 68.1154V50.6955H148.395C147.086 50.6955 146.078 50.3684 145.369 49.7141C144.66 49.0053 144.306 48.0512 144.306 46.8517C144.306 45.5977 144.66 44.6435 145.369 43.9892C146.078 43.335 147.086 43.0078 148.395 43.0078H152.648V35.5655C152.648 33.8753 153.084 32.5941 153.956 31.7217C154.883 30.8494 156.164 30.4132 157.8 30.4132C159.436 30.4132 160.69 30.8494 161.562 31.7217C162.434 32.5941 162.871 33.8753 162.871 35.5655V43.0078H171.54C172.848 43.0078 173.857 43.335 174.566 43.9892C175.275 44.6435 175.629 45.5977 175.629 46.8517C175.629 48.0512 175.275 49.0053 174.566 49.7141C173.857 50.3684 172.848 50.6955 171.54 50.6955H162.871V67.5429C162.871 70.16 163.443 72.1228 164.588 73.4313C165.733 74.7399 167.587 75.3941 170.149 75.3941C171.076 75.3941 171.894 75.3123 172.603 75.1488C173.312 74.9852 173.939 74.8762 174.484 74.8216C175.138 74.7671 175.683 74.9852 176.12 75.4759C176.556 75.9121 176.774 76.839 176.774 78.2566C176.774 79.347 176.583 80.3284 176.201 81.2008C175.874 82.0186 175.247 82.5911 174.32 82.9182C173.612 83.1363 172.685 83.3271 171.54 83.4907C170.395 83.7088 169.386 83.8178 168.514 83.8178ZM186.816 83.6543C185.126 83.6543 183.817 83.2181 182.89 82.3457C182.018 81.4189 181.582 80.1103 181.582 78.4201V47.5059C181.582 45.8157 182.018 44.5345 182.89 43.6621C183.763 42.7898 184.989 42.3536 186.571 42.3536C188.152 42.3536 189.379 42.7898 190.251 43.6621C191.123 44.5345 191.559 45.8157 191.559 47.5059V52.6583H190.742C191.505 49.387 193.004 46.9062 195.24 45.216C197.475 43.5258 200.447 42.5171 204.154 42.19C205.299 42.081 206.199 42.3808 206.853 43.0896C207.562 43.7439 207.971 44.7798 208.08 46.1974C208.189 47.5605 207.862 48.6782 207.098 49.5505C206.39 50.3684 205.299 50.8591 203.827 51.0226L202.028 51.1862C198.702 51.5133 196.194 52.5493 194.504 54.294C192.813 55.9842 191.968 58.3831 191.968 61.4909V78.4201C191.968 80.1103 191.532 81.4189 190.66 82.3457C189.787 83.2181 188.506 83.6543 186.816 83.6543ZM226.376 83.8178C223.487 83.8178 220.897 83.2726 218.607 82.1822C216.371 81.0372 214.599 79.5106 213.291 77.6023C212.037 75.694 211.41 73.5404 211.41 71.1414C211.41 68.1972 212.173 65.88 213.7 64.1898C215.226 62.4451 217.707 61.1911 221.142 60.4277C224.577 59.6644 229.184 59.2828 234.964 59.2828H239.053V65.1712H235.045C231.665 65.1712 228.966 65.3348 226.949 65.6619C224.931 65.989 223.487 66.5615 222.614 67.3793C221.796 68.1427 221.387 69.2331 221.387 70.6507C221.387 72.4499 222.014 73.922 223.268 75.067C224.522 76.212 226.267 76.7844 228.503 76.7844C230.302 76.7844 231.883 76.3755 233.246 75.5577C234.664 74.6853 235.781 73.5131 236.599 72.041C237.417 70.5689 237.826 68.8787 237.826 66.9704V57.5653C237.826 54.8392 237.226 52.8764 236.027 51.6769C234.827 50.4774 232.81 49.8777 229.975 49.8777C228.394 49.8777 226.676 50.0685 224.822 50.4501C223.023 50.8318 221.115 51.4861 219.098 52.4129C218.062 52.9037 217.135 53.04 216.317 52.8219C215.554 52.6038 214.954 52.1676 214.518 51.5133C214.081 50.8045 213.863 50.0412 213.863 49.2234C213.863 48.4056 214.081 47.615 214.518 46.8517C214.954 46.0338 215.69 45.4341 216.726 45.0524C219.234 44.0165 221.633 43.2805 223.923 42.8443C226.267 42.4081 228.394 42.19 230.302 42.19C234.227 42.19 237.444 42.7898 239.952 43.9892C242.515 45.1887 244.423 47.0152 245.677 49.4687C246.931 51.8677 247.558 54.9755 247.558 58.7921V78.4201C247.558 80.1103 247.149 81.4189 246.331 82.3457C245.514 83.2181 244.341 83.6543 242.815 83.6543C241.288 83.6543 240.089 83.2181 239.216 82.3457C238.398 81.4189 237.99 80.1103 237.99 78.4201V74.4945H238.644C238.262 76.4028 237.499 78.0657 236.354 79.4833C235.263 80.8464 233.873 81.9096 232.183 82.6729C230.493 83.4362 228.557 83.8178 226.376 83.8178ZM271.592 83.8178C267.067 83.8178 263.659 82.5366 261.369 79.974C259.079 77.3569 257.934 73.5404 257.934 68.5243V29.8407C257.934 28.1505 258.371 26.8692 259.243 25.9969C260.115 25.1245 261.369 24.6883 263.005 24.6883C264.641 24.6883 265.895 25.1245 266.767 25.9969C267.694 26.8692 268.157 28.1505 268.157 29.8407V68.0336C268.157 70.5416 268.675 72.3954 269.711 73.5949C270.802 74.7944 272.328 75.3941 274.291 75.3941C274.727 75.3941 275.136 75.3941 275.518 75.3941C275.9 75.3396 276.281 75.2851 276.663 75.2306C277.426 75.1215 277.944 75.3396 278.217 75.8848C278.489 76.3755 278.626 77.4115 278.626 78.9926C278.626 80.3557 278.353 81.4189 277.808 82.1822C277.263 82.9455 276.363 83.4089 275.109 83.5725C274.564 83.627 273.991 83.6815 273.392 83.7361C272.792 83.7906 272.192 83.8178 271.592 83.8178Z" fill="#F77F00"/>
<path d="M381.775 83.8178C377.249 83.8178 373.351 82.9727 370.08 81.2825C366.808 79.5924 364.273 77.1934 362.474 74.0856C360.729 70.9778 359.857 67.2976 359.857 63.0448C359.857 58.9011 360.702 55.2754 362.392 52.1676C364.137 49.0598 366.509 46.6336 369.507 44.8889C372.561 43.0896 376.023 42.19 379.894 42.19C382.729 42.19 385.264 42.6534 387.5 43.5803C389.79 44.5072 391.725 45.843 393.306 47.5877C394.942 49.3324 396.169 51.4588 396.987 53.9668C397.859 56.4203 398.295 59.201 398.295 62.3088C398.295 63.2902 397.941 64.0535 397.232 64.5987C396.578 65.0894 395.623 65.3348 394.369 65.3348H368.117V59.4463H391.098L389.79 60.6731C389.79 58.1651 389.408 56.0659 388.645 54.3758C387.936 52.6856 386.873 51.4043 385.455 50.5319C384.092 49.605 382.375 49.1416 380.303 49.1416C378.013 49.1416 376.05 49.6868 374.414 50.7773C372.833 51.8132 371.606 53.3126 370.734 55.2754C369.916 57.1837 369.507 59.4736 369.507 62.1452V62.7177C369.507 67.1885 370.543 70.5416 372.615 72.7771C374.741 74.958 377.849 76.0484 381.938 76.0484C383.356 76.0484 384.937 75.8848 386.682 75.5577C388.481 75.176 390.171 74.549 391.752 73.6767C392.897 73.0224 393.906 72.7498 394.778 72.8588C395.651 72.9134 396.332 73.2132 396.823 73.7585C397.368 74.3037 397.695 74.9852 397.804 75.803C397.913 76.5664 397.75 77.3569 397.314 78.1748C396.932 78.9926 396.25 79.7014 395.269 80.3011C393.361 81.5006 391.153 82.4003 388.645 83C386.191 83.5452 383.901 83.8178 381.775 83.8178ZM424.551 83.8178C421.007 83.8178 418.035 83.2181 415.636 82.0186C413.292 80.8191 411.547 79.0744 410.402 76.7844C409.257 74.44 408.685 71.5503 408.685 68.1154V50.6955H404.432C403.123 50.6955 402.115 50.3684 401.406 49.7141C400.697 49.0053 400.343 48.0512 400.343 46.8517C400.343 45.5977 400.697 44.6435 401.406 43.9892C402.115 43.335 403.123 43.0078 404.432 43.0078H408.685V35.5655C408.685 33.8753 409.121 32.5941 409.993 31.7217C410.92 30.8494 412.201 30.4132 413.837 30.4132C415.473 30.4132 416.727 30.8494 417.599 31.7217C418.472 32.5941 418.908 33.8753 418.908 35.5655V43.0078H427.577C428.885 43.0078 429.894 43.335 430.603 43.9892C431.312 44.6435 431.666 45.5977 431.666 46.8517C431.666 48.0512 431.312 49.0053 430.603 49.7141C429.894 50.3684 428.885 50.6955 427.577 50.6955H418.908V67.5429C418.908 70.16 419.48 72.1228 420.625 73.4313C421.77 74.7399 423.624 75.3941 426.186 75.3941C427.113 75.3941 427.931 75.3123 428.64 75.1488C429.349 74.9852 429.976 74.8762 430.521 74.8216C431.175 74.7671 431.72 74.9852 432.157 75.4759C432.593 75.9121 432.811 76.839 432.811 78.2566C432.811 79.347 432.62 80.3284 432.238 81.2008C431.911 82.0186 431.284 82.5911 430.357 82.9182C429.649 83.1363 428.722 83.3271 427.577 83.4907C426.432 83.7088 425.423 83.8178 424.551 83.8178Z" fill="#3746A4"/>
</svg>
