<svg width="397" height="136" viewBox="0 0 397 136" fill="none" xmlns="http://www.w3.org/2000/svg">
<path d="M373.303 25.384C372.678 27.6614 372.97 30.0872 374.119 32.1597C375.268 34.2321 377.186 35.7927 379.477 36.5184C383.657 37.0737 387.669 32.9753 388.436 27.376C389.063 25.0984 388.773 22.6715 387.625 20.5978C386.476 18.5242 384.558 16.9625 382.266 16.236C378.086 15.6807 374.075 19.7838 373.303 25.384ZM349.752 68.8551C351.453 68.5136 353.068 67.8461 354.505 66.8912C355.942 65.9362 357.173 64.7125 358.125 63.2903C358.839 62.2292 359.953 61.4888 361.223 61.232C362.493 60.9752 363.816 61.223 364.9 61.9208C367.83 63.7855 371.394 64.4384 374.814 63.7369C378.235 63.0354 381.232 61.0366 383.153 58.177C385.073 55.3174 385.76 51.8296 385.064 48.4754C384.367 45.1212 382.344 42.1733 379.436 40.2758C375.998 38.0585 372.148 36.5266 368.105 35.7677C364.062 35.0087 359.907 35.0375 355.876 35.8525C351.844 36.6675 348.017 38.2526 344.611 40.5173C341.206 42.7821 338.289 45.682 336.028 49.0513C334.592 51.192 333.835 53.7018 333.854 56.2636C333.874 58.8253 334.668 61.324 336.137 63.4436C337.606 65.5632 339.683 67.2086 342.107 68.1719C344.53 69.1351 347.191 69.3729 349.752 68.8551ZM353.941 20.2426C354.658 26.6673 359.128 31.4584 363.92 30.9417C368.712 30.4249 372.016 24.7991 371.295 18.3754C370.579 11.9554 366.109 7.16429 361.317 7.68101C356.524 8.19302 353.225 13.8179 353.941 20.2426ZM351.343 20.7678C353.282 26.9455 351.113 33.0789 346.504 34.4628C341.894 35.8467 336.591 31.9609 334.652 25.7833C332.715 19.6104 334.884 13.477 339.493 12.0931C344.101 10.7045 349.409 14.5893 351.343 20.7678ZM335.64 32.9935C337.138 34.8424 337.853 37.1851 337.635 39.5361C337.418 41.8871 336.286 44.0661 334.473 45.6215C330.858 47.7479 325.517 45.5404 322.55 40.6959C321.053 38.8478 320.339 36.5066 320.555 34.157C320.772 31.8074 321.902 29.6292 323.713 28.0735C327.327 25.9425 332.668 28.1499 335.64 32.9935Z" fill="#FFC986"/>
<path d="M263.846 87.384C264.471 89.6614 264.18 92.0872 263.031 94.1597C261.882 96.2321 259.963 97.7927 257.672 98.5184C253.492 99.0737 249.48 94.9753 248.713 89.376C248.086 87.0984 248.376 84.6715 249.525 82.5978C250.673 80.5242 252.592 78.9625 254.883 78.236C259.063 77.6807 263.074 81.7838 263.846 87.384ZM287.397 130.855C285.696 130.514 284.081 129.846 282.644 128.891C281.207 127.936 279.977 126.712 279.024 125.29C278.311 124.229 277.196 123.489 275.926 123.232C274.656 122.975 273.334 123.223 272.25 123.921C269.319 125.785 265.755 126.438 262.335 125.737C258.915 125.035 255.917 123.037 253.996 120.177C252.076 117.317 251.389 113.83 252.085 110.475C252.782 107.121 254.805 104.173 257.713 102.276C261.151 100.059 265.002 98.5266 269.044 97.7677C273.087 97.0087 277.242 97.0375 281.274 97.8525C285.305 98.6675 289.132 100.253 292.538 102.517C295.943 104.782 298.86 107.682 301.121 111.051C302.557 113.192 303.314 115.702 303.295 118.264C303.275 120.825 302.481 123.324 301.012 125.444C299.543 127.563 297.466 129.209 295.043 130.172C292.619 131.135 289.959 131.373 287.397 130.855ZM283.208 82.2426C282.491 88.6673 278.021 93.4584 273.229 92.9417C268.437 92.4249 265.133 86.7991 265.854 80.3754C266.57 73.9554 271.04 69.1643 275.832 69.681C280.625 70.193 283.925 75.8179 283.208 82.2426ZM285.806 82.7678C283.867 88.9455 286.036 95.0789 290.646 96.4628C295.255 97.8467 300.558 93.9609 302.497 87.7833C304.434 81.6104 302.266 75.477 297.656 74.0931C293.048 72.7045 287.74 76.5893 285.806 82.7678ZM301.509 94.9935C300.011 96.8424 299.297 99.1851 299.514 101.536C299.731 103.887 300.863 106.066 302.676 107.622C306.291 109.748 311.632 107.54 314.599 102.696C316.096 100.848 316.81 98.5066 316.594 96.157C316.377 93.8074 315.247 91.6292 313.436 90.0735C309.822 87.9425 304.481 90.1499 301.509 94.9935Z" fill="#FFC986"/>
<path d="M212.006 22.384C211.38 24.6614 211.672 27.0872 212.821 29.1597C213.97 31.2321 215.888 32.7927 218.179 33.5184C222.359 34.0737 226.371 29.9753 227.138 24.376C227.766 22.0984 227.475 19.6715 226.327 17.5978C225.178 15.5242 223.26 13.9625 220.968 13.236C216.788 12.6807 212.777 16.7838 212.006 22.384ZM188.454 65.8551C190.155 65.5136 191.771 64.8461 193.208 63.8912C194.645 62.9362 195.875 61.7125 196.827 60.2903C197.541 59.2292 198.655 58.4888 199.925 58.232C201.195 57.9752 202.518 58.223 203.602 58.9208C206.532 60.7855 210.097 61.4384 213.517 60.7369C216.937 60.0354 219.934 58.0366 221.855 55.177C223.775 52.3174 224.462 48.8296 223.766 45.4754C223.069 42.1212 221.046 39.1733 218.138 37.2758C214.7 35.0585 210.85 33.5266 206.807 32.7677C202.765 32.0087 198.609 32.0375 194.578 32.8525C190.547 33.6675 186.719 35.2526 183.313 37.5173C179.908 39.7821 176.991 42.682 174.731 46.0513C173.294 48.192 172.537 50.7018 172.557 53.2636C172.576 55.8253 173.37 58.324 174.839 60.4436C176.308 62.5632 178.385 64.2087 180.809 65.1719C183.232 66.1351 185.893 66.3729 188.454 65.8551ZM192.643 17.2426C193.36 23.6673 197.831 28.4584 202.622 27.9417C207.414 27.4249 210.719 21.7991 209.997 15.3754C209.282 8.9554 204.811 4.16429 200.019 4.68101C195.226 5.19302 191.927 10.8179 192.643 17.2426ZM190.045 17.7678C191.984 23.9455 189.815 30.0789 185.206 31.4628C180.596 32.8467 175.293 28.9609 173.355 22.7833C171.417 16.6104 173.586 10.477 178.195 9.0931C182.803 7.70449 188.111 11.5893 190.045 17.7678ZM174.342 29.9935C175.84 31.8424 176.555 34.1851 176.337 36.5361C176.12 38.8871 174.988 41.0661 173.175 42.6215C169.56 44.7479 164.219 42.5404 161.252 37.6959C159.755 35.8478 159.041 33.5066 159.258 31.157C159.474 28.8074 160.605 26.6292 162.415 25.0735C166.029 22.9425 171.37 25.1499 174.342 29.9935Z" fill="#FFC986"/>
<path d="M136.461 87.384C135.835 89.6614 136.127 92.0872 137.276 94.1597C138.425 96.2321 140.343 97.7927 142.634 98.5184C146.814 99.0737 150.826 94.9753 151.593 89.376C152.221 87.0984 151.93 84.6715 150.782 82.5978C149.633 80.5242 147.715 78.9625 145.423 78.236C141.243 77.6807 137.232 81.7838 136.461 87.384ZM112.909 130.855C114.61 130.514 116.226 129.846 117.663 128.891C119.1 127.936 120.33 126.712 121.282 125.29C121.996 124.229 123.11 123.489 124.38 123.232C125.651 122.975 126.973 123.223 128.057 123.921C130.987 125.785 134.552 126.438 137.972 125.737C141.392 125.035 144.39 123.037 146.31 120.177C148.23 117.317 148.917 113.83 148.221 110.475C147.525 107.121 145.501 104.173 142.593 102.276C139.155 100.059 135.305 98.5266 131.262 97.7677C127.22 97.0087 123.064 97.0375 119.033 97.8525C115.002 98.6675 111.174 100.253 107.768 102.517C104.363 104.782 101.446 107.682 99.1857 111.051C97.7489 113.192 96.9924 115.702 97.0117 118.264C97.031 120.825 97.8253 123.324 99.2941 125.444C100.763 127.563 102.84 129.209 105.264 130.172C107.687 131.135 110.348 131.373 112.909 130.855ZM117.098 82.2426C117.815 88.6673 122.286 93.4584 127.078 92.9417C131.87 92.4249 135.174 86.7991 134.452 80.3754C133.737 73.9554 129.266 69.1643 124.474 69.681C119.681 70.193 116.382 75.8179 117.098 82.2426ZM114.5 82.7678C116.439 88.9455 114.27 95.0789 109.661 96.4628C105.051 97.8467 99.7483 93.9609 97.8096 87.7833C95.8719 81.6104 98.0409 75.477 102.65 74.0931C107.258 72.7045 112.566 76.5893 114.5 82.7678ZM98.797 94.9935C100.295 96.8424 101.01 99.1851 100.793 101.536C100.575 103.887 99.4431 106.066 97.6303 107.622C94.0152 109.748 88.6743 107.54 85.7073 102.696C84.2104 100.848 83.4962 98.5066 83.7127 96.157C83.9292 93.8074 85.0597 91.6292 86.8702 90.0735C90.4843 87.9425 95.8252 90.1499 98.797 94.9935Z" fill="#FFC986"/>
<path d="M22.9189 22.384C23.5447 24.6614 23.2529 27.0872 22.1038 29.1597C20.9548 31.2321 19.0364 32.7927 16.7456 33.5184C12.5655 34.0737 8.55321 29.9753 7.78666 24.376C7.15901 22.0984 7.44947 19.6715 8.5979 17.5978C9.74633 15.5242 11.6648 13.9625 13.9562 13.236C18.1363 12.6807 22.1476 16.7838 22.9189 22.384ZM46.4705 65.8551C44.7694 65.5136 43.154 64.8461 41.717 63.8912C40.28 62.9362 39.0498 61.7125 38.0972 60.2903C37.3839 59.2292 36.2697 58.4888 34.9994 58.232C33.7291 57.9752 32.4067 58.223 31.3229 58.9208C28.3926 60.7855 24.8281 61.4384 21.4079 60.7369C17.9878 60.0354 14.9901 58.0366 13.0697 55.177C11.1492 52.3174 10.4622 48.8296 11.1587 45.4754C11.8551 42.1212 13.8784 39.1733 16.7866 37.2758C20.2245 35.0585 24.0748 33.5266 28.1173 32.7677C32.1599 32.0087 36.3156 32.0375 40.3467 32.8525C44.3779 33.6675 48.2057 35.2526 51.6112 37.5173C55.0167 39.7821 57.9332 42.682 60.194 46.0513C61.6307 48.192 62.3872 50.7018 62.3679 53.2636C62.3486 55.8253 61.5543 58.324 60.0855 60.4436C58.6167 62.5632 56.5392 64.2087 54.1158 65.1719C51.6924 66.1351 49.0319 66.3729 46.4705 65.8551ZM42.2813 17.2426C41.5647 23.6673 37.0941 28.4584 32.3021 27.9417C27.5101 27.4249 24.2059 21.7991 24.9273 15.3754C25.6429 8.9554 30.1136 4.16429 34.9056 4.68101C39.6985 5.19302 42.9979 10.8179 42.2813 17.2426ZM44.8794 17.7678C42.9407 23.9455 45.1096 30.0789 49.7189 31.4628C54.3282 32.8467 59.6314 28.9609 61.57 22.7833C63.5077 16.6104 61.3388 10.477 56.7295 9.0931C52.1212 7.70449 46.8132 11.5893 44.8794 17.7678ZM60.5826 29.9935C59.0844 31.8424 58.3699 34.1851 58.5871 36.5361C58.8043 38.8871 59.9366 41.0661 61.7493 42.6215C65.3644 44.7479 70.7053 42.5404 73.6723 37.6959C75.1692 35.8478 75.8834 33.5066 75.6669 31.157C75.4505 28.8074 74.3199 26.6292 72.5094 25.0735C68.8953 22.9425 63.5544 25.1499 60.5826 29.9935Z" fill="#FFC986"/>
</svg>
