<svg width="397" height="136" viewBox="0 0 397 136" fill="none" xmlns="http://www.w3.org/2000/svg">
<path d="M23.6964 25.7947C24.3222 28.072 24.0303 30.4978 22.8813 32.5703C21.7322 34.6428 19.8139 36.2033 17.5231 36.929C13.3429 37.4843 9.33067 33.3859 8.56412 27.7867C7.93648 25.509 8.22693 23.0822 9.37536 21.0085C10.5238 18.9348 12.4423 17.3731 14.7336 16.6466C18.9138 16.0913 22.925 20.1944 23.6964 25.7947ZM47.248 69.2658C45.5469 68.9242 43.9314 68.2568 42.4945 67.3018C41.0575 66.3468 39.8273 65.1231 38.8746 63.701C38.1614 62.6398 37.0471 61.8995 35.7769 61.6427C34.5066 61.3859 33.1842 61.6336 32.1003 62.3314C29.1701 64.1961 25.6055 64.849 22.1854 64.1476C18.7653 63.4461 15.7675 61.4472 13.8471 58.5876C11.9267 55.7281 11.2397 52.2402 11.9361 48.886C12.6326 45.5319 14.6559 42.584 17.5641 40.6864C21.002 38.4692 24.8522 36.9373 28.8948 36.1783C32.9374 35.4193 37.093 35.4482 41.1242 36.2631C45.1554 37.0781 48.9831 38.6633 52.3886 40.928C55.7941 43.1927 58.7106 46.0926 60.9714 49.462C62.4082 51.6026 63.1647 54.1125 63.1454 56.6742C63.1261 59.236 62.3318 61.7346 60.863 63.8542C59.3941 65.9739 57.3167 67.6193 54.8933 68.5825C52.4699 69.5457 49.8093 69.7835 47.248 69.2658ZM43.0588 20.6532C42.3422 27.0779 37.8715 31.869 33.0796 31.3523C28.2876 30.8356 24.9834 25.2097 25.7048 18.786C26.4204 12.366 30.8911 7.57493 35.683 8.09166C40.476 8.60367 43.7754 14.2286 43.0588 20.6532ZM45.6569 21.1785C43.7182 27.3561 45.8871 33.4895 50.4964 34.8734C55.1056 36.2573 60.4088 32.3716 62.3475 26.1939C64.2852 20.021 62.1162 13.8876 57.507 12.5037C52.8987 11.1151 47.5907 14.9999 45.6569 21.1785ZM61.3601 33.4041C59.8619 35.2531 59.1473 37.5958 59.3645 39.9468C59.5817 42.2977 60.714 44.4768 62.5268 46.0322C66.1419 48.1585 71.4828 45.951 74.4498 41.1066C75.9467 39.2584 76.6609 36.9172 76.4444 34.5676C76.2279 32.218 75.0974 30.0399 73.2869 28.4841C69.6728 26.3531 64.3319 28.5606 61.3601 33.4041Z" fill="#DE766D"/>
<path d="M133.154 87.7947C132.528 90.072 132.82 92.4978 133.969 94.5703C135.118 96.6428 137.037 98.2033 139.328 98.929C143.508 99.4843 147.52 95.3859 148.286 89.7867C148.914 87.509 148.624 85.0822 147.475 83.0085C146.327 80.9348 144.408 79.3731 142.117 78.6466C137.937 78.0913 133.926 82.1944 133.154 87.7947ZM109.603 131.266C111.304 130.924 112.919 130.257 114.356 129.302C115.793 128.347 117.023 127.123 117.976 125.701C118.689 124.64 119.803 123.899 121.074 123.643C122.344 123.386 123.666 123.634 124.75 124.331C127.681 126.196 131.245 126.849 134.665 126.148C138.085 125.446 141.083 123.447 143.003 120.588C144.924 117.728 145.611 114.24 144.914 110.886C144.218 107.532 142.195 104.584 139.286 102.686C135.849 100.469 131.998 98.9373 127.956 98.1783C123.913 97.4193 119.758 97.4482 115.726 98.2631C111.695 99.0781 107.867 100.663 104.462 102.928C101.056 105.193 98.14 108.093 95.8791 111.462C94.4424 113.603 93.6859 116.112 93.7052 118.674C93.7245 121.236 94.5188 123.735 95.9876 125.854C97.4565 127.974 99.5339 129.619 101.957 130.583C104.381 131.546 107.041 131.784 109.603 131.266ZM113.792 82.6532C114.508 89.0779 118.979 93.869 123.771 93.3523C128.563 92.8356 131.867 87.2097 131.146 80.786C130.43 74.366 125.96 69.5749 121.168 70.0917C116.375 70.6037 113.075 76.2286 113.792 82.6532ZM111.194 83.1785C113.132 89.3561 110.963 95.4895 106.354 96.8734C101.745 98.2573 96.4417 94.3716 94.5031 88.1939C92.5654 82.021 94.7343 75.8876 99.3436 74.5037C103.952 73.1151 109.26 76.9999 111.194 83.1785ZM95.4905 95.4041C96.9887 97.2531 97.7033 99.5958 97.4861 101.947C97.2688 104.298 96.1365 106.477 94.3238 108.032C90.7087 110.159 85.3678 107.951 82.4008 103.107C80.9039 101.258 80.1897 98.9172 80.4062 96.5676C80.6227 94.218 81.7532 92.0399 83.5637 90.4841C87.1778 88.3531 92.5187 90.5606 95.4905 95.4041Z" fill="#DE766D"/>
<path d="M184.994 22.7947C185.62 25.072 185.328 27.4978 184.179 29.5703C183.03 31.6428 181.112 33.2033 178.821 33.929C174.641 34.4843 170.629 30.3859 169.862 24.7867C169.234 22.509 169.525 20.0822 170.673 18.0085C171.822 15.9348 173.74 14.3731 176.031 13.6466C180.212 13.0913 184.223 17.1944 184.994 22.7947ZM208.546 66.2658C206.845 65.9242 205.229 65.2568 203.792 64.3018C202.355 63.3468 201.125 62.1231 200.172 60.701C199.459 59.6398 198.345 58.8995 197.075 58.6427C195.804 58.3859 194.482 58.6336 193.398 59.3314C190.468 61.1961 186.903 61.849 183.483 61.1476C180.063 60.4461 177.065 58.4472 175.145 55.5876C173.225 52.7281 172.538 49.2402 173.234 45.886C173.93 42.5319 175.954 39.584 178.862 37.6864C182.3 35.4692 186.15 33.9373 190.193 33.1783C194.235 32.4193 198.391 32.4482 202.422 33.2631C206.453 34.0781 210.281 35.6633 213.686 37.928C217.092 40.1927 220.008 43.0926 222.269 46.462C223.706 48.6026 224.463 51.1125 224.443 53.6742C224.424 56.236 223.63 58.7346 222.161 60.8542C220.692 62.9739 218.615 64.6193 216.191 65.5825C213.768 66.5457 211.107 66.7835 208.546 66.2658ZM204.357 17.6532C203.64 24.0779 199.169 28.869 194.377 28.3523C189.585 27.8356 186.281 22.2097 187.003 15.786C187.718 9.36604 192.189 4.57493 196.981 5.09166C201.774 5.60367 205.073 11.2286 204.357 17.6532ZM206.955 18.1785C205.016 24.3561 207.185 30.4895 211.794 31.8734C216.403 33.2573 221.707 29.3716 223.645 23.1939C225.583 17.021 223.414 10.8876 218.805 9.50374C214.197 8.11513 208.889 11.9999 206.955 18.1785ZM222.658 30.4041C221.16 32.2531 220.445 34.5958 220.662 36.9468C220.88 39.2977 222.012 41.4768 223.825 43.0322C227.44 45.1585 232.781 42.951 235.748 38.1066C237.245 36.2584 237.959 33.9172 237.742 31.5676C237.526 29.218 236.395 27.0399 234.585 25.4841C230.971 23.3531 225.63 25.5606 222.658 30.4041Z" fill="#DE766D"/>
<path d="M260.539 87.7947C261.165 90.072 260.873 92.4978 259.724 94.5703C258.575 96.6428 256.657 98.2033 254.366 98.929C250.186 99.4843 246.173 95.3859 245.407 89.7867C244.779 87.509 245.07 85.0822 246.218 83.0085C247.367 80.9348 249.285 79.3731 251.576 78.6466C255.757 78.0913 259.768 82.1944 260.539 87.7947ZM284.091 131.266C282.39 130.924 280.774 130.257 279.337 129.302C277.9 128.347 276.67 127.123 275.717 125.701C275.004 124.64 273.89 123.899 272.62 123.643C271.349 123.386 270.027 123.634 268.943 124.331C266.013 126.196 262.448 126.849 259.028 126.148C255.608 125.446 252.61 123.447 250.69 120.588C248.769 117.728 248.082 114.24 248.779 110.886C249.475 107.532 251.499 104.584 254.407 102.686C257.845 100.469 261.695 98.9373 265.738 98.1783C269.78 97.4193 273.936 97.4482 277.967 98.2631C281.998 99.0781 285.826 100.663 289.231 102.928C292.637 105.193 295.553 108.093 297.814 111.462C299.251 113.603 300.007 116.112 299.988 118.674C299.969 121.236 299.175 123.735 297.706 125.854C296.237 127.974 294.159 129.619 291.736 130.583C289.313 131.546 286.652 131.784 284.091 131.266ZM279.902 82.6532C279.185 89.0779 274.714 93.869 269.922 93.3523C265.13 92.8356 261.826 87.2097 262.548 80.786C263.263 74.366 267.734 69.5749 272.526 70.0917C277.319 70.6037 280.618 76.2286 279.902 82.6532ZM282.5 83.1785C280.561 89.3561 282.73 95.4895 287.339 96.8734C291.948 98.2573 297.252 94.3716 299.19 88.1939C301.128 82.021 298.959 75.8876 294.35 74.5037C289.741 73.1151 284.433 76.9999 282.5 83.1785ZM298.203 95.4041C296.705 97.2531 295.99 99.5958 296.207 101.947C296.425 104.298 297.557 106.477 299.37 108.032C302.985 110.159 308.326 107.951 311.293 103.107C312.789 101.258 313.504 98.9172 313.287 96.5676C313.071 94.218 311.94 92.0399 310.13 90.4841C306.516 88.3531 301.175 90.5606 298.203 95.4041Z" fill="#DE766D"/>
<path d="M374.081 22.7947C373.455 25.072 373.747 27.4978 374.896 29.5703C376.045 31.6428 377.963 33.2033 380.254 33.929C384.434 34.4843 388.447 30.3859 389.213 24.7867C389.841 22.509 389.55 20.0822 388.402 18.0085C387.254 15.9348 385.335 14.3731 383.044 13.6466C378.864 13.0913 374.852 17.1944 374.081 22.7947ZM350.529 66.2658C352.23 65.9242 353.846 65.2568 355.283 64.3018C356.72 63.3468 357.95 62.1231 358.903 60.701C359.616 59.6398 360.73 58.8995 362 58.6427C363.271 58.3859 364.593 58.6336 365.677 59.3314C368.607 61.1961 372.172 61.849 375.592 61.1476C379.012 60.4461 382.01 58.4472 383.93 55.5876C385.851 52.7281 386.538 49.2402 385.841 45.886C385.145 42.5319 383.121 39.584 380.213 37.6864C376.775 35.4692 372.925 33.9373 368.883 33.1783C364.84 32.4193 360.684 32.4482 356.653 33.2631C352.622 34.0781 348.794 35.6633 345.389 37.928C341.983 40.1927 339.067 43.0926 336.806 46.462C335.369 48.6026 334.613 51.1125 334.632 53.6742C334.651 56.236 335.446 58.7346 336.914 60.8542C338.383 62.9739 340.461 64.6193 342.884 65.5825C345.307 66.5457 347.968 66.7835 350.529 66.2658ZM354.719 17.6532C355.435 24.0779 359.906 28.869 364.698 28.3523C369.49 27.8356 372.794 22.2097 372.073 15.786C371.357 9.36604 366.886 4.57493 362.094 5.09166C357.301 5.60367 354.002 11.2286 354.719 17.6532ZM352.12 18.1785C354.059 24.3561 351.89 30.4895 347.281 31.8734C342.672 33.2573 337.368 29.3716 335.43 23.1939C333.492 17.021 335.661 10.8876 340.27 9.50374C344.879 8.11513 350.187 11.9999 352.12 18.1785ZM336.417 30.4041C337.915 32.2531 338.63 34.5958 338.413 36.9468C338.196 39.2977 337.063 41.4768 335.251 43.0322C331.635 45.1585 326.295 42.951 323.328 38.1066C321.831 36.2584 321.116 33.9172 321.333 31.5676C321.549 29.218 322.68 27.0399 324.49 25.4841C328.105 23.3531 333.445 25.5606 336.417 30.4041Z" fill="#DE766D"/>
</svg>
