<svg width="397" height="136" viewBox="0 0 397 136" fill="none" xmlns="http://www.w3.org/2000/svg">
<path d="M373.304 25.7947C372.678 28.072 372.97 30.4978 374.119 32.5703C375.268 34.6428 377.186 36.2033 379.477 36.929C383.657 37.4843 387.669 33.3859 388.436 27.7867C389.064 25.509 388.773 23.0822 387.625 21.0085C386.476 18.9348 384.558 17.3731 382.266 16.6466C378.086 16.0913 374.075 20.1944 373.304 25.7947ZM349.752 69.2658C351.453 68.9242 353.069 68.2568 354.506 67.3018C355.943 66.3468 357.173 65.1231 358.125 63.701C358.839 62.6398 359.953 61.8995 361.223 61.6427C362.493 61.3859 363.816 61.6336 364.9 62.3314C367.83 64.1961 371.394 64.849 374.815 64.1476C378.235 63.4461 381.232 61.4472 383.153 58.5876C385.073 55.7281 385.76 52.2402 385.064 48.886C384.367 45.5319 382.344 42.584 379.436 40.6864C375.998 38.4692 372.148 36.9373 368.105 36.1783C364.063 35.4193 359.907 35.4482 355.876 36.2631C351.845 37.0781 348.017 38.6633 344.611 40.928C341.206 43.1927 338.289 46.0926 336.029 49.462C334.592 51.6026 333.835 54.1125 333.855 56.6742C333.874 59.236 334.668 61.7346 336.137 63.8542C337.606 65.9739 339.683 67.6193 342.107 68.5825C344.53 69.5457 347.191 69.7835 349.752 69.2658ZM353.941 20.6532C354.658 27.0779 359.128 31.869 363.92 31.3523C368.712 30.8356 372.017 25.2097 371.295 18.786C370.58 12.366 366.109 7.57493 361.317 8.09166C356.524 8.60367 353.225 14.2286 353.941 20.6532ZM351.343 21.1785C353.282 27.3561 351.113 33.4895 346.504 34.8734C341.894 36.2573 336.591 32.3716 334.653 26.1939C332.715 20.021 334.884 13.8876 339.493 12.5037C344.101 11.1151 349.409 14.9999 351.343 21.1785ZM335.64 33.4041C337.138 35.2531 337.853 37.5958 337.635 39.9468C337.418 42.2977 336.286 44.4768 334.473 46.0322C330.858 48.1585 325.517 45.951 322.55 41.1066C321.053 39.2584 320.339 36.9172 320.556 34.5676C320.772 32.218 321.903 30.0399 323.713 28.4841C327.327 26.3531 332.668 28.5606 335.64 33.4041Z" fill="#C493FF"/>
<path d="M263.846 87.7947C264.472 90.072 264.18 92.4978 263.031 94.5703C261.882 96.6428 259.963 98.2033 257.672 98.929C253.492 99.4843 249.48 95.3859 248.714 89.7867C248.086 87.509 248.376 85.0822 249.525 83.0085C250.673 80.9348 252.592 79.3731 254.883 78.6466C259.063 78.0913 263.074 82.1944 263.846 87.7947ZM287.397 131.266C285.696 130.924 284.081 130.257 282.644 129.302C281.207 128.347 279.977 127.123 279.024 125.701C278.311 124.64 277.197 123.899 275.926 123.643C274.656 123.386 273.334 123.634 272.25 124.331C269.319 126.196 265.755 126.849 262.335 126.148C258.915 125.446 255.917 123.447 253.997 120.588C252.076 117.728 251.389 114.24 252.086 110.886C252.782 107.532 254.805 104.584 257.714 102.686C261.151 100.469 265.002 98.9373 269.044 98.1783C273.087 97.4193 277.242 97.4482 281.274 98.2631C285.305 99.0781 289.133 100.663 292.538 102.928C295.944 105.193 298.86 108.093 301.121 111.462C302.558 113.603 303.314 116.112 303.295 118.674C303.275 121.236 302.481 123.735 301.012 125.854C299.544 127.974 297.466 129.619 295.043 130.583C292.619 131.546 289.959 131.784 287.397 131.266ZM283.208 82.6532C282.492 89.0779 278.021 93.869 273.229 93.3523C268.437 92.8356 265.133 87.2097 265.854 80.786C266.57 74.366 271.04 69.5749 275.832 70.0917C280.625 70.6037 283.925 76.2286 283.208 82.6532ZM285.806 83.1785C283.868 89.3561 286.037 95.4895 290.646 96.8734C295.255 98.2573 300.558 94.3716 302.497 88.1939C304.435 82.021 302.266 75.8876 297.656 74.5037C293.048 73.1151 287.74 76.9999 285.806 83.1785ZM301.509 95.4041C300.011 97.2531 299.297 99.5958 299.514 101.947C299.731 104.298 300.863 106.477 302.676 108.032C306.291 110.159 311.632 107.951 314.599 103.107C316.096 101.258 316.81 98.9172 316.594 96.5676C316.377 94.218 315.247 92.0399 313.436 90.4841C309.822 88.3531 304.481 90.5606 301.509 95.4041Z" fill="#C493FF"/>
<path d="M212.006 22.7947C211.38 25.072 211.672 27.4978 212.821 29.5703C213.97 31.6428 215.888 33.2033 218.179 33.929C222.359 34.4843 226.371 30.3859 227.138 24.7867C227.766 22.509 227.475 20.0822 226.327 18.0085C225.178 15.9348 223.26 14.3731 220.969 13.6466C216.788 13.0913 212.777 17.1944 212.006 22.7947ZM188.454 66.2658C190.155 65.9242 191.771 65.2568 193.208 64.3018C194.645 63.3468 195.875 62.1231 196.828 60.701C197.541 59.6398 198.655 58.8995 199.925 58.6427C201.196 58.3859 202.518 58.6336 203.602 59.3314C206.532 61.1961 210.097 61.849 213.517 61.1476C216.937 60.4461 219.935 58.4472 221.855 55.5876C223.775 52.7281 224.462 49.2402 223.766 45.886C223.07 42.5319 221.046 39.584 218.138 37.6864C214.7 35.4692 210.85 33.9373 206.807 33.1783C202.765 32.4193 198.609 32.4482 194.578 33.2631C190.547 34.0781 186.719 35.6633 183.314 37.928C179.908 40.1927 176.992 43.0926 174.731 46.462C173.294 48.6026 172.537 51.1125 172.557 53.6742C172.576 56.236 173.37 58.7346 174.839 60.8542C176.308 62.9739 178.385 64.6193 180.809 65.5825C183.232 66.5457 185.893 66.7835 188.454 66.2658ZM192.643 17.6532C193.36 24.0779 197.831 28.869 202.623 28.3523C207.415 27.8356 210.719 22.2097 209.997 15.786C209.282 9.36604 204.811 4.57493 200.019 5.09166C195.226 5.60367 191.927 11.2286 192.643 17.6532ZM190.045 18.1785C191.984 24.3561 189.815 30.4895 185.206 31.8734C180.597 33.2573 175.293 29.3716 173.355 23.1939C171.417 17.021 173.586 10.8876 178.195 9.50374C182.803 8.11513 188.111 11.9999 190.045 18.1785ZM174.342 30.4041C175.84 32.2531 176.555 34.5958 176.338 36.9468C176.12 39.2977 174.988 41.4768 173.175 43.0322C169.56 45.1585 164.219 42.951 161.252 38.1066C159.755 36.2584 159.041 33.9172 159.258 31.5676C159.474 29.218 160.605 27.0399 162.415 25.4841C166.029 23.3531 171.37 25.5606 174.342 30.4041Z" fill="#C493FF"/>
<path d="M136.461 87.7947C135.835 90.072 136.127 92.4978 137.276 94.5703C138.425 96.6428 140.343 98.2033 142.634 98.929C146.814 99.4843 150.827 95.3859 151.593 89.7867C152.221 87.509 151.93 85.0822 150.782 83.0085C149.633 80.9348 147.715 79.3731 145.424 78.6466C141.243 78.0913 137.232 82.1944 136.461 87.7947ZM112.909 131.266C114.61 130.924 116.226 130.257 117.663 129.302C119.1 128.347 120.33 127.123 121.283 125.701C121.996 124.64 123.11 123.899 124.38 123.643C125.651 123.386 126.973 123.634 128.057 124.331C130.987 126.196 134.552 126.849 137.972 126.148C141.392 125.446 144.39 123.447 146.31 120.588C148.231 117.728 148.918 114.24 148.221 110.886C147.525 107.532 145.501 104.584 142.593 102.686C139.155 100.469 135.305 98.9373 131.262 98.1783C127.22 97.4193 123.064 97.4482 119.033 98.2631C115.002 99.0781 111.174 100.663 107.769 102.928C104.363 105.193 101.447 108.093 99.1858 111.462C97.7491 113.603 96.9925 116.112 97.0118 118.674C97.0311 121.236 97.8254 123.735 99.2943 125.854C100.763 127.974 102.841 129.619 105.264 130.583C107.687 131.546 110.348 131.784 112.909 131.266ZM117.098 82.6532C117.815 89.0779 122.286 93.869 127.078 93.3523C131.87 92.8356 135.174 87.2097 134.452 80.786C133.737 74.366 129.266 69.5749 124.474 70.0917C119.681 70.6037 116.382 76.2286 117.098 82.6532ZM114.5 83.1785C116.439 89.3561 114.27 95.4895 109.661 96.8734C105.052 98.2573 99.7484 94.3716 97.8097 88.1939C95.8721 82.021 98.041 75.8876 102.65 74.5037C107.259 73.1151 112.567 76.9999 114.5 83.1785ZM98.7972 95.4041C100.295 97.2531 101.01 99.5958 100.793 101.947C100.575 104.298 99.4432 106.477 97.6305 108.032C94.0153 110.159 88.6745 107.951 85.7075 103.107C84.2105 101.258 83.4964 98.9172 83.7128 96.5676C83.9293 94.218 85.0598 92.0399 86.8703 90.4841C90.4845 88.3531 95.8253 90.5606 98.7972 95.4041Z" fill="#C493FF"/>
<path d="M22.919 22.7947C23.5448 25.072 23.253 27.4978 22.1039 29.5703C20.9549 31.6428 19.0365 33.2033 16.7457 33.929C12.5656 34.4843 8.55333 30.3859 7.78678 24.7867C7.15913 22.509 7.44959 20.0822 8.59802 18.0085C9.74645 15.9348 11.6649 14.3731 13.9563 13.6466C18.1364 13.0913 22.1477 17.1944 22.919 22.7947ZM46.4707 66.2658C44.7695 65.9242 43.1541 65.2568 41.7171 64.3018C40.2801 63.3468 39.05 62.1231 38.0973 60.701C37.384 59.6398 36.2698 58.8995 34.9995 58.6427C33.7293 58.3859 32.4069 58.6336 31.323 59.3314C28.3927 61.1961 24.8282 61.849 21.4081 61.1476C17.9879 60.4461 14.9902 58.4472 13.0698 55.5876C11.1494 52.7281 10.4623 49.2402 11.1588 45.886C11.8552 42.5319 13.8786 39.584 16.7867 37.6864C20.2246 35.4692 24.0749 33.9373 28.1175 33.1783C32.16 32.4193 36.3157 32.4482 40.3469 33.2631C44.3781 34.0781 48.2058 35.6633 51.6113 37.928C55.0168 40.1927 57.9333 43.0926 60.1941 46.462C61.6308 48.6026 62.3874 51.1125 62.368 53.6742C62.3487 56.236 61.5545 58.7346 60.0856 60.8542C58.6168 62.9739 56.5393 64.6193 54.1159 65.5825C51.6925 66.5457 49.032 66.7835 46.4707 66.2658ZM42.2814 17.6532C41.5648 24.0779 37.0942 28.869 32.3022 28.3523C27.5102 27.8356 24.2061 22.2097 24.9275 15.786C25.6431 9.36604 30.1137 4.57493 34.9057 5.09166C39.6987 5.60367 42.998 11.2286 42.2814 17.6532ZM44.8795 18.1785C42.9409 24.3561 45.1098 30.4895 49.719 31.8734C54.3283 33.2573 59.6315 29.3716 61.5702 23.1939C63.5078 17.021 61.3389 10.8876 56.7296 9.50374C52.1214 8.11513 46.8134 11.9999 44.8795 18.1785ZM60.5827 30.4041C59.0845 32.2531 58.37 34.5958 58.5872 36.9468C58.8044 39.2977 59.9367 41.4768 61.7494 43.0322C65.3646 45.1585 70.7054 42.951 73.6724 38.1066C75.1694 36.2584 75.8835 33.9172 75.667 31.5676C75.4506 29.218 74.3201 27.0399 72.5096 25.4841C68.8954 23.3531 63.5545 25.5606 60.5827 30.4041Z" fill="#C493FF"/>
</svg>
