<svg width="397" height="136" viewBox="0 0 397 136" fill="none" xmlns="http://www.w3.org/2000/svg">
<path d="M22.9189 25.384C23.5447 27.6614 23.2529 30.0872 22.1038 32.1597C20.9548 34.2321 19.0364 35.7927 16.7456 36.5184C12.5655 37.0737 8.55321 32.9753 7.78666 27.376C7.15901 25.0984 7.44947 22.6715 8.5979 20.5978C9.74633 18.5242 11.6648 16.9625 13.9562 16.236C18.1363 15.6807 22.1476 19.7838 22.9189 25.384ZM46.4705 68.8551C44.7694 68.5136 43.154 67.8461 41.717 66.8912C40.28 65.9362 39.0498 64.7125 38.0972 63.2903C37.3839 62.2292 36.2697 61.4888 34.9994 61.232C33.7291 60.9752 32.4067 61.223 31.3229 61.9208C28.3926 63.7855 24.8281 64.4384 21.4079 63.7369C17.9878 63.0354 14.9901 61.0366 13.0697 58.177C11.1492 55.3174 10.4622 51.8296 11.1587 48.4754C11.8551 45.1212 13.8784 42.1733 16.7866 40.2758C20.2245 38.0585 24.0748 36.5266 28.1173 35.7677C32.1599 35.0087 36.3156 35.0375 40.3467 35.8525C44.3779 36.6675 48.2057 38.2526 51.6112 40.5173C55.0167 42.7821 57.9332 45.682 60.194 49.0513C61.6307 51.192 62.3872 53.7018 62.3679 56.2636C62.3486 58.8253 61.5543 61.324 60.0855 63.4436C58.6167 65.5632 56.5392 67.2087 54.1158 68.1719C51.6924 69.1351 49.0319 69.3729 46.4705 68.8551ZM42.2813 20.2426C41.5647 26.6673 37.0941 31.4584 32.3021 30.9417C27.5101 30.4249 24.2059 24.7991 24.9273 18.3754C25.6429 11.9554 30.1136 7.16429 34.9056 7.68101C39.6985 8.19302 42.9979 13.8179 42.2813 20.2426ZM44.8794 20.7678C42.9407 26.9455 45.1096 33.0789 49.7189 34.4628C54.3282 35.8467 59.6314 31.9609 61.57 25.7833C63.5077 19.6104 61.3388 13.477 56.7295 12.0931C52.1212 10.7045 46.8132 14.5893 44.8794 20.7678ZM60.5826 32.9935C59.0844 34.8424 58.3699 37.1851 58.5871 39.5361C58.8043 41.8871 59.9366 44.0661 61.7493 45.6215C65.3644 47.7479 70.7053 45.5404 73.6723 40.6959C75.1692 38.8478 75.8834 36.5066 75.6669 34.157C75.4505 31.8074 74.3199 29.6292 72.5094 28.0735C68.8953 25.9425 63.5544 28.1499 60.5826 32.9935Z" fill="#DE766D"/>
<path d="M132.377 87.384C131.751 89.6614 132.043 92.0872 133.192 94.1597C134.341 96.2321 136.259 97.7927 138.55 98.5184C142.73 99.0737 146.742 94.9753 147.509 89.376C148.137 87.0984 147.846 84.6715 146.698 82.5978C145.549 80.5242 143.631 78.9625 141.339 78.236C137.159 77.6807 133.148 81.7838 132.377 87.384ZM108.825 130.855C110.526 130.514 112.142 129.846 113.579 128.891C115.016 127.936 116.246 126.712 117.199 125.29C117.912 124.229 119.026 123.489 120.296 123.232C121.567 122.975 122.889 123.223 123.973 123.921C126.903 125.785 130.468 126.438 133.888 125.737C137.308 125.035 140.306 123.037 142.226 120.177C144.146 117.317 144.833 113.83 144.137 110.475C143.441 107.121 141.417 104.173 138.509 102.276C135.071 100.059 131.221 98.5266 127.178 97.7677C123.136 97.0087 118.98 97.0375 114.949 97.8525C110.918 98.6675 107.09 100.253 103.684 102.517C100.279 104.782 97.3625 107.682 95.1017 111.051C93.6649 113.192 92.9084 115.702 92.9277 118.264C92.947 120.825 93.7413 123.324 95.2102 125.444C96.679 127.563 98.7564 129.209 101.18 130.172C103.603 131.135 106.264 131.373 108.825 130.855ZM113.014 82.2426C113.731 88.6673 118.202 93.4584 122.994 92.9417C127.786 92.4249 131.09 86.7991 130.368 80.3754C129.653 73.9554 125.182 69.1643 120.39 69.681C115.597 70.193 112.298 75.8179 113.014 82.2426ZM110.416 82.7678C112.355 88.9455 110.186 95.0789 105.577 96.4628C100.967 97.8467 95.6643 93.9609 93.7256 87.7833C91.788 81.6104 93.9569 75.477 98.5661 74.0931C103.174 72.7045 108.482 76.5893 110.416 82.7678ZM94.713 94.9935C96.2113 96.8424 96.9258 99.1851 96.7086 101.536C96.4914 103.887 95.3591 106.066 93.5463 107.622C89.9312 109.748 84.5903 107.54 81.6233 102.696C80.1264 100.848 79.4123 98.5066 79.6287 96.157C79.8452 93.8074 80.9757 91.6292 82.7862 90.0735C86.4004 87.9425 91.7412 90.1499 94.713 94.9935Z" fill="#DE766D"/>
<path d="M184.217 22.384C184.843 24.6614 184.551 27.0872 183.402 29.1597C182.253 31.2321 180.334 32.7927 178.043 33.5184C173.863 34.0737 169.851 29.9753 169.085 24.376C168.457 22.0984 168.747 19.6715 169.896 17.5978C171.044 15.5242 172.963 13.9625 175.254 13.236C179.434 12.6807 183.445 16.7838 184.217 22.384ZM207.768 65.8551C206.067 65.5136 204.452 64.8461 203.015 63.8912C201.578 62.9362 200.348 61.7125 199.395 60.2903C198.682 59.2292 197.568 58.4888 196.297 58.232C195.027 57.9752 193.705 58.223 192.621 58.9208C189.69 60.7855 186.126 61.4384 182.706 60.7369C179.286 60.0354 176.288 58.0366 174.368 55.177C172.447 52.3174 171.76 48.8296 172.457 45.4754C173.153 42.1212 175.176 39.1733 178.084 37.2758C181.522 35.0585 185.373 33.5266 189.415 32.7677C193.458 32.0087 197.613 32.0375 201.645 32.8525C205.676 33.6675 209.504 35.2526 212.909 37.5173C216.315 39.7821 219.231 42.682 221.492 46.0513C222.929 48.192 223.685 50.7018 223.666 53.2636C223.646 55.8253 222.852 58.324 221.383 60.4436C219.915 62.5632 217.837 64.2087 215.414 65.1719C212.99 66.1351 210.33 66.3729 207.768 65.8551ZM203.579 17.2426C202.863 23.6673 198.392 28.4584 193.6 27.9417C188.808 27.4249 185.504 21.7991 186.225 15.3754C186.941 8.9554 191.411 4.16429 196.203 4.68101C200.996 5.19302 204.296 10.8179 203.579 17.2426ZM206.177 17.7678C204.239 23.9455 206.407 30.0789 211.017 31.4628C215.626 32.8467 220.929 28.9609 222.868 22.7833C224.806 16.6104 222.637 10.477 218.027 9.09309C213.419 7.70449 208.111 11.5893 206.177 17.7678ZM221.88 29.9935C220.382 31.8424 219.668 34.1851 219.885 36.5361C220.102 38.8871 221.234 41.0661 223.047 42.6215C226.662 44.7479 232.003 42.5404 234.97 37.6959C236.467 35.8478 237.181 33.5066 236.965 31.157C236.748 28.8074 235.618 26.6292 233.807 25.0735C230.193 22.9425 224.852 25.1499 221.88 29.9935Z" fill="#DE766D"/>
<path d="M259.762 87.384C260.387 89.6614 260.096 92.0872 258.947 94.1597C257.798 96.2321 255.879 97.7927 253.588 98.5184C249.408 99.0737 245.396 94.9753 244.629 89.376C244.002 87.0984 244.292 84.6715 245.441 82.5978C246.589 80.5242 248.508 78.9625 250.799 78.236C254.979 77.6807 258.99 81.7838 259.762 87.384ZM283.313 130.855C281.612 130.514 279.997 129.846 278.56 128.891C277.123 127.936 275.893 126.712 274.94 125.29C274.227 124.229 273.112 123.489 271.842 123.232C270.572 122.975 269.25 123.223 268.166 123.921C265.235 125.785 261.671 126.438 258.251 125.737C254.831 125.035 251.833 123.037 249.912 120.177C247.992 117.317 247.305 113.83 248.001 110.475C248.698 107.121 250.721 104.173 253.629 102.276C257.067 100.059 260.918 98.5266 264.96 97.7677C269.003 97.0087 273.158 97.0375 277.19 97.8525C281.221 98.6675 285.048 100.253 288.454 102.517C291.859 104.782 294.776 107.682 297.037 111.051C298.473 113.192 299.23 115.702 299.211 118.264C299.191 120.825 298.397 123.324 296.928 125.444C295.459 127.563 293.382 129.209 290.959 130.172C288.535 131.135 285.875 131.373 283.313 130.855ZM279.124 82.2426C278.407 88.6673 273.937 93.4584 269.145 92.9417C264.353 92.4249 261.049 86.7991 261.77 80.3754C262.486 73.9554 266.956 69.1643 271.748 69.681C276.541 70.193 279.841 75.8179 279.124 82.2426ZM281.722 82.7678C279.784 88.9455 281.952 95.0789 286.562 96.4628C291.171 97.8467 296.474 93.9609 298.413 87.7833C300.35 81.6104 298.182 75.477 293.572 74.0931C288.964 72.7045 283.656 76.5893 281.722 82.7678ZM297.425 94.9935C295.927 96.8424 295.213 99.1851 295.43 101.536C295.647 103.887 296.779 106.066 298.592 107.622C302.207 109.748 307.548 107.54 310.515 102.696C312.012 100.848 312.726 98.5066 312.51 96.157C312.293 93.8074 311.163 91.6292 309.352 90.0735C305.738 87.9425 300.397 90.1499 297.425 94.9935Z" fill="#DE766D"/>
<path d="M373.303 22.384C372.678 24.6614 372.97 27.0872 374.119 29.1597C375.268 31.2321 377.186 32.7927 379.477 33.5184C383.657 34.0737 387.669 29.9753 388.436 24.376C389.063 22.0984 388.773 19.6715 387.625 17.5978C386.476 15.5242 384.558 13.9625 382.266 13.236C378.086 12.6807 374.075 16.7838 373.303 22.384ZM349.752 65.8551C351.453 65.5136 353.068 64.8461 354.505 63.8912C355.942 62.9362 357.173 61.7125 358.125 60.2903C358.839 59.2292 359.953 58.4888 361.223 58.232C362.493 57.9752 363.816 58.223 364.9 58.9208C367.83 60.7855 371.394 61.4384 374.814 60.7369C378.235 60.0354 381.232 58.0366 383.153 55.177C385.073 52.3174 385.76 48.8296 385.064 45.4754C384.367 42.1212 382.344 39.1733 379.436 37.2758C375.998 35.0585 372.148 33.5266 368.105 32.7677C364.062 32.0087 359.907 32.0375 355.876 32.8525C351.844 33.6675 348.017 35.2526 344.611 37.5173C341.206 39.7821 338.289 42.682 336.028 46.0513C334.592 48.192 333.835 50.7018 333.854 53.2636C333.874 55.8253 334.668 58.324 336.137 60.4436C337.606 62.5632 339.683 64.2087 342.107 65.1719C344.53 66.1351 347.191 66.3729 349.752 65.8551ZM353.941 17.2426C354.658 23.6673 359.128 28.4584 363.92 27.9417C368.712 27.4249 372.016 21.7991 371.295 15.3754C370.579 8.9554 366.109 4.16429 361.317 4.68101C356.524 5.19302 353.225 10.8179 353.941 17.2426ZM351.343 17.7678C353.282 23.9455 351.113 30.0789 346.504 31.4628C341.894 32.8467 336.591 28.9609 334.652 22.7833C332.715 16.6104 334.884 10.477 339.493 9.0931C344.101 7.70449 349.409 11.5893 351.343 17.7678ZM335.64 29.9935C337.138 31.8424 337.853 34.1851 337.635 36.5361C337.418 38.8871 336.286 41.0661 334.473 42.6215C330.858 44.7479 325.517 42.5404 322.55 37.6959C321.053 35.8478 320.339 33.5066 320.555 31.157C320.772 28.8074 321.902 26.6292 323.713 25.0735C327.327 22.9425 332.668 25.1499 335.64 29.9935Z" fill="#DE766D"/>
</svg>
