<svg width="114" height="109" viewBox="0 0 114 109" fill="none" xmlns="http://www.w3.org/2000/svg">
<path d="M88.4029 49.6431C85.46 52.4354 83.7308 56.2356 83.573 60.2574C83.4152 64.2792 84.8409 68.2149 87.5551 71.2503C93.1917 75.6642 102.72 73.1257 108.824 65.595C111.77 62.8038 113.502 59.0033 113.662 54.9803C113.821 50.9572 112.397 47.0197 109.682 43.9827C104.046 39.5688 94.5143 42.1151 88.4029 49.6431ZM15.206 92.9448C18.0045 93.9108 20.9671 94.3263 23.9238 94.1674C26.8804 94.0084 29.7727 93.2782 32.4346 92.0186C34.4242 91.0807 36.7167 90.9577 38.8079 91.6765C40.8992 92.3952 42.6183 93.897 43.5873 95.8517C46.2265 101.104 50.8735 105.131 56.5131 107.051C62.1527 108.972 68.3265 108.63 73.6858 106.102C79.0452 103.573 83.1543 99.0626 85.1157 93.5558C87.0771 88.0489 86.7312 81.9932 84.1536 76.7117C81.0835 70.506 76.7991 64.9477 71.5454 60.3543C66.2916 55.761 60.1715 52.2227 53.5348 49.9417C46.8982 47.6607 39.875 46.6817 32.8667 47.0606C25.8584 47.4395 19.0024 49.1689 12.6906 52.15C8.67995 54.0437 5.33854 57.0635 3.08878 60.8277C0.83902 64.5919 -0.218073 68.9315 0.0511511 73.2978C0.320383 77.6641 1.90384 81.8611 4.60132 85.3582C7.29881 88.8553 10.9892 91.4954 15.206 92.9448ZM64.579 25.4393C59.9167 35.4553 62.2126 46.3161 69.6998 49.6889C77.187 53.0617 87.0356 47.6785 91.69 37.6597C96.3496 27.6515 94.0537 16.7907 86.5665 13.4179C79.082 10.0374 69.2413 15.4233 64.579 25.4393ZM60.3017 23.9692C57.6513 34.6767 49.0163 41.7805 41.0259 39.8337C33.0355 37.8869 28.7135 27.6333 31.3639 16.9258C34.0116 6.22606 42.6466 -0.87775 50.637 1.06905C58.6301 3.00811 62.96 13.2644 60.3017 23.9692ZM26.4003 28.3243C26.9533 32.3199 25.9179 36.3627 23.5087 39.6148C21.0995 42.8669 17.5012 45.079 13.4596 45.7926C6.26692 45.7884 0.397276 37.9575 0.354023 28.3142C-0.197833 24.3208 0.836764 20.2806 3.24364 17.0299C5.65052 13.7792 9.2454 11.5668 13.2841 10.8509C20.4795 10.8473 26.3491 18.6782 26.4003 28.3243Z" fill="#324096"/>
</svg>
