<svg width="39" height="34" viewBox="0 0 39 34" fill="none" xmlns="http://www.w3.org/2000/svg">
<path d="M8.94857 11.8104C9.55515 12.9953 9.68298 14.368 9.30561 15.6446C8.92824 16.9211 8.07455 18.0038 6.92115 18.6685C4.72593 19.4572 2.07353 17.6576 0.999648 14.6552C0.39202 13.4703 0.26333 12.0971 0.640217 10.82C1.0171 9.5429 1.87071 8.45956 3.02433 7.79428C5.21955 7.00566 7.87197 8.80797 8.94857 11.8104ZM26.804 33.0904C25.8439 33.0981 24.8916 32.916 24.0021 32.5545C23.1125 32.1931 22.3031 31.6595 21.6205 30.9843C21.1098 30.4808 20.42 30.2006 19.7028 30.2054C18.9856 30.2101 18.2997 30.4994 17.7957 31.0096C16.4306 32.3769 14.5798 33.1484 12.6476 33.1556C10.7154 33.1628 8.85885 32.4052 7.48357 31.0481C6.10829 29.6911 5.32605 27.845 5.30772 25.9132C5.2894 23.9814 6.03649 22.1208 7.38578 20.7379C8.9839 19.1175 10.8857 17.8278 12.9826 16.9427C15.0794 16.0575 17.3301 15.5941 19.6062 15.5791C21.8822 15.564 24.1389 15.9976 26.2472 16.855C28.3556 17.7124 30.2743 18.9768 31.8937 20.5759C32.9227 21.5919 33.6274 22.8901 33.9186 24.3064C34.2098 25.7227 34.0745 27.1936 33.5297 28.533C32.985 29.8725 32.0553 31.0203 30.8581 31.8315C29.661 32.6427 28.2502 33.0808 26.804 33.0904ZM18.8143 6.73925C19.1833 10.3683 17.3297 13.5286 14.6774 13.7961C12.025 14.0635 9.5757 11.339 9.20942 7.70994C8.84045 4.08357 10.694 0.923262 13.3463 0.655843C15.9986 0.385707 18.4453 3.11016 18.8143 6.73925ZM20.2812 6.72956C19.9602 10.3632 21.8553 13.4987 24.511 13.7311C27.1666 13.9634 29.577 11.2068 29.898 7.57319C30.219 3.94226 28.3238 0.806732 25.6682 0.574397C23.0125 0.339346 20.5994 3.09593 20.2812 6.72956ZM30.213 11.6671C29.6205 12.8605 29.5099 14.2361 29.9042 15.5088C30.2985 16.7815 31.1675 17.8538 32.3309 18.5033C34.5364 19.2601 37.1648 17.4256 38.1988 14.4093C38.7908 13.2165 38.9013 11.8418 38.5075 10.5697C38.1138 9.29769 37.246 8.22574 36.0836 7.57577C33.8782 6.81623 31.2498 8.65073 30.213 11.6671Z" fill="#F21ED6"/>
</svg>
