<svg width="69" height="62" viewBox="0 0 69 62" fill="none" xmlns="http://www.w3.org/2000/svg">
<path d="M15.8458 17.7947C16.4716 20.072 16.1798 22.4978 15.0307 24.5703C13.8816 26.6428 11.9633 28.2033 9.67248 28.929C5.49234 29.4843 1.48009 25.3859 0.713538 19.7867C0.0858896 17.509 0.376345 15.0822 1.52478 13.0085C2.67321 10.9348 4.59167 9.3731 6.88305 8.64662C11.0632 8.09131 15.0744 12.1944 15.8458 17.7947ZM39.3974 61.2658C37.6963 60.9242 36.0808 60.2568 34.6439 59.3018C33.2069 58.3468 31.9767 57.1231 31.024 55.701C30.3108 54.6398 29.1966 53.8995 27.9263 53.6427C26.656 53.3859 25.3336 53.6336 24.2497 54.3314C21.3195 56.1961 17.7549 56.849 14.3348 56.1476C10.9147 55.4461 7.91696 53.4472 5.99654 50.5876C4.07612 47.7281 3.3891 44.2402 4.08555 40.886C4.782 37.5319 6.80533 34.584 9.71351 32.6864C13.1514 30.4692 17.0017 28.9373 21.0442 28.1783C25.0868 27.4193 29.2424 27.4482 33.2736 28.2631C37.3048 29.0781 41.1325 30.6633 44.538 32.928C47.9435 35.1927 50.86 38.0926 53.1209 41.462C54.5576 43.6026 55.3141 46.1125 55.2948 48.6742C55.2755 51.236 54.4812 53.7346 53.0124 55.8542C51.5435 57.9739 49.4661 59.6193 47.0427 60.5825C44.6193 61.5457 41.9588 61.7835 39.3974 61.2658ZM35.2082 12.6532C34.4916 19.0779 30.0209 23.869 25.229 23.3523C20.437 22.8356 17.1328 17.2097 17.8542 10.786C18.5698 4.36604 23.0405 -0.425066 27.8324 0.0916578C32.6254 0.603668 35.9248 6.22857 35.2082 12.6532ZM37.8063 13.1785C35.8676 19.3561 38.0365 25.4895 42.6458 26.8734C47.2551 28.2573 52.5583 24.3716 54.4969 18.1939C56.4346 12.021 54.2657 5.88764 49.6564 4.50374C45.0481 3.11513 39.7401 6.99991 37.8063 13.1785ZM53.5095 25.4041C52.0113 27.2531 51.2967 29.5958 51.5139 31.9468C51.7312 34.2977 52.8635 36.4768 54.6762 38.0322C58.2913 40.1585 63.6322 37.951 66.5992 33.1066C68.0961 31.2584 68.8103 28.9172 68.5938 26.5676C68.3773 24.218 67.2468 22.0399 65.4363 20.4841C61.8222 18.3531 56.4813 20.5606 53.5095 25.4041Z" fill="white"/>
</svg>
